999
dxflib 2.2.0.0
  0
SECTION
  2
HEADER
  9
$ACADVER
  1
AC1015
  9
$HANDSEED
  5
FFFF
  9
$DIMTFAC
 40
1.0
  9
$EXTMAX
 10
113.8042007785782062
 20
91.3682845768953484
 30
0.0
  9
$SURFTYPE
 70
6
  9
$DIMALTD
 70
3
  9
$PSLTSCALE
 70
1
  9
$LIMCHECK
 70
0
  9
$DIMALTF
 40
0.03937007874016
  9
$DIMTXT
 40
2.5
  9
$UNITMODE
 70
0
  9
$PEXTMIN
 10
0.0
 20
0.0
 30
0.0
  9
$PDMODE
 70
0
  9
$CELTYPE
  6
BYLAYER
  9
$DIMSHO
 70
1
  9
$DIMTAD
 70
1
  9
$PUCSORG
 10
0.0
 20
0.0
 30
0.0
  9
$DIMTIH
 70
0
  9
$SKPOLY
 70
0
  9
$REGENMODE
 70
1
  9
$UCSORG
 10
0.0
 20
0.0
 30
0.0
  9
$DIMDLE
 40
0.0
  9
$TEXTSTYLE
  7
STANDARD
  9
$WORLDVIEW
 70
1
  9
$DIMSAH
 70
0
  9
$SKETCHINC
 40
1.0
  9
$DIMDLI
 40
3.75
  9
$SURFU
 70
6
  9
$SURFV
 70
6
  9
$TDUSRTIMER
 40
0.1260315625
  9
$DIMTIX
 70
0
  9
$ANGBASE
 50
0.0
  9
$HANDLING
 70
1
  9
$DIMASO
 70
1
  9
$MAXACTVP
 70
64
  9
$SPLFRAME
 70
0
  9
$USRTIMER
 70
1
  9
$DIMTOFL
 70
1
  9
$DIMCLRD
 70
0
  9
$DIMCLRE
 70
0
  9
$DIMASZ
 40
2.5
  9
$PLINEGEN
 70
0
  9
$INSBASE
 10
0.0
 20
0.0
 30
0.0
  9
$SPLINESEGS
 70
8
  9
$CHAMFERA
 40
0.0
  9
$PLIMCHECK
 70
0
  9
$CHAMFERB
 40
0.0
  9
$QTEXTMODE
 70
0
  9
$DRAGMODE
 70
2
  9
$ATTMODE
 70
1
  9
$USERI1
 70
0
  9
$BLIPMODE
 70
0
  9
$USERI2
 70
0
  9
$AUNITS
 70
0
  9
$USERI3
 70
0
  9
$USERI4
 70
0
  9
$USERI5
 70
0
  9
$DIMALT
 70
0
  9
$DIMSTYLE
  2
ISO-25
  9
$DIMCEN
 40
2.5
  9
$DIMCLRT
 70
0
  9
$MENU
  1
.
  9
$VISRETAIN
 70
1
  9
$TDUPDATE
 40
2455306.7300259489566088
  9
$COORDS
 70
1
  9
$DIMTSZ
 40
0.0
  9
$PLIMMAX
 10
12.0
 20
9.0
  9
$DIMSOXD
 70
0
  9
$ATTREQ
 70
1
  9
$TRACEWID
 40
1.0
  9
$DIMSE1
 70
0
  9
$DIMSE2
 70
0
  9
$USERR1
 40
0.0
  9
$ATTDIA
 70
0
  9
$USERR2
 40
0.0
  9
$ANGDIR
 70
0
  9
$USERR3
 40
0.0
  9
$TILEMODE
 70
1
  9
$USERR4
 40
0.0
  9
$SHADEDIF
 70
70
  9
$DIMLIM
 70
0
  9
$USERR5
 40
0.0
  9
$MIRRTEXT
 70
0
  9
$PLINEWID
 40
0.0
  9
$FILLETRAD
 40
0.0
  9
$AUPREC
 70
0
  9
$CECOLOR
 62
256
  9
$TDCREATE
 40
2455296.3575657987967134
  9
$UCSXDIR
 10
1.0
 20
0.0
 30
0.0
  9
$DIMEXE
 40
1.25
  9
$LIMMIN
 10
0.0
 20
0.0
  9
$THICKNESS
 40
0.0
  9
$PDSIZE
 40
0.0
  9
$CLAYER
  8
0
  9
$PUCSYDIR
 10
0.0
 20
1.0
 30
0.0
  9
$PEXTMAX
 10
0.0
 20
0.0
 30
0.0
  9
$ELEVATION
 40
0.0
  9
$DIMEXO
 40
0.625
  9
$SURFTAB1
 70
6
  9
$SURFTAB2
 70
6
  9
$ORTHOMODE
 70
0
  9
$DIMTVP
 40
0.0
  9
$INSUNITS
 70
4
  9
$SHADEDGE
 70
3
  9
$DIMTM
 40
0.0
  9
$LIMMAX
 10
420.0
 20
297.0
  9
$DIMRND
 40
0.0
  9
$LUNITS
 70
2
  9
$DIMTP
 40
0.0
  9
$TEXTSIZE
 40
2.5
  9
$DIMGAP
 40
0.625
  9
$OSMODE
 70
55
  9
$PELEVATION
 40
0.0
  9
$LTSCALE
 40
1.0
  9
$DIMLFAC
 40
1.0
  9
$DIMTOH
 70
0
  9
$FILLMODE
 70
1
  9
$DIMSCALE
 40
1.0
  9
$PLIMMIN
 10
0.0
 20
0.0
  9
$UCSYDIR
 10
0.0
 20
1.0
 30
0.0
  9
$DIMTOL
 70
0
  9
$EXTMIN
 10
-74.9574626809735491
 20
-0.1611122669275278
 30
0.0
  9
$SPLINETYPE
 70
6
  9
$DIMZIN
 70
8
  9
$TDINDWG
 40
0.126041956
  9
$LUPREC
 70
4
  9
$PUCSXDIR
 10
1.0
 20
0.0
 30
0.0
  9
$CLAYER
  8
0
  0
ENDSEC
  0
SECTION
  2
TABLES
  0
TABLE
  2
VPORT
  5
8
100
AcDbSymbolTable
 70
1
  0
VPORT
  5
30
100
AcDbSymbolTableRecord
100
AcDbViewportTableRecord
  2
*Active
 70
0
 10
0.0
 20
0.0
 11
1.0
 21
1.0
 12
286.3055555555554861
 22
148.5
 13
0.0
 23
0.0
 14
10.0
 24
10.0
 15
10.0
 25
10.0
 16
0.0
 26
0.0
 36
1.0
 17
0.0
 27
0.0
 37
0.0
 40
297.0
 41
1.92798353909465
 42
50.0
 43
0.0
 44
0.0
 50
0.0
 51
0.0
 71
0
 72
100
 73
1
 74
3
 75
1
 76
1
 77
0
 78
0
281
0
 65
1
110
0.0
120
0.0
130
0.0
111
1.0
121
0.0
131
0.0
112
0.0
122
1.0
132
0.0
 79
0
146
0.0
  0
ENDTAB
  0
TABLE
  2
LTYPE
  5
5
100
AcDbSymbolTable
 70
21
  0
LTYPE
  5
14
100
AcDbSymbolTableRecord
100
AcDbLinetypeTableRecord
  2
ByBlock
 70
0
  3

 72
65
 73
0
 40
0.0
  0
LTYPE
  5
15
100
AcDbSymbolTableRecord
100
AcDbLinetypeTableRecord
  2
ByLayer
 70
0
  3

 72
65
 73
0
 40
0.0
  0
LTYPE
  5
16
100
AcDbSymbolTableRecord
100
AcDbLinetypeTableRecord
  2
CONTINUOUS
 70
0
  3
Solid line
 72
65
 73
0
 40
0.0
  0
LTYPE
  5
31
100
AcDbSymbolTableRecord
100
AcDbLinetypeTableRecord
  2
DOT
 70
0
  3
Dot . . . . . . . . . . . . . . . . . . . . . .
 72
65
 73
2
 40
6.3499999999999996
 49
0.0
 74
0
 49
-6.3499999999999996
 74
0
  0
LTYPE
  5
32
100
AcDbSymbolTableRecord
100
AcDbLinetypeTableRecord
  2
DOT2
 70
0
  3
Dot (.5x) .....................................
 72
65
 73
2
 40
3.1749999999999998
 49
0.0
 74
0
 49
-3.1749999999999998
 74
0
  0
LTYPE
  5
33
100
AcDbSymbolTableRecord
100
AcDbLinetypeTableRecord
  2
DOTX2
 70
0
  3
Dot (2x) .  .  .  .  .  .  .  .  .  .  .  .  .
 72
65
 73
2
 40
12.6999999999999993
 49
0.0
 74
0
 49
-12.6999999999999993
 74
0
  0
LTYPE
  5
34
100
AcDbSymbolTableRecord
100
AcDbLinetypeTableRecord
  2
DASHED
 70
0
  3
Dashed __ __ __ __ __ __ __ __ __ __ __ __ __ _
 72
65
 73
2
 40
19.0500000000000007
 49
12.6999999999999993
 74
0
 49
-6.3499999999999996
 74
0
  0
LTYPE
  5
35
100
AcDbSymbolTableRecord
100
AcDbLinetypeTableRecord
  2
DASHED2
 70
0
  3
Dashed (.5x) _ _ _ _ _ _ _ _ _ _ _ _ _ _ _ _ _
 72
65
 73
2
 40
9.5250000000000004
 49
6.3499999999999996
 74
0
 49
-3.1749999999999998
 74
0
  0
LTYPE
  5
36
100
AcDbSymbolTableRecord
100
AcDbLinetypeTableRecord
  2
DASHEDX2
 70
0
  3
Dashed (2x) ____  ____  ____  ____  ____  ___
 72
65
 73
2
 40
38.1000000000000014
 49
25.3999999999999986
 74
0
 49
-12.6999999999999993
 74
0
  0
LTYPE
  5
37
100
AcDbSymbolTableRecord
100
AcDbLinetypeTableRecord
  2
DASHDOT
 70
0
  3
Dash dot __ . __ . __ . __ . __ . __ . __ . __
 72
65
 73
4
 40
25.3999999999999986
 49
12.6999999999999993
 74
0
 49
-6.3499999999999996
 74
0
 49
0.0
 74
0
 49
-6.3499999999999996
 74
0
  0
LTYPE
  5
38
100
AcDbSymbolTableRecord
100
AcDbLinetypeTableRecord
  2
DASHDOT2
 70
0
  3
Dash dot (.5x) _._._._._._._._._._._._._._._.
 72
65
 73
4
 40
12.6999999999999993
 49
6.3499999999999996
 74
0
 49
-3.1749999999999998
 74
0
 49
0.0
 74
0
 49
-3.1749999999999998
 74
0
  0
LTYPE
  5
39
100
AcDbSymbolTableRecord
100
AcDbLinetypeTableRecord
  2
DASHDOTX2
 70
0
  3
Dash dot (2x) ____  .  ____  .  ____  .  ___
 72
65
 73
4
 40
50.7999999999999972
 49
25.3999999999999986
 74
0
 49
-12.6999999999999993
 74
0
 49
0.0
 74
0
 49
-12.6999999999999993
 74
0
  0
LTYPE
  5
3A
100
AcDbSymbolTableRecord
100
AcDbLinetypeTableRecord
  2
DIVIDE
 70
0
  3
Divide ____ . . ____ . . ____ . . ____ . . ____
 72
65
 73
6
 40
31.75
 49
12.6999999999999993
 74
0
 49
-6.3499999999999996
 74
0
 49
0.0
 74
0
 49
-6.3499999999999996
 74
0
 49
0.0
 74
0
 49
-6.3499999999999996
 74
0
  0
LTYPE
  5
3B
100
AcDbSymbolTableRecord
100
AcDbLinetypeTableRecord
  2
DIVIDE2
 70
0
  3
Divide (.5x) __..__..__..__..__..__..__..__.._
 72
65
 73
6
 40
15.875
 49
6.3499999999999996
 74
0
 49
-3.1749999999999998
 74
0
 49
0.0
 74
0
 49
-3.1749999999999998
 74
0
 49
0.0
 74
0
 49
-3.1749999999999998
 74
0
  0
LTYPE
  5
3C
100
AcDbSymbolTableRecord
100
AcDbLinetypeTableRecord
  2
DIVIDEX2
 70
0
  3
Divide (2x) ________  .  .  ________  .  .  _
 72
65
 73
6
 40
63.5
 49
25.3999999999999986
 74
0
 49
-12.6999999999999993
 74
0
 49
0.0
 74
0
 49
-12.6999999999999993
 74
0
 49
0.0
 74
0
 49
-12.6999999999999993
 74
0
  0
LTYPE
  5
3D
100
AcDbSymbolTableRecord
100
AcDbLinetypeTableRecord
  2
CENTER
 70
0
  3
Center ____ _ ____ _ ____ _ ____ _ ____ _ ____
 72
65
 73
4
 40
50.7999999999999972
 49
31.75
 74
0
 49
-6.3499999999999996
 74
0
 49
6.3499999999999996
 74
0
 49
-6.3499999999999996
 74
0
  0
LTYPE
  5
3E
100
AcDbSymbolTableRecord
100
AcDbLinetypeTableRecord
  2
CENTER2
 70
0
  3
Center (.5x) ___ _ ___ _ ___ _ ___ _ ___ _ ___
 72
65
 73
4
 40
28.5749999999999993
 49
19.0500000000000007
 74
0
 49
-3.1749999999999998
 74
0
 49
3.1749999999999998
 74
0
 49
-3.1749999999999998
 74
0
  0
LTYPE
  5
3F
100
AcDbSymbolTableRecord
100
AcDbLinetypeTableRecord
  2
CENTERX2
 70
0
  3
Center (2x) ________  __  ________  __  _____
 72
65
 73
4
 40
101.5999999999999943
 49
63.5
 74
0
 49
-12.6999999999999993
 74
0
 49
12.6999999999999993
 74
0
 49
-12.6999999999999993
 74
0
  0
LTYPE
  5
40
100
AcDbSymbolTableRecord
100
AcDbLinetypeTableRecord
  2
BORDER
 70
0
  3
Border __ __ . __ __ . __ __ . __ __ . __ __ .
 72
65
 73
6
 40
44.4500000000000028
 49
12.6999999999999993
 74
0
 49
-6.3499999999999996
 74
0
 49
12.6999999999999993
 74
0
 49
-6.3499999999999996
 74
0
 49
0.0
 74
0
 49
-6.3499999999999996
 74
0
  0
LTYPE
  5
41
100
AcDbSymbolTableRecord
100
AcDbLinetypeTableRecord
  2
BORDER2
 70
0
  3
Border (.5x) __.__.__.__.__.__.__.__.__.__.__.
 72
65
 73
6
 40
22.2250000000000014
 49
6.3499999999999996
 74
0
 49
-3.1749999999999998
 74
0
 49
6.3499999999999996
 74
0
 49
-3.1749999999999998
 74
0
 49
0.0
 74
0
 49
-3.1749999999999998
 74
0
  0
LTYPE
  5
42
100
AcDbSymbolTableRecord
100
AcDbLinetypeTableRecord
  2
BORDERX2
 70
0
  3
Border (2x) ____  ____  .  ____  ____  .  ___
 72
65
 73
6
 40
88.9000000000000057
 49
25.3999999999999986
 74
0
 49
-12.6999999999999993
 74
0
 49
25.3999999999999986
 74
0
 49
-12.6999999999999993
 74
0
 49
0.0
 74
0
 49
-12.6999999999999993
 74
0
  0
ENDTAB
  0
TABLE
  2
LAYER
  5
2
100
AcDbSymbolTable
 70
3
  0
LAYER
  5
10
100
AcDbSymbolTableRecord
100
AcDbLayerTableRecord
  2
0
 70
0
 62
7
420
16777215
  6
CONTINUOUS
390
F
  0
LAYER
  5
43
100
AcDbSymbolTableRecord
100
AcDbLayerTableRecord
  2
BIJ
 70
0
 62
1
420
16711680
  6
CONTINUOUS
390
F
  0
LAYER
  5
44
100
AcDbSymbolTableRecord
100
AcDbLayerTableRecord
  2
LINKS
 70
0
 62
2
420
16776960
  6
CONTINUOUS
390
F
  0
ENDTAB
  0
TABLE
  2
STYLE
  5
3
100
AcDbSymbolTable
 70
1
  0
STYLE
  5
11
100
AcDbSymbolTableRecord
100
AcDbTextStyleTableRecord
  2
Standard
 70
0
 40
0.0
 41
0.75
 50
0.0
 71
0
 42
2.5
  3
txt
  4

  0
ENDTAB
  0
TABLE
  2
VIEW
  5
6
100
AcDbSymbolTable
 70
0
  0
ENDTAB
  0
TABLE
  2
UCS
  5
7
100
AcDbSymbolTable
 70
0
  0
ENDTAB
  0
TABLE
  2
APPID
  5
9
100
AcDbSymbolTable
 70
1
  0
APPID
  5
12
100
AcDbSymbolTableRecord
100
AcDbRegAppTableRecord
  2
ACAD
 70
0
  0
ENDTAB
  0
TABLE
  2
DIMSTYLE
  5
A
100
AcDbSymbolTable
 70
1
100
AcDbDimStyleTable
 71
0
  0
DIMSTYLE
105
27
100
AcDbSymbolTableRecord
100
AcDbDimStyleTableRecord
  2
Standard
 41
2.5
 42
0.625
 43
3.75
 44
1.25
 70
0
 73
0
 74
0
 77
1
 78
8
140
2.5
141
2.5
143
0.03937007874016
147
0.625
171
3
172
1
271
2
272
2
274
3
278
44
283
0
284
8
340
11
  0
ENDTAB
  0
TABLE
  2
BLOCK_RECORD
  5
1
100
AcDbSymbolTable
 70
1
  0
BLOCK_RECORD
  5
1F
100
AcDbSymbolTableRecord
100
AcDbBlockTableRecord
  2
*Model_Space
340
22
  0
BLOCK_RECORD
  5
1B
100
AcDbSymbolTableRecord
100
AcDbBlockTableRecord
  2
*Paper_Space
340
1E
  0
BLOCK_RECORD
  5
23
100
AcDbSymbolTableRecord
100
AcDbBlockTableRecord
  2
*Paper_Space0
340
26
  0
ENDTAB
  0
ENDSEC
  0
SECTION
  2
BLOCKS
  0
BLOCK
  5
20
100
AcDbEntity
  8
0
100
AcDbBlockBegin
  2
*Model_Space
 70
0
 10
0.0
 20
0.0
 30
0.0
  3
*Model_Space
  1

  0
ENDBLK
  5
21
100
AcDbEntity
  8
0
100
AcDbBlockEnd
  0
BLOCK
  5
1C
100
AcDbEntity
 67
1
  8
0
100
AcDbBlockBegin
  2
*Paper_Space
 70
0
 10
0.0
 20
0.0
 30
0.0
  3
*Paper_Space
  1

  0
ENDBLK
  5
1D
100
AcDbEntity
 67
1
  8
0
100
AcDbBlockEnd
  0
BLOCK
  5
24
100
AcDbEntity
  8
0
100
AcDbBlockBegin
  2
*Paper_Space0
 70
0
 10
0.0
 20
0.0
 30
0.0
  3
*Paper_Space0
  1

  0
ENDBLK
  5
25
100
AcDbEntity
  8
0
100
AcDbBlockEnd
  0
ENDSEC
  0
SECTION
  2
ENTITIES
  0
CIRCLE
  5
45
100
AcDbEntity
100
AcDbCircle
  8
0
 62
256
370
-1
  6
ByLayer
 10
24.0
 20
10.0
 30
0.0
 40
1.5
  0
CIRCLE
  5
46
100
AcDbEntity
100
AcDbCircle
  8
0
 62
256
370
-1
  6
ByLayer
 10
30.0
 20
26.9699999999999989
 30
0.0
 40
1.5
  0
LINE
  5
47
100
AcDbEntity
100
AcDbLine
  8
0
 62
256
370
-1
  6
ByLayer
 10
35.5
 20
29.9700000000000095
 30
0.0
 11
35.5
 21
54.9699999999999989
 31
0.0
  0
LINE
  5
48
100
AcDbEntity
100
AcDbLine
  8
0
 62
256
370
-1
  6
ByLayer
 10
35.5
 20
54.9699999999999989
 30
0.0
 11
29.0
 21
54.9699999999999989
 31
0.0
  0
LINE
  5
49
100
AcDbEntity
100
AcDbLine
  8
0
 62
256
370
-1
  6
ByLayer
 10
21.1314867267778226
 20
10.8784256379161093
 30
0.0
 11
27.5
 21
29.9700000000000095
 31
0.0
  0
LINE
  5
4A
100
AcDbEntity
100
AcDbLine
  8
0
 62
256
370
-1
  6
ByLayer
 10
26.8063456914251077
 20
8.9396114578986499
 30
0.0
 11
35.5
 21
29.9700000000000095
 31
0.0
  0
ARC
  5
4B
100
AcDbEntity
  8
0
 62
256
370
-1
  6
ByLayer
100
AcDbCircle
 10
24.0
 20
10.0
 30
0.0
 40
3.0
100
AcDbArc
 50
162.9738253850291869
 51
339.3007347763170856
  0
LINE
  5
4C
100
AcDbEntity
100
AcDbLine
  8
0
 62
256
370
-1
  6
ByLayer
 10
36.8342954479308133
 20
97.9920816139444781
 30
0.0
 11
65.8342954479308133
 21
97.9920816139444781
 31
0.0
  0
LINE
  5
4D
100
AcDbEntity
100
AcDbLine
  8
0
 62
256
370
-1
  6
ByLayer
 10
65.8342954479308133
 20
91.9920816139445066
 30
0.0
 11
36.8342954479308133
 21
91.9920816139445066
 31
0.0
  0
ARC
  5
4E
100
AcDbEntity
  8
0
 62
256
370
-1
  6
ByLayer
100
AcDbCircle
 10
36.8342954479308133
 20
94.9920816139445208
 30
0.0
 40
3.0
100
AcDbArc
 50
90.0
 51
270.0
  0
ARC
  5
4F
100
AcDbEntity
  8
0
 62
256
370
-1
  6
ByLayer
100
AcDbCircle
 10
65.8342954479308133
 20
94.9920816139445208
 30
0.0
 40
3.0
100
AcDbArc
 50
270.0
 51
90.0
  0
CIRCLE
  5
50
100
AcDbEntity
100
AcDbCircle
  8
0
 62
256
370
-1
  6
ByLayer
 10
36.8342954479308133
 20
94.9920816139445208
 30
0.0
 40
1.5
  0
CIRCLE
  5
51
100
AcDbEntity
100
AcDbCircle
  8
0
 62
256
370
-1
  6
ByLayer
 10
65.8342954479308133
 20
94.9920816139445208
 30
0.0
 40
1.5
  0
CIRCLE
  5
52
100
AcDbEntity
100
AcDbCircle
  8
0
 62
256
370
-1
  6
ByLayer
 10
19.4752470114640488
 20
78.7793968438227665
 30
0.0
 40
3.0
  0
CIRCLE
  5
53
100
AcDbEntity
100
AcDbCircle
  8
0
 62
256
370
-1
  6
ByLayer
 10
26.4752470114640488
 20
77.0293968438227807
 30
0.0
 40
0.75
  0
CIRCLE
  5
54
100
AcDbEntity
100
AcDbCircle
  8
0
 62
256
370
-1
  6
ByLayer
 10
52.0300946911084736
 20
10.1611122438912638
 30
0.0
 40
1.5
  0
CIRCLE
  5
55
100
AcDbEntity
100
AcDbCircle
  8
0
 62
256
370
-1
  6
ByLayer
 10
58.0300946911084026
 20
27.1311122438912591
 30
0.0
 40
1.5
  0
LINE
  5
56
100
AcDbEntity
100
AcDbLine
  8
0
 62
256
370
-1
  6
ByLayer
 10
63.5300946911084026
 20
30.1311122438912591
 30
0.0
 11
63.5300946911084026
 21
55.131112243891252
 31
0.0
  0
LINE
  5
57
100
AcDbEntity
100
AcDbLine
  8
0
 62
256
370
-1
  6
ByLayer
 10
63.5300946911084026
 20
55.131112243891252
 30
0.0
 11
57.0300946911084026
 21
55.131112243891252
 31
0.0
  0
LINE
  5
58
100
AcDbEntity
100
AcDbLine
  8
0
 62
256
370
-1
  6
ByLayer
 10
49.1615814178863246
 20
11.0395378818073713
 30
0.0
 11
55.5300946911084026
 21
30.1311122438912591
 31
0.0
  0
LINE
  5
59
100
AcDbEntity
100
AcDbLine
  8
0
 62
256
370
-1
  6
ByLayer
 10
54.8364403825335529
 20
9.1007237017899136
 30
0.0
 11
63.5300946911084026
 21
30.1311122438912591
 31
0.0
  0
ARC
  5
5A
100
AcDbEntity
  8
0
 62
256
370
-1
  6
ByLayer
100
AcDbCircle
 10
52.0300946911084736
 20
10.1611122438912638
 30
0.0
 40
3.0
100
AcDbArc
 50
162.9738253850293859
 51
339.3007347763170856
  0
CIRCLE
  5
5B
100
AcDbEntity
100
AcDbCircle
  8
0
 62
256
370
-1
  6
ByLayer
 10
38.0300946911084878
 20
10.1611122438912638
 30
0.0
 40
1.5
  0
CIRCLE
  5
5C
100
AcDbEntity
100
AcDbCircle
  8
0
 62
256
370
-1
  6
ByLayer
 10
44.0300946911084736
 20
27.1311122438912591
 30
0.0
 40
1.5
  0
LINE
  5
5D
100
AcDbEntity
100
AcDbLine
  8
0
 62
256
370
-1
  6
ByLayer
 10
49.5300946911084736
 20
30.1311122438912591
 30
0.0
 11
49.5300946911084736
 21
55.131112243891252
 31
0.0
  0
LINE
  5
5E
100
AcDbEntity
100
AcDbLine
  8
0
 62
256
370
-1
  6
ByLayer
 10
49.5300946911084736
 20
55.131112243891252
 30
0.0
 11
43.0300946911084736
 21
55.131112243891252
 31
0.0
  0
LINE
  5
5F
100
AcDbEntity
100
AcDbLine
  8
0
 62
256
370
-1
  6
ByLayer
 10
35.1615814178863531
 20
11.0395378818073713
 30
0.0
 11
41.5300946911085305
 21
30.1311122438912591
 31
0.0
  0
LINE
  5
60
100
AcDbEntity
100
AcDbLine
  8
0
 62
256
370
-1
  6
ByLayer
 10
40.8364403825335813
 20
9.1007237017899136
 30
0.0
 11
49.5300946911084736
 21
30.1311122438912591
 31
0.0
  0
ARC
  5
61
100
AcDbEntity
  8
0
 62
256
370
-1
  6
ByLayer
100
AcDbCircle
 10
38.0300946911084878
 20
10.1611122438912638
 30
0.0
 40
3.0
100
AcDbArc
 50
162.9738253850293859
 51
339.3007347763170856
  0
CIRCLE
  5
62
100
AcDbEntity
100
AcDbCircle
  8
0
 62
256
370
-1
  6
ByLayer
 10
10.0
 20
10.0
 30
0.0
 40
1.5
  0
CIRCLE
  5
63
100
AcDbEntity
100
AcDbCircle
  8
0
 62
256
370
-1
  6
ByLayer
 10
15.9999999999999858
 20
26.9699999999999989
 30
0.0
 40
1.5
  0
LINE
  5
64
100
AcDbEntity
100
AcDbLine
  8
0
 62
256
370
-1
  6
ByLayer
 10
21.4999999999999574
 20
29.9700000000000095
 30
0.0
 11
21.4999999999999574
 21
54.9699999999999989
 31
0.0
  0
LINE
  5
65
100
AcDbEntity
100
AcDbLine
  8
0
 62
256
370
-1
  6
ByLayer
 10
21.4999999999999574
 20
54.9699999999999989
 30
0.0
 11
15.0
 21
54.9699999999999989
 31
0.0
  0
LINE
  5
66
100
AcDbEntity
100
AcDbLine
  8
0
 62
256
370
-1
  6
ByLayer
 10
7.1314867267778155
 20
10.8784256379161128
 30
0.0
 11
13.4999999999999858
 21
29.9700000000000095
 31
0.0
  0
LINE
  5
67
100
AcDbEntity
100
AcDbLine
  8
0
 62
256
370
-1
  6
ByLayer
 10
12.8063456914250438
 20
8.9396114578986534
 30
0.0
 11
21.4999999999999574
 21
29.9700000000000095
 31
0.0
  0
ARC
  5
68
100
AcDbEntity
  8
0
 62
256
370
-1
  6
ByLayer
100
AcDbCircle
 10
10.0
 20
10.0
 30
0.0
 40
3.0
100
AcDbArc
 50
162.9738253850293006
 51
339.3007347763170856
  0
LINE
  5
69
100
AcDbEntity
100
AcDbLine
  8
0
 62
256
370
-1
  6
ByLayer
 10
36.8342954479308133
 20
86.9920816139445066
 30
0.0
 11
65.8342954479308133
 21
86.9920816139445066
 31
0.0
  0
LINE
  5
6A
100
AcDbEntity
100
AcDbLine
  8
0
 62
256
370
-1
  6
ByLayer
 10
65.8342954479308133
 20
80.9920816139445208
 30
0.0
 11
36.8342954479308133
 21
80.9920816139445208
 31
0.0
  0
ARC
  5
6B
100
AcDbEntity
  8
0
 62
256
370
-1
  6
ByLayer
100
AcDbCircle
 10
36.8342954479308133
 20
83.9920816139445208
 30
0.0
 40
3.0
100
AcDbArc
 50
90.0
 51
270.0
  0
ARC
  5
6C
100
AcDbEntity
  8
0
 62
256
370
-1
  6
ByLayer
100
AcDbCircle
 10
65.8342954479308133
 20
83.9920816139445208
 30
0.0
 40
3.0
100
AcDbArc
 50
270.0
 51
90.0
  0
CIRCLE
  5
6D
100
AcDbEntity
100
AcDbCircle
  8
0
 62
256
370
-1
  6
ByLayer
 10
36.8342954479308133
 20
83.9920816139445208
 30
0.0
 40
1.5
  0
CIRCLE
  5
6E
100
AcDbEntity
100
AcDbCircle
  8
0
 62
256
370
-1
  6
ByLayer
 10
65.8342954479308133
 20
83.9920816139445208
 30
0.0
 40
1.5
  0
LINE
  5
6F
100
AcDbEntity
100
AcDbLine
  8
0
 62
256
370
-1
  6
ByLayer
 10
36.8342954479308133
 20
64.992081613944535
 30
0.0
 11
65.8342954479308133
 21
64.992081613944535
 31
0.0
  0
LINE
  5
70
100
AcDbEntity
100
AcDbLine
  8
0
 62
256
370
-1
  6
ByLayer
 10
65.8342954479308133
 20
58.992081613944535
 30
0.0
 11
36.8342954479308133
 21
58.992081613944535
 31
0.0
  0
ARC
  5
71
100
AcDbEntity
  8
0
 62
256
370
-1
  6
ByLayer
100
AcDbCircle
 10
36.8342954479308133
 20
61.992081613944535
 30
0.0
 40
3.0
100
AcDbArc
 50
90.0
 51
270.0
  0
ARC
  5
72
100
AcDbEntity
  8
0
 62
256
370
-1
  6
ByLayer
100
AcDbCircle
 10
65.8342954479308133
 20
61.992081613944535
 30
0.0
 40
3.0
100
AcDbArc
 50
270.0
 51
90.0
  0
CIRCLE
  5
73
100
AcDbEntity
100
AcDbCircle
  8
0
 62
256
370
-1
  6
ByLayer
 10
36.8342954479308133
 20
61.992081613944535
 30
0.0
 40
1.5
  0
CIRCLE
  5
74
100
AcDbEntity
100
AcDbCircle
  8
0
 62
256
370
-1
  6
ByLayer
 10
65.8342954479308133
 20
61.992081613944535
 30
0.0
 40
1.5
  0
LINE
  5
75
100
AcDbEntity
100
AcDbLine
  8
0
 62
256
370
-1
  6
ByLayer
 10
36.8342954479308133
 20
75.992081613944535
 30
0.0
 11
65.8342954479308133
 21
75.992081613944535
 31
0.0
  0
LINE
  5
76
100
AcDbEntity
100
AcDbLine
  8
0
 62
256
370
-1
  6
ByLayer
 10
65.8342954479308133
 20
69.992081613944535
 30
0.0
 11
36.8342954479308133
 21
69.992081613944535
 31
0.0
  0
ARC
  5
77
100
AcDbEntity
  8
0
 62
256
370
-1
  6
ByLayer
100
AcDbCircle
 10
36.8342954479308133
 20
72.992081613944535
 30
0.0
 40
3.0
100
AcDbArc
 50
90.0
 51
270.0
  0
ARC
  5
78
100
AcDbEntity
  8
0
 62
256
370
-1
  6
ByLayer
100
AcDbCircle
 10
65.8342954479308133
 20
72.992081613944535
 30
0.0
 40
3.0
100
AcDbArc
 50
270.0
 51
90.0
  0
CIRCLE
  5
79
100
AcDbEntity
100
AcDbCircle
  8
0
 62
256
370
-1
  6
ByLayer
 10
36.8342954479308133
 20
72.992081613944535
 30
0.0
 40
1.5
  0
CIRCLE
  5
7A
100
AcDbEntity
100
AcDbCircle
  8
0
 62
256
370
-1
  6
ByLayer
 10
65.8342954479308133
 20
72.992081613944535
 30
0.0
 40
1.5
  0
ARC
  5
7B
100
AcDbEntity
  8
0
 62
256
370
-1
  6
ByLayer
100
AcDbCircle
 10
11.4752470114640275
 20
89.7009697190765678
 30
0.0
 40
2.0
100
AcDbArc
 50
135.0000000000004263
 51
180.0
  0
ARC
  5
7C
100
AcDbEntity
  8
0
 62
256
370
-1
  6
ByLayer
100
AcDbCircle
 10
27.4752470114640772
 20
89.7009697190766815
 30
0.0
 40
2.0
100
AcDbArc
 50
0.0
 51
45.0
  0
LINE
  5
7D
100
AcDbEntity
100
AcDbLine
  8
0
 62
256
370
-1
  6
ByLayer
 10
29.4752470114640772
 20
89.7009697190766815
 30
0.0
 11
29.4752470114640488
 21
67.8578239685690647
 31
0.0
  0
ARC
  5
7E
100
AcDbEntity
  8
0
 62
256
370
-1
  6
ByLayer
100
AcDbCircle
 10
27.4752470114640488
 20
67.8578239685690647
 30
0.0
 40
2.0
100
AcDbArc
 50
315.0
 51
0.0
  0
LINE
  5
7F
100
AcDbEntity
100
AcDbLine
  8
0
 62
256
370
-1
  6
ByLayer
 10
9.4752470114640275
 20
67.8578239685690647
 30
0.0
 11
9.4752470114640275
 21
89.7009697190765678
 31
0.0
  0
ARC
  5
80
100
AcDbEntity
  8
0
 62
256
370
-1
  6
ByLayer
100
AcDbCircle
 10
11.4752470114640275
 20
67.8578239685690647
 30
0.0
 40
2.0
100
AcDbArc
 50
180.0
 51
225.0
  0
LINE
  5
81
100
AcDbEntity
100
AcDbLine
  8
0
 62
256
370
-1
  6
ByLayer
 10
22.0610334490909565
 20
59.615183281449788
 30
0.0
 11
28.8894605738371411
 21
66.4436104061959725
 31
0.0
  0
ARC
  5
82
100
AcDbEntity
  8
0
 62
256
370
-1
  6
ByLayer
100
AcDbCircle
 10
20.6468198867178643
 20
61.0293968438228802
 30
0.0
 40
2.0
100
AcDbArc
 50
270.0
 51
315.0
  0
LINE
  5
83
100
AcDbEntity
100
AcDbLine
  8
0
 62
256
370
-1
  6
ByLayer
 10
10.0610334490909352
 20
66.4436104061959725
 30
0.0
 11
16.8894605738371197
 21
59.615183281449788
 31
0.0
  0
LINE
  5
84
100
AcDbEntity
100
AcDbLine
  8
0
 62
256
370
-1
  6
ByLayer
 10
20.6468198867178643
 20
59.0293968438228802
 30
0.0
 11
18.303674136210212
 21
59.0293968438228802
 31
0.0
  0
ARC
  5
85
100
AcDbEntity
  8
0
 62
256
370
-1
  6
ByLayer
100
AcDbCircle
 10
18.303674136210212
 20
61.0293968438228802
 30
0.0
 40
2.0
100
AcDbArc
 50
225.0
 51
270.0
  0
LINE
  5
86
100
AcDbEntity
100
AcDbLine
  8
0
 62
256
370
-1
  6
ByLayer
 10
28.8894605738371695
 20
91.1151832814497737
 30
0.0
 11
22.0610334490909992
 21
97.9436104061959583
 31
0.0
  0
ARC
  5
87
100
AcDbEntity
  8
0
 62
256
370
-1
  6
ByLayer
100
AcDbCircle
 10
20.6468198867178927
 20
96.529396843822866
 30
0.0
 40
2.0
100
AcDbArc
 50
44.9999999999997229
 51
90.00000000000081
  0
LINE
  5
88
100
AcDbEntity
100
AcDbLine
  8
0
 62
256
370
-1
  6
ByLayer
 10
18.3036741362101978
 20
98.5293968438228518
 30
0.0
 11
20.6468198867178643
 21
98.529396843822866
 31
0.0
  0
LINE
  5
89
100
AcDbEntity
100
AcDbLine
  8
0
 62
256
370
-1
  6
ByLayer
 10
10.0610334490909139
 20
91.1151832814496601
 30
0.0
 11
16.8894605738371126
 21
97.9436104061959441
 31
0.0
  0
ARC
  5
8A
100
AcDbEntity
  8
0
 62
256
370
-1
  6
ByLayer
100
AcDbCircle
 10
18.3036741362102191
 20
96.5293968438228518
 30
0.0
 40
2.0
100
AcDbArc
 50
90.0000000000006111
 51
135.0000000000002842
  0
LINE
  5
8B
100
AcDbEntity
100
AcDbLine
  8
0
 62
256
370
-1
  6
ByLayer
 10
14.2000000000000028
 20
29.9700000000000095
 30
0.0
 11
13.4999999999999858
 21
29.9700000000000095
 31
0.0
  0
LINE
  5
8C
100
AcDbEntity
100
AcDbLine
  8
0
 62
256
370
-1
  6
ByLayer
 10
15.0
 20
54.9699999999999989
 30
0.0
 11
15.0
 21
30.7700000000000102
 31
0.0
  0
ARC
  5
8D
100
AcDbEntity
  8
0
 62
256
370
-1
  6
ByLayer
100
AcDbCircle
 10
14.2000000000000028
 20
30.7700000000000102
 30
0.0
 40
0.8
100
AcDbArc
 50
270.0
 51
0.0
  0
LINE
  5
8E
100
AcDbEntity
100
AcDbLine
  8
0
 62
256
370
-1
  6
ByLayer
 10
28.2000000000000028
 20
29.9700000000000095
 30
0.0
 11
27.5
 21
29.9700000000000095
 31
0.0
  0
LINE
  5
8F
100
AcDbEntity
100
AcDbLine
  8
0
 62
256
370
-1
  6
ByLayer
 10
29.0
 20
54.9699999999999989
 30
0.0
 11
29.0
 21
30.7700000000000102
 31
0.0
  0
ARC
  5
90
100
AcDbEntity
  8
0
 62
256
370
-1
  6
ByLayer
100
AcDbCircle
 10
28.2000000000000028
 20
30.7700000000000102
 30
0.0
 40
0.8
100
AcDbArc
 50
270.0
 51
0.0
  0
LINE
  5
91
100
AcDbEntity
100
AcDbLine
  8
0
 62
256
370
-1
  6
ByLayer
 10
42.2300946911084765
 20
30.1311122438912591
 30
0.0
 11
41.5300946911085305
 21
30.1311122438912591
 31
0.0
  0
LINE
  5
92
100
AcDbEntity
100
AcDbLine
  8
0
 62
256
370
-1
  6
ByLayer
 10
43.0300946911084736
 20
55.131112243891252
 30
0.0
 11
43.0300946911084736
 21
30.9311122438912598
 31
0.0
  0
ARC
  5
93
100
AcDbEntity
  8
0
 62
256
370
-1
  6
ByLayer
100
AcDbCircle
 10
42.2300946911084765
 20
30.9311122438912598
 30
0.0
 40
0.8
100
AcDbArc
 50
270.0
 51
0.0
  0
LINE
  5
94
100
AcDbEntity
100
AcDbLine
  8
0
 62
256
370
-1
  6
ByLayer
 10
56.2300946911084054
 20
30.1311122438912591
 30
0.0
 11
55.5300946911084026
 21
30.1311122438912591
 31
0.0
  0
LINE
  5
95
100
AcDbEntity
100
AcDbLine
  8
0
 62
256
370
-1
  6
ByLayer
 10
57.0300946911084026
 20
55.131112243891252
 30
0.0
 11
57.0300946911084026
 21
30.9311122438912598
 31
0.0
  0
ARC
  5
96
100
AcDbEntity
  8
0
 62
256
370
-1
  6
ByLayer
100
AcDbCircle
 10
56.2300946911084054
 20
30.9311122438912598
 30
0.0
 40
0.8
100
AcDbArc
 50
270.0
 51
0.0
  0
CIRCLE
  5
97
100
AcDbEntity
100
AcDbCircle
  8
0
 62
256
370
-1
  6
ByLayer
 10
26.4752470114640488
 20
80.5293968438227665
 30
0.0
 40
0.75
  0
CIRCLE
  5
98
100
AcDbEntity
100
AcDbCircle
  8
0
 62
256
370
-1
  6
ByLayer
 10
12.9752470114640346
 20
77.0293968438227807
 30
0.0
 40
0.75
  0
CIRCLE
  5
99
100
AcDbEntity
100
AcDbCircle
  8
0
 62
256
370
-1
  6
ByLayer
 10
12.9752470114640346
 20
80.5293968438227665
 30
0.0
 40
0.75
  0
LINE
  5
9A
100
AcDbEntity
100
AcDbLine
  8
0
 62
256
370
-1
  6
ByLayer
 10
16.1252470114640261
 20
92.5293968438227665
 30
0.0
 11
22.8252470114640431
 21
92.5293968438227665
 31
0.0
  0
ARC
  5
9B
100
AcDbEntity
  8
0
 62
256
370
-1
  6
ByLayer
100
AcDbCircle
 10
22.8252470114640431
 20
91.7293968438227694
 30
0.0
 40
0.8
100
AcDbArc
 50
270.0
 51
90.0
  0
LINE
  5
9C
100
AcDbEntity
100
AcDbLine
  8
0
 62
256
370
-1
  6
ByLayer
 10
22.8252470114640431
 20
90.9293968438227722
 30
0.0
 11
22.8252470114640431
 21
86.3793968438227608
 31
0.0
  0
ARC
  5
9D
100
AcDbEntity
  8
0
 62
256
370
-1
  6
ByLayer
100
AcDbCircle
 10
22.8252470114640431
 20
85.5793968438227637
 30
0.0
 40
0.8
100
AcDbArc
 50
270.0
 51
90.0
  0
LINE
  5
9E
100
AcDbEntity
100
AcDbLine
  8
0
 62
256
370
-1
  6
ByLayer
 10
22.8252470114640431
 20
84.7793968438227665
 30
0.0
 11
16.1252470114640261
 21
84.7793968438227665
 31
0.0
  0
ARC
  5
9F
100
AcDbEntity
  8
0
 62
256
370
-1
  6
ByLayer
100
AcDbCircle
 10
16.1252470114640261
 20
85.5793968438227637
 30
0.0
 40
0.8
100
AcDbArc
 50
90.0
 51
270.0
  0
ARC
  5
A0
100
AcDbEntity
  8
0
 62
256
370
-1
  6
ByLayer
100
AcDbCircle
 10
16.1252470114640261
 20
91.7293968438227694
 30
0.0
 40
0.8
100
AcDbArc
 50
90.0
 51
270.0
  0
LINE
  5
A1
100
AcDbEntity
100
AcDbLine
  8
0
 62
256
370
-1
  6
ByLayer
 10
16.1252470114640261
 20
86.3793968438227608
 30
0.0
 11
16.1252470114640261
 21
90.9293968438227722
 31
0.0
  0
LINE
  5
A2
100
AcDbEntity
100
AcDbLine
  8
0
 62
256
370
-1
  6
ByLayer
 10
16.1252470114640261
 20
72.7793968438227807
 30
0.0
 11
22.8252470114640431
 21
72.7793968438227807
 31
0.0
  0
ARC
  5
A3
100
AcDbEntity
  8
0
 62
256
370
-1
  6
ByLayer
100
AcDbCircle
 10
22.8252470114640431
 20
71.9793968438227836
 30
0.0
 40
0.8
100
AcDbArc
 50
270.0
 51
90.0
  0
LINE
  5
A4
100
AcDbEntity
100
AcDbLine
  8
0
 62
256
370
-1
  6
ByLayer
 10
22.8252470114640431
 20
71.1793968438227864
 30
0.0
 11
22.8252470114640431
 21
66.6293968438228745
 31
0.0
  0
ARC
  5
A5
100
AcDbEntity
  8
0
 62
256
370
-1
  6
ByLayer
100
AcDbCircle
 10
22.8252470114640431
 20
65.8293968438228632
 30
0.0
 40
0.8
100
AcDbArc
 50
270.0
 51
90.0
  0
LINE
  5
A6
100
AcDbEntity
100
AcDbLine
  8
0
 62
256
370
-1
  6
ByLayer
 10
22.8252470114640431
 20
65.0293968438228802
 30
0.0
 11
16.1252470114640261
 21
65.0293968438228802
 31
0.0
  0
ARC
  5
A7
100
AcDbEntity
  8
0
 62
256
370
-1
  6
ByLayer
100
AcDbCircle
 10
16.1252470114640261
 20
65.8293968438228774
 30
0.0
 40
0.8
100
AcDbArc
 50
90.0
 51
270.0
  0
ARC
  5
A8
100
AcDbEntity
  8
0
 62
256
370
-1
  6
ByLayer
100
AcDbCircle
 10
16.1252470114640261
 20
71.9793968438227978
 30
0.0
 40
0.8
100
AcDbArc
 50
90.0
 51
270.0
  0
LINE
  5
A9
100
AcDbEntity
100
AcDbLine
  8
0
 62
256
370
-1
  6
ByLayer
 10
16.1252470114640261
 20
66.6293968438228745
 30
0.0
 11
16.1252470114640261
 21
71.1793968438228006
 31
0.0
  0
ENDSEC
  0
SECTION
  2
OBJECTS
  0
DICTIONARY
  5
C
100
AcDbDictionary
280
0
281
1
  3
ACAD_GROUP
350
D
  3
ACAD_LAYOUT
350
1A
  3
ACAD_MLINESTYLE
350
17
  3
ACAD_PLOTSETTINGS
350
19
  3
ACAD_PLOTSTYLENAME
350
E
  3
AcDbVariableDictionary
350
AA
  0
DICTIONARY
  5
D
100
AcDbDictionary
280
0
281
1
  0
ACDBDICTIONARYWDFLT
  5
E
100
AcDbDictionary
281
1
  3
Normal
350
F
100
AcDbDictionaryWithDefault
340
F
  0
ACDBPLACEHOLDER
  5
F
  0
DICTIONARY
  5
17
100
AcDbDictionary
280
0
281
1
  3
Standard
350
18
  0
MLINESTYLE
  5
18
100
AcDbMlineStyle
  2
STANDARD
 70
0
  3

 62
256
 51
90.0
 52
90.0
 71
2
 49
0.5
 62
256
  6
BYLAYER
 49
-0.5
 62
256
  6
BYLAYER
  0
DICTIONARY
  5
19
100
AcDbDictionary
280
0
281
1
  0
DICTIONARY
  5
1A
100
AcDbDictionary
281
1
  3
Layout1
350
1E
  3
Layout2
350
26
  3
Model
350
22
  0
LAYOUT
  5
1E
100
AcDbPlotSettings
  1

  2
C:\Program Files\AutoCAD 2002\plotters\DWF ePlot (optimized for plotting).pc3
  4

  6

 40
0.0
 41
0.0
 42
0.0
 43
0.0
 44
0.0
 45
0.0
 46
0.0
 47
0.0
 48
0.0
 49
0.0
140
0.0
141
0.0
142
1.0
143
1.0
 70
688
 72
0
 73
0
 74
5
  7

 75
16
147
1.0
148
0.0
149
0.0
100
AcDbLayout
  1
Layout1
 70
1
 71
1
 10
0.0
 20
0.0
 11
420.0
 21
297.0
 12
0.0
 22
0.0
 32
0.0
 14
100000000000000000000.0
 24
100000000000000000000.0
 34
100000000000000000000.0
 15
-100000000000000000000.0
 25
-100000000000000000000.0
 35
-100000000000000000000.0
146
0.0
 13
0.0
 23
0.0
 33
0.0
 16
1.0
 26
0.0
 36
0.0
 17
0.0
 27
1.0
 37
0.0
 76
0
330
1B
  0
LAYOUT
  5
22
100
AcDbPlotSettings
  1

  2
C:\Program Files\AutoCAD 2002\plotters\DWF ePlot (optimized for plotting).pc3
  4

  6

 40
0.0
 41
0.0
 42
0.0
 43
0.0
 44
0.0
 45
0.0
 46
0.0
 47
0.0
 48
0.0
 49
0.0
140
0.0
141
0.0
142
1.0
143
1.0
 70
1712
 72
0
 73
0
 74
0
  7

 75
0
147
1.0
148
0.0
149
0.0
100
AcDbLayout
  1
Model
 70
1
 71
0
 10
0.0
 20
0.0
 11
12.0
 21
9.0
 12
0.0
 22
0.0
 32
0.0
 14
0.0
 24
0.0
 34
0.0
 15
0.0
 25
0.0
 35
0.0
146
0.0
 13
0.0
 23
0.0
 33
0.0
 16
1.0
 26
0.0
 36
0.0
 17
0.0
 27
1.0
 37
0.0
 76
0
330
1F
  0
LAYOUT
  5
26
100
AcDbPlotSettings
  1

  2
C:\Program Files\AutoCAD 2002\plotters\DWF ePlot (optimized for plotting).pc3
  4

  6

 40
0.0
 41
0.0
 42
0.0
 43
0.0
 44
0.0
 45
0.0
 46
0.0
 47
0.0
 48
0.0
 49
0.0
140
0.0
141
0.0
142
1.0
143
1.0
 70
688
 72
0
 73
0
 74
5
  7

 75
16
147
1.0
148
0.0
149
0.0
100
AcDbLayout
  1
Layout2
 70
1
 71
2
 10
0.0
 20
0.0
 11
12.0
 21
9.0
 12
0.0
 22
0.0
 32
0.0
 14
0.0
 24
0.0
 34
0.0
 15
0.0
 25
0.0
 35
0.0
146
0.0
 13
0.0
 23
0.0
 33
0.0
 16
1.0
 26
0.0
 36
0.0
 17
0.0
 27
1.0
 37
0.0
 76
0
330
23
  0
DICTIONARY
  5
AA
100
AcDbDictionary
281
1
  3
DIMASSOC
350
AC
  3
HIDETEXT
350
AB
  0
DICTIONARYVAR
  5
AB
100
DictionaryVariables
280
0
  1
2
  0
DICTIONARYVAR
  5
AC
100
DictionaryVariables
280
0
  1
1
  0
ENDSEC
  0
EOF
