999
dxflib 2.2.0.0
  0
SECTION
  2
HEADER
  9
$ACADVER
  1
AC1015
  9
$HANDSEED
  5
FFFF
  9
$DIMTFAC
 40
1.0
  9
$EXTMAX
 10
113.8042007785782062
 20
91.3682845768953484
 30
0.0
  9
$SURFTYPE
 70
6
  9
$DIMALTD
 70
3
  9
$PSLTSCALE
 70
1
  9
$LIMCHECK
 70
0
  9
$DIMALTF
 40
0.03937007874016
  9
$DIMTXT
 40
2.5
  9
$UNITMODE
 70
0
  9
$PEXTMIN
 10
0.0
 20
0.0
 30
0.0
  9
$PDMODE
 70
0
  9
$CELTYPE
  6
BYLAYER
  9
$DIMSHO
 70
1
  9
$DIMTAD
 70
1
  9
$PUCSORG
 10
0.0
 20
0.0
 30
0.0
  9
$DIMTIH
 70
0
  9
$SKPOLY
 70
0
  9
$REGENMODE
 70
1
  9
$UCSORG
 10
0.0
 20
0.0
 30
0.0
  9
$DIMDLE
 40
0.0
  9
$TEXTSTYLE
  7
STANDARD
  9
$WORLDVIEW
 70
1
  9
$DIMSAH
 70
0
  9
$SKETCHINC
 40
1.0
  9
$DIMDLI
 40
3.75
  9
$SURFU
 70
6
  9
$SURFV
 70
6
  9
$TDUSRTIMER
 40
0.1260315625
  9
$DIMTIX
 70
0
  9
$ANGBASE
 50
0.0
  9
$HANDLING
 70
1
  9
$DIMASO
 70
1
  9
$MAXACTVP
 70
64
  9
$SPLFRAME
 70
0
  9
$USRTIMER
 70
1
  9
$DIMTOFL
 70
1
  9
$DIMCLRD
 70
0
  9
$DIMCLRE
 70
0
  9
$DIMASZ
 40
2.5
  9
$PLINEGEN
 70
0
  9
$INSBASE
 10
0.0
 20
0.0
 30
0.0
  9
$SPLINESEGS
 70
8
  9
$CHAMFERA
 40
0.0
  9
$PLIMCHECK
 70
0
  9
$CHAMFERB
 40
0.0
  9
$QTEXTMODE
 70
0
  9
$DRAGMODE
 70
2
  9
$ATTMODE
 70
1
  9
$USERI1
 70
0
  9
$BLIPMODE
 70
0
  9
$USERI2
 70
0
  9
$AUNITS
 70
0
  9
$USERI3
 70
0
  9
$USERI4
 70
0
  9
$USERI5
 70
0
  9
$DIMALT
 70
0
  9
$DIMSTYLE
  2
ISO-25
  9
$DIMCEN
 40
2.5
  9
$DIMCLRT
 70
0
  9
$MENU
  1
.
  9
$VISRETAIN
 70
1
  9
$TDUPDATE
 40
2455306.7300259489566088
  9
$COORDS
 70
1
  9
$DIMTSZ
 40
0.0
  9
$PLIMMAX
 10
12.0
 20
9.0
  9
$DIMSOXD
 70
0
  9
$ATTREQ
 70
1
  9
$TRACEWID
 40
1.0
  9
$DIMSE1
 70
0
  9
$DIMSE2
 70
0
  9
$USERR1
 40
0.0
  9
$ATTDIA
 70
0
  9
$USERR2
 40
0.0
  9
$ANGDIR
 70
0
  9
$USERR3
 40
0.0
  9
$TILEMODE
 70
1
  9
$USERR4
 40
0.0
  9
$SHADEDIF
 70
70
  9
$DIMLIM
 70
0
  9
$USERR5
 40
0.0
  9
$MIRRTEXT
 70
0
  9
$PLINEWID
 40
0.0
  9
$FILLETRAD
 40
0.0
  9
$AUPREC
 70
0
  9
$CECOLOR
 62
256
  9
$TDCREATE
 40
2455296.3575657987967134
  9
$UCSXDIR
 10
1.0
 20
0.0
 30
0.0
  9
$DIMEXE
 40
1.25
  9
$LIMMIN
 10
0.0
 20
0.0
  9
$THICKNESS
 40
0.0
  9
$PDSIZE
 40
0.0
  9
$CLAYER
  8
0
  9
$PUCSYDIR
 10
0.0
 20
1.0
 30
0.0
  9
$PEXTMAX
 10
0.0
 20
0.0
 30
0.0
  9
$ELEVATION
 40
0.0
  9
$DIMEXO
 40
0.625
  9
$SURFTAB1
 70
6
  9
$SURFTAB2
 70
6
  9
$ORTHOMODE
 70
0
  9
$DIMTVP
 40
0.0
  9
$INSUNITS
 70
4
  9
$SHADEDGE
 70
3
  9
$DIMTM
 40
0.0
  9
$LIMMAX
 10
420.0
 20
297.0
  9
$DIMRND
 40
0.0
  9
$LUNITS
 70
2
  9
$DIMTP
 40
0.0
  9
$TEXTSIZE
 40
2.5
  9
$DIMGAP
 40
0.625
  9
$OSMODE
 70
55
  9
$PELEVATION
 40
0.0
  9
$LTSCALE
 40
1.0
  9
$DIMLFAC
 40
1.0
  9
$DIMTOH
 70
0
  9
$FILLMODE
 70
1
  9
$DIMSCALE
 40
1.0
  9
$PLIMMIN
 10
0.0
 20
0.0
  9
$UCSYDIR
 10
0.0
 20
1.0
 30
0.0
  9
$DIMTOL
 70
0
  9
$EXTMIN
 10
-74.9574626809735491
 20
-0.1611122669275278
 30
0.0
  9
$SPLINETYPE
 70
6
  9
$DIMZIN
 70
8
  9
$TDINDWG
 40
0.126041956
  9
$LUPREC
 70
4
  9
$PUCSXDIR
 10
1.0
 20
0.0
 30
0.0
  9
$CLAYER
  8
0
  0
ENDSEC
  0
SECTION
  2
TABLES
  0
TABLE
  2
VPORT
  5
8
100
AcDbSymbolTable
 70
1
  0
VPORT
  5
30
100
AcDbSymbolTableRecord
100
AcDbViewportTableRecord
  2
*Active
 70
0
 10
0.0
 20
0.0
 11
1.0
 21
1.0
 12
286.3055555555554861
 22
148.5
 13
0.0
 23
0.0
 14
10.0
 24
10.0
 15
10.0
 25
10.0
 16
0.0
 26
0.0
 36
1.0
 17
0.0
 27
0.0
 37
0.0
 40
297.0
 41
1.92798353909465
 42
50.0
 43
0.0
 44
0.0
 50
0.0
 51
0.0
 71
0
 72
100
 73
1
 74
3
 75
1
 76
1
 77
0
 78
0
281
0
 65
1
110
0.0
120
0.0
130
0.0
111
1.0
121
0.0
131
0.0
112
0.0
122
1.0
132
0.0
 79
0
146
0.0
  0
ENDTAB
  0
TABLE
  2
LTYPE
  5
5
100
AcDbSymbolTable
 70
21
  0
LTYPE
  5
14
100
AcDbSymbolTableRecord
100
AcDbLinetypeTableRecord
  2
ByBlock
 70
0
  3

 72
65
 73
0
 40
0.0
  0
LTYPE
  5
15
100
AcDbSymbolTableRecord
100
AcDbLinetypeTableRecord
  2
ByLayer
 70
0
  3

 72
65
 73
0
 40
0.0
  0
LTYPE
  5
16
100
AcDbSymbolTableRecord
100
AcDbLinetypeTableRecord
  2
CONTINUOUS
 70
0
  3
Solid line
 72
65
 73
0
 40
0.0
  0
LTYPE
  5
31
100
AcDbSymbolTableRecord
100
AcDbLinetypeTableRecord
  2
DOT
 70
0
  3
Dot . . . . . . . . . . . . . . . . . . . . . .
 72
65
 73
2
 40
6.3499999999999996
 49
0.0
 74
0
 49
-6.3499999999999996
 74
0
  0
LTYPE
  5
32
100
AcDbSymbolTableRecord
100
AcDbLinetypeTableRecord
  2
DOT2
 70
0
  3
Dot (.5x) .....................................
 72
65
 73
2
 40
3.1749999999999998
 49
0.0
 74
0
 49
-3.1749999999999998
 74
0
  0
LTYPE
  5
33
100
AcDbSymbolTableRecord
100
AcDbLinetypeTableRecord
  2
DOTX2
 70
0
  3
Dot (2x) .  .  .  .  .  .  .  .  .  .  .  .  .
 72
65
 73
2
 40
12.6999999999999993
 49
0.0
 74
0
 49
-12.6999999999999993
 74
0
  0
LTYPE
  5
34
100
AcDbSymbolTableRecord
100
AcDbLinetypeTableRecord
  2
DASHED
 70
0
  3
Dashed __ __ __ __ __ __ __ __ __ __ __ __ __ _
 72
65
 73
2
 40
19.0500000000000007
 49
12.6999999999999993
 74
0
 49
-6.3499999999999996
 74
0
  0
LTYPE
  5
35
100
AcDbSymbolTableRecord
100
AcDbLinetypeTableRecord
  2
DASHED2
 70
0
  3
Dashed (.5x) _ _ _ _ _ _ _ _ _ _ _ _ _ _ _ _ _
 72
65
 73
2
 40
9.5250000000000004
 49
6.3499999999999996
 74
0
 49
-3.1749999999999998
 74
0
  0
LTYPE
  5
36
100
AcDbSymbolTableRecord
100
AcDbLinetypeTableRecord
  2
DASHEDX2
 70
0
  3
Dashed (2x) ____  ____  ____  ____  ____  ___
 72
65
 73
2
 40
38.1000000000000014
 49
25.3999999999999986
 74
0
 49
-12.6999999999999993
 74
0
  0
LTYPE
  5
37
100
AcDbSymbolTableRecord
100
AcDbLinetypeTableRecord
  2
DASHDOT
 70
0
  3
Dash dot __ . __ . __ . __ . __ . __ . __ . __
 72
65
 73
4
 40
25.3999999999999986
 49
12.6999999999999993
 74
0
 49
-6.3499999999999996
 74
0
 49
0.0
 74
0
 49
-6.3499999999999996
 74
0
  0
LTYPE
  5
38
100
AcDbSymbolTableRecord
100
AcDbLinetypeTableRecord
  2
DASHDOT2
 70
0
  3
Dash dot (.5x) _._._._._._._._._._._._._._._.
 72
65
 73
4
 40
12.6999999999999993
 49
6.3499999999999996
 74
0
 49
-3.1749999999999998
 74
0
 49
0.0
 74
0
 49
-3.1749999999999998
 74
0
  0
LTYPE
  5
39
100
AcDbSymbolTableRecord
100
AcDbLinetypeTableRecord
  2
DASHDOTX2
 70
0
  3
Dash dot (2x) ____  .  ____  .  ____  .  ___
 72
65
 73
4
 40
50.7999999999999972
 49
25.3999999999999986
 74
0
 49
-12.6999999999999993
 74
0
 49
0.0
 74
0
 49
-12.6999999999999993
 74
0
  0
LTYPE
  5
3A
100
AcDbSymbolTableRecord
100
AcDbLinetypeTableRecord
  2
DIVIDE
 70
0
  3
Divide ____ . . ____ . . ____ . . ____ . . ____
 72
65
 73
6
 40
31.75
 49
12.6999999999999993
 74
0
 49
-6.3499999999999996
 74
0
 49
0.0
 74
0
 49
-6.3499999999999996
 74
0
 49
0.0
 74
0
 49
-6.3499999999999996
 74
0
  0
LTYPE
  5
3B
100
AcDbSymbolTableRecord
100
AcDbLinetypeTableRecord
  2
DIVIDE2
 70
0
  3
Divide (.5x) __..__..__..__..__..__..__..__.._
 72
65
 73
6
 40
15.875
 49
6.3499999999999996
 74
0
 49
-3.1749999999999998
 74
0
 49
0.0
 74
0
 49
-3.1749999999999998
 74
0
 49
0.0
 74
0
 49
-3.1749999999999998
 74
0
  0
LTYPE
  5
3C
100
AcDbSymbolTableRecord
100
AcDbLinetypeTableRecord
  2
DIVIDEX2
 70
0
  3
Divide (2x) ________  .  .  ________  .  .  _
 72
65
 73
6
 40
63.5
 49
25.3999999999999986
 74
0
 49
-12.6999999999999993
 74
0
 49
0.0
 74
0
 49
-12.6999999999999993
 74
0
 49
0.0
 74
0
 49
-12.6999999999999993
 74
0
  0
LTYPE
  5
3D
100
AcDbSymbolTableRecord
100
AcDbLinetypeTableRecord
  2
CENTER
 70
0
  3
Center ____ _ ____ _ ____ _ ____ _ ____ _ ____
 72
65
 73
4
 40
50.7999999999999972
 49
31.75
 74
0
 49
-6.3499999999999996
 74
0
 49
6.3499999999999996
 74
0
 49
-6.3499999999999996
 74
0
  0
LTYPE
  5
3E
100
AcDbSymbolTableRecord
100
AcDbLinetypeTableRecord
  2
CENTER2
 70
0
  3
Center (.5x) ___ _ ___ _ ___ _ ___ _ ___ _ ___
 72
65
 73
4
 40
28.5749999999999993
 49
19.0500000000000007
 74
0
 49
-3.1749999999999998
 74
0
 49
3.1749999999999998
 74
0
 49
-3.1749999999999998
 74
0
  0
LTYPE
  5
3F
100
AcDbSymbolTableRecord
100
AcDbLinetypeTableRecord
  2
CENTERX2
 70
0
  3
Center (2x) ________  __  ________  __  _____
 72
65
 73
4
 40
101.5999999999999943
 49
63.5
 74
0
 49
-12.6999999999999993
 74
0
 49
12.6999999999999993
 74
0
 49
-12.6999999999999993
 74
0
  0
LTYPE
  5
40
100
AcDbSymbolTableRecord
100
AcDbLinetypeTableRecord
  2
BORDER
 70
0
  3
Border __ __ . __ __ . __ __ . __ __ . __ __ .
 72
65
 73
6
 40
44.4500000000000028
 49
12.6999999999999993
 74
0
 49
-6.3499999999999996
 74
0
 49
12.6999999999999993
 74
0
 49
-6.3499999999999996
 74
0
 49
0.0
 74
0
 49
-6.3499999999999996
 74
0
  0
LTYPE
  5
41
100
AcDbSymbolTableRecord
100
AcDbLinetypeTableRecord
  2
BORDER2
 70
0
  3
Border (.5x) __.__.__.__.__.__.__.__.__.__.__.
 72
65
 73
6
 40
22.2250000000000014
 49
6.3499999999999996
 74
0
 49
-3.1749999999999998
 74
0
 49
6.3499999999999996
 74
0
 49
-3.1749999999999998
 74
0
 49
0.0
 74
0
 49
-3.1749999999999998
 74
0
  0
LTYPE
  5
42
100
AcDbSymbolTableRecord
100
AcDbLinetypeTableRecord
  2
BORDERX2
 70
0
  3
Border (2x) ____  ____  .  ____  ____  .  ___
 72
65
 73
6
 40
88.9000000000000057
 49
25.3999999999999986
 74
0
 49
-12.6999999999999993
 74
0
 49
25.3999999999999986
 74
0
 49
-12.6999999999999993
 74
0
 49
0.0
 74
0
 49
-12.6999999999999993
 74
0
  0
ENDTAB
  0
TABLE
  2
LAYER
  5
2
100
AcDbSymbolTable
 70
3
  0
LAYER
  5
10
100
AcDbSymbolTableRecord
100
AcDbLayerTableRecord
  2
0
 70
0
 62
7
420
16777215
  6
CONTINUOUS
390
F
  0
LAYER
  5
43
100
AcDbSymbolTableRecord
100
AcDbLayerTableRecord
  2
BIJ
 70
0
 62
1
420
16711680
  6
CONTINUOUS
370
40
390
F
  0
LAYER
  5
44
100
AcDbSymbolTableRecord
100
AcDbLayerTableRecord
  2
LINKS
 70
0
 62
2
420
16776960
  6
CONTINUOUS
390
F
  0
ENDTAB
  0
TABLE
  2
STYLE
  5
3
100
AcDbSymbolTable
 70
1
  0
STYLE
  5
11
100
AcDbSymbolTableRecord
100
AcDbTextStyleTableRecord
  2
Standard
 70
0
 40
0.0
 41
0.75
 50
0.0
 71
0
 42
2.5
  3
txt
  4

  0
ENDTAB
  0
TABLE
  2
VIEW
  5
6
100
AcDbSymbolTable
 70
0
  0
ENDTAB
  0
TABLE
  2
UCS
  5
7
100
AcDbSymbolTable
 70
0
  0
ENDTAB
  0
TABLE
  2
APPID
  5
9
100
AcDbSymbolTable
 70
1
  0
APPID
  5
12
100
AcDbSymbolTableRecord
100
AcDbRegAppTableRecord
  2
ACAD
 70
0
  0
ENDTAB
  0
TABLE
  2
DIMSTYLE
  5
A
100
AcDbSymbolTable
 70
1
100
AcDbDimStyleTable
 71
0
  0
DIMSTYLE
105
27
100
AcDbSymbolTableRecord
100
AcDbDimStyleTableRecord
  2
Standard
 41
2.5
 42
0.625
 43
3.75
 44
1.25
 70
0
 73
0
 74
0
 77
1
 78
8
140
2.5
141
2.5
143
0.03937007874016
147
0.625
171
3
172
1
271
2
272
2
274
3
278
44
283
0
284
8
340
11
  0
ENDTAB
  0
TABLE
  2
BLOCK_RECORD
  5
1
100
AcDbSymbolTable
 70
1
  0
BLOCK_RECORD
  5
1F
100
AcDbSymbolTableRecord
100
AcDbBlockTableRecord
  2
*Model_Space
340
22
  0
BLOCK_RECORD
  5
1B
100
AcDbSymbolTableRecord
100
AcDbBlockTableRecord
  2
*Paper_Space
340
1E
  0
BLOCK_RECORD
  5
23
100
AcDbSymbolTableRecord
100
AcDbBlockTableRecord
  2
*Paper_Space0
340
26
  0
ENDTAB
  0
ENDSEC
  0
SECTION
  2
BLOCKS
  0
BLOCK
  5
20
100
AcDbEntity
  8
0
100
AcDbBlockBegin
  2
*Model_Space
 70
0
 10
0.0
 20
0.0
 30
0.0
  3
*Model_Space
  1

  0
ENDBLK
  5
21
100
AcDbEntity
  8
0
100
AcDbBlockEnd
  0
BLOCK
  5
1C
100
AcDbEntity
 67
1
  8
0
100
AcDbBlockBegin
  2
*Paper_Space
 70
0
 10
0.0
 20
0.0
 30
0.0
  3
*Paper_Space
  1

  0
ENDBLK
  5
1D
100
AcDbEntity
 67
1
  8
0
100
AcDbBlockEnd
  0
BLOCK
  5
24
100
AcDbEntity
  8
0
100
AcDbBlockBegin
  2
*Paper_Space0
 70
0
 10
0.0
 20
0.0
 30
0.0
  3
*Paper_Space0
  1

  0
ENDBLK
  5
25
100
AcDbEntity
  8
0
100
AcDbBlockEnd
  0
ENDSEC
  0
SECTION
  2
ENTITIES
  0
CIRCLE
  5
45
100
AcDbEntity
100
AcDbCircle
  8
0
 62
256
370
-1
  6
ByLayer
 10
12.8000000217561407
 20
18.4999999769637284
 30
0.0
 40
1.5
  0
LINE
  5
46
100
AcDbEntity
100
AcDbLine
  8
0
 62
256
370
-1
  6
ByLayer
 10
30.0333653201922708
 20
38.9999999769637498
 30
0.0
 11
18.4666347233209009
 21
38.9999999769637498
 31
0.0
  0
CIRCLE
  5
47
100
AcDbEntity
100
AcDbCircle
  8
0
 62
256
370
-1
  6
ByLayer
 10
18.8000000217561407
 20
35.4699999769637486
 30
0.0
 40
1.5
  0
CIRCLE
  5
48
100
AcDbEntity
100
AcDbCircle
  8
0
 62
256
370
-1
  6
ByLayer
 10
30.0000000217561293
 20
35.4699999769637415
 30
0.0
 40
1.5
  0
LINE
  5
49
100
AcDbEntity
100
AcDbLine
  8
0
 62
256
370
-1
  6
ByLayer
 10
47.1819805370958818
 20
26.318019461624381
 30
0.0
 11
32.8779039516805369
 21
37.9869183835185993
 31
0.0
  0
LINE
  5
4A
100
AcDbEntity
100
AcDbLine
  8
0
 62
256
370
-1
  6
ByLayer
 10
15.62209609183253
 20
37.9869183835186135
 30
0.0
 11
1.3180195064167031
 21
26.3180194616242495
 31
0.0
  0
ARC
  5
4B
100
AcDbEntity
  8
0
 62
256
370
-1
  6
ByLayer
100
AcDbCircle
 10
44.0000000217563567
 20
23.1360389462849412
 30
0.0
 40
4.5
100
AcDbArc
 50
359.9999999999984084
 51
44.9999999999994174
  0
ARC
  5
4C
100
AcDbEntity
  8
0
 62
256
370
-1
  6
ByLayer
100
AcDbCircle
 10
4.5000000217561347
 20
23.1360389462847813
 30
0.0
 40
4.5
100
AcDbArc
 50
135.0000000000003126
 51
180.0
  0
ARC
  5
4D
100
AcDbEntity
  8
0
 62
256
370
-1
  6
ByLayer
100
AcDbCircle
 10
30.0333653201922708
 20
34.4999999769637711
 30
0.0
 40
4.5
100
AcDbArc
 50
50.7933164290450776
 51
90.0
  0
ARC
  5
4E
100
AcDbEntity
  8
0
 62
256
370
-1
  6
ByLayer
100
AcDbCircle
 10
18.4666347233209009
 20
34.4999999769637711
 30
0.0
 40
4.5
100
AcDbArc
 50
90.0
 51
129.2066835709549082
  0
CIRCLE
  5
4F
100
AcDbEntity
100
AcDbCircle
  8
0
 62
256
370
-1
  6
ByLayer
 10
17.0000000217561187
 20
18.4999999769637284
 30
0.0
 40
0.8999999999999984
  0
CIRCLE
  5
50
100
AcDbEntity
100
AcDbCircle
  8
0
 62
256
370
-1
  6
ByLayer
 10
45.5000000217558878
 20
18.4999999769637284
 30
0.0
 40
0.8999999999999984
  0
CIRCLE
  5
51
100
AcDbEntity
100
AcDbCircle
  8
0
 62
256
370
-1
  6
ByLayer
 10
45.9096314083392087
 20
36.8473943333095804
 30
0.0
 40
3.0
  0
CIRCLE
  5
52
100
AcDbEntity
100
AcDbCircle
  8
0
 62
256
370
-1
  6
ByLayer
 10
45.9096314083392087
 20
36.8473943333095804
 30
0.0
 40
1.5
  0
ARC
  5
53
100
AcDbEntity
  8
0
 62
7
420
16777215
370
-1
  6
CONTINUOUS
100
AcDbCircle
 10
10.5202399863073204
 20
42.2793590409423601
 30
0.0
 40
2.35395199285594
100
AcDbArc
 50
174.7325725089999935
 51
5.2674274910000252
  0
ARC
  5
54
100
AcDbEntity
  8
0
 62
7
420
16777215
370
-1
  6
CONTINUOUS
100
AcDbCircle
 10
22.5088291674843504
 20
54.2679482221196565
 30
0.0
 40
2.35395199285594
100
AcDbArc
 50
264.7325725089983166
 51
95.2674274910000634
  0
CIRCLE
  5
55
100
AcDbEntity
100
AcDbCircle
  8
0
 62
256
370
-1
  6
ByLayer
 10
10.5202399863078995
 20
83.2679482221193723
 30
0.0
 40
1.5
  0
ARC
  5
56
100
AcDbEntity
  8
0
 62
256
370
-1
  6
ByLayer
100
AcDbCircle
 10
10.5202399863078995
 20
83.2679482221193723
 30
0.0
 40
3.1049999999999982
100
AcDbArc
 50
0.0
 51
180.0
  0
LINE
  5
57
100
AcDbEntity
100
AcDbLine
  8
0
 62
256
370
-1
  6
ByLayer
 10
32.3883741969735013
 20
70.5288061737105636
 30
0.0
 11
32.3883741969735368
 21
82.0955367705819015
 31
0.0
  0
CIRCLE
  5
58
100
AcDbEntity
100
AcDbCircle
  8
0
 62
256
370
-1
  6
ByLayer
 10
28.8583741969735605
 20
81.7621714721466191
 30
0.0
 40
1.5
  0
CIRCLE
  5
59
100
AcDbEntity
100
AcDbCircle
  8
0
 62
256
370
-1
  6
ByLayer
 10
28.8583741969735001
 20
70.5621714721467015
 30
0.0
 40
1.5
  0
LINE
  5
5A
100
AcDbEntity
100
AcDbLine
  8
0
 62
256
370
-1
  6
ByLayer
 10
28.2165359100938495
 20
63.8121714721462396
 30
0.0
 11
31.3752926035283792
 21
67.6842675422222442
 31
0.0
  0
LINE
  5
5B
100
AcDbEntity
100
AcDbLine
  8
0
 62
256
370
-1
  6
ByLayer
 10
31.3752926035284112
 20
84.9400754020702635
 30
0.0
 11
28.2165359100940094
 21
88.8121714721462041
 31
0.0
  0
ARC
  5
5C
100
AcDbEntity
  8
0
 62
256
370
-1
  6
ByLayer
100
AcDbCircle
 10
27.8883741969735297
 20
70.5288061737105636
 30
0.0
 40
4.5
100
AcDbArc
 50
320.7933164290440118
 51
0.0
  0
ARC
  5
5D
100
AcDbEntity
  8
0
 62
256
370
-1
  6
ByLayer
100
AcDbCircle
 10
27.888374196973551
 20
82.0955367705819015
 30
0.0
 40
4.5
100
AcDbArc
 50
0.0
 51
39.2066835709552421
  0
LINE
  5
5E
100
AcDbEntity
100
AcDbLine
  8
0
 62
256
370
-1
  6
ByLayer
 10
25.888374196973519
 20
88.8121714721462041
 30
0.0
 11
25.8883741969735013
 21
63.8121714721462396
 31
0.0
  0
LINE
  5
5F
100
AcDbEntity
100
AcDbLine
  8
0
 62
256
370
-1
  6
ByLayer
 10
25.8883741969735013
 20
63.8121714721462396
 30
0.0
 11
28.2165359100938318
 21
63.8121714721462396
 31
0.0
  0
LINE
  5
60
100
AcDbEntity
100
AcDbLine
  8
0
 62
256
370
-1
  6
ByLayer
 10
25.888374196973519
 20
88.8121714721462041
 30
0.0
 11
28.216535910093981
 21
88.8121714721462041
 31
0.0
  0
ARC
  5
61
100
AcDbEntity
  8
0
 62
7
420
16777215
370
-1
  6
CONTINUOUS
100
AcDbCircle
 10
37.5038343738302729
 20
42.5995084455316899
 30
0.0
 40
2.35395199285594
100
AcDbArc
 50
343.5004867275005154
 51
348.8235611105988028
  0
ARC
  5
62
100
AcDbEntity
  8
0
 62
7
420
16777215
370
-1
  6
CONTINUOUS
100
AcDbCircle
 10
37.5038343738302729
 20
42.5995084455316899
 30
0.0
 40
2.35395199285594
100
AcDbArc
 50
146.1764388894031015
 51
151.4995132724990867
  0
LINE
  5
63
100
AcDbEntity
100
AcDbLine
  8
0
 62
7
420
16777215
370
-1
  6
CONTINUOUS
 10
36.6619997410589065
 20
45.5719883170061166
 30
0.0
 11
35.5482754781235712
 21
43.9098058919248118
 31
0.0
  0
ARC
  5
64
100
AcDbEntity
  8
0
 62
7
420
16777215
370
-1
  6
CONTINUOUS
100
AcDbCircle
 10
35.3582938141212466
 20
46.4455199486339012
 30
0.0
 40
1.569301327571579
100
AcDbArc
 50
326.1764388894031867
 51
47.0369404511995981
  0
ARC
  5
65
100
AcDbEntity
  8
0
 62
7
420
16777215
370
-1
  6
CONTINUOUS
100
AcDbCircle
 10
42.091668830898243
 20
53.6755206137078176
 30
0.0
 40
8.3105391915906939
100
AcDbArc
 50
222.963059548799805
 51
227.0369404511995981
  0
ARC
  5
66
100
AcDbEntity
  8
0
 62
7
420
16777215
370
-1
  6
CONTINUOUS
100
AcDbCircle
 10
34.8616681634353327
 20
46.9421455969076007
 30
0.0
 40
1.569301327571579
100
AcDbArc
 50
42.9630595487998121
 51
123.8235611105997833
  0
LINE
  5
67
100
AcDbEntity
100
AcDbLine
  8
0
 62
7
420
16777215
370
-1
  6
CONTINUOUS
 10
32.325954106069311
 20
47.1321272629365566
 30
0.0
 11
33.9881365338743535
 21
48.2458515257688916
 31
0.0
  0
ARC
  5
68
100
AcDbEntity
  8
0
 62
7
420
16777215
370
-1
  6
CONTINUOUS
100
AcDbCircle
 10
31.015656661728201
 20
49.087686156228159
 30
0.0
 40
2.35395199285594
100
AcDbArc
 50
298.5004867274998901
 51
303.823561110599826
  0
ARC
  5
69
100
AcDbEntity
  8
0
 62
7
420
16777215
370
-1
  6
CONTINUOUS
100
AcDbCircle
 10
31.015656661728201
 20
49.087686156228159
 30
0.0
 40
2.35395199285594
100
AcDbArc
 50
101.1764388893995061
 51
106.4995132724994988
  0
LINE
  5
6A
100
AcDbEntity
100
AcDbLine
  8
0
 62
7
420
16777215
370
-1
  6
CONTINUOUS
 10
32.5222503604280107
 20
51.7848138065983932
 30
0.0
 11
30.5593879155369983
 21
51.3969953189493296
 31
0.0
  0
ARC
  5
6B
100
AcDbEntity
  8
0
 62
7
420
16777215
370
-1
  6
CONTINUOUS
100
AcDbCircle
 10
32.218071196300663
 20
53.3243532484123506
 30
0.0
 40
1.569301327571579
100
AcDbArc
 50
281.1764388893993782
 51
2.0369404512004441
  0
ARC
  5
6C
100
AcDbEntity
  8
0
 62
7
420
16777215
370
-1
  6
CONTINUOUS
100
AcDbCircle
 10
42.091668830898243
 20
53.6755206137078176
 30
0.0
 40
8.3105391915906939
100
AcDbArc
 50
177.9630595487994071
 51
182.0369404512003939
  0
ARC
  5
6D
100
AcDbEntity
  8
0
 62
7
420
16777215
370
-1
  6
CONTINUOUS
100
AcDbCircle
 10
32.2180711980064416
 20
54.0266879773295017
 30
0.0
 40
1.569301327571579
100
AcDbArc
 50
357.9630595487996061
 51
78.8235611106005223
  0
LINE
  5
6E
100
AcDbEntity
100
AcDbLine
  8
0
 62
7
420
16777215
370
-1
  6
CONTINUOUS
 10
30.5593879162746589
 20
55.9540459048956507
 30
0.0
 11
32.5222503593117267
 21
55.5662274192452514
 31
0.0
  0
ARC
  5
6F
100
AcDbEntity
  8
0
 62
7
420
16777215
370
-1
  6
CONTINUOUS
100
AcDbCircle
 10
31.0156566627225914
 20
58.2633550707756527
 30
0.0
 40
2.35395199285594
100
AcDbArc
 50
253.5004867275004869
 51
258.8235611106006218
  0
ARC
  5
70
100
AcDbEntity
  8
0
 62
7
420
16777215
370
-1
  6
CONTINUOUS
100
AcDbCircle
 10
31.0156566627225914
 20
58.2633550707756527
 30
0.0
 40
2.35395199285594
100
AcDbArc
 50
56.1764388894002167
 51
61.4995132725001312
  0
LINE
  5
71
100
AcDbEntity
100
AcDbLine
  8
0
 62
7
420
16777215
370
-1
  6
CONTINUOUS
 10
33.9881365330495413
 20
59.105189700778233
 30
0.0
 11
32.3259541079687907
 21
60.21891396371322
 31
0.0
  0
ARC
  5
72
100
AcDbEntity
  8
0
 62
7
420
16777215
370
-1
  6
CONTINUOUS
100
AcDbCircle
 10
34.8616681646777522
 20
60.4088956277155873
 30
0.0
 40
1.569301327571579
100
AcDbArc
 50
236.1764388894002025
 51
317.0369404512002802
  0
ARC
  5
73
100
AcDbEntity
  8
0
 62
7
420
16777215
370
-1
  6
CONTINUOUS
100
AcDbCircle
 10
42.091668830898243
 20
53.6755206137078176
 30
0.0
 40
8.3105391915906939
100
AcDbArc
 50
132.9630595488004019
 51
137.036940451200195
  0
ARC
  5
74
100
AcDbEntity
  8
0
 62
7
420
16777215
370
-1
  6
CONTINUOUS
100
AcDbCircle
 10
35.3582938129516009
 20
60.9055212784017925
 30
0.0
 40
1.569301327571579
100
AcDbArc
 50
312.9630595488002882
 51
33.823561110596863
  0
LINE
  5
75
100
AcDbEntity
100
AcDbLine
  8
0
 62
7
420
16777215
370
-1
  6
CONTINUOUS
 10
35.5482754789799316
 20
63.4412353357675869
 30
0.0
 11
36.6619997418125294
 21
61.7790529079627007
 31
0.0
  0
ARC
  5
76
100
AcDbEntity
  8
0
 62
7
420
16777215
370
-1
  6
CONTINUOUS
100
AcDbCircle
 10
37.5038343722715695
 20
64.7515327801086329
 30
0.0
 40
2.35395199285594
100
AcDbArc
 50
208.5004867275025902
 51
213.8235611106024123
  0
ARC
  5
77
100
AcDbEntity
  8
0
 62
7
420
16777215
370
-1
  6
CONTINUOUS
100
AcDbCircle
 10
37.5038343738302729
 20
42.5995084455316899
 30
0.0
 40
2.35395199285594
100
AcDbArc
 50
152.2325725089991124
 51
342.7674274909981023
  0
ARC
  5
78
100
AcDbEntity
  8
0
 62
7
420
16777215
370
-1
  6
CONTINUOUS
100
AcDbCircle
 10
31.0156566627225914
 20
58.2633550707756527
 30
0.0
 40
2.35395199285594
100
AcDbArc
 50
62.2325725089977198
 51
252.7674274909985002
  0
ARC
  5
79
100
AcDbEntity
  8
0
 62
7
420
16777215
370
-1
  6
CONTINUOUS
100
AcDbCircle
 10
31.015656661728201
 20
49.087686156228159
 30
0.0
 40
2.35395199285594
100
AcDbArc
 50
107.2325725090014004
 51
297.7674274909987844
  0
ARC
  5
7A
100
AcDbEntity
  8
0
 62
7
420
16777215
370
-1
  6
CONTINUOUS
100
AcDbCircle
 10
37.5038343722715695
 20
64.7515327801086329
 30
0.0
 40
2.35395199285594
100
AcDbArc
 50
90.0
 51
207.7674274910017118
  0
ARC
  5
7B
100
AcDbEntity
  8
0
 62
7
420
16777215
370
-1
  6
CONTINUOUS
100
AcDbCircle
 10
31.015656661728201
 20
49.087686156228159
 30
0.0
 40
2.35395199285594
100
AcDbArc
 50
106.4995132724994988
 51
107.2325725090014004
  0
ARC
  5
7C
100
AcDbEntity
  8
0
 62
7
420
16777215
370
-1
  6
CONTINUOUS
100
AcDbCircle
 10
31.015656661728201
 20
49.087686156228159
 30
0.0
 40
2.35395199285594
100
AcDbArc
 50
297.7674274909987844
 51
298.5004867274998901
  0
ARC
  5
7D
100
AcDbEntity
  8
0
 62
7
420
16777215
370
-1
  6
CONTINUOUS
100
AcDbCircle
 10
37.5038343738302729
 20
42.5995084455316899
 30
0.0
 40
2.35395199285594
100
AcDbArc
 50
151.4995132724990867
 51
152.2325725089991124
  0
ARC
  5
7E
100
AcDbEntity
  8
0
 62
7
420
16777215
370
-1
  6
CONTINUOUS
100
AcDbCircle
 10
37.5038343738302729
 20
42.5995084455316899
 30
0.0
 40
2.35395199285594
100
AcDbArc
 50
342.7674274909981023
 51
343.5004867275005154
  0
ARC
  5
7F
100
AcDbEntity
  8
0
 62
7
420
16777215
370
-1
  6
CONTINUOUS
100
AcDbCircle
 10
37.5038343722715695
 20
64.7515327801086329
 30
0.0
 40
2.35395199285594
100
AcDbArc
 50
207.7674274910017118
 51
208.5004867275025902
  0
ARC
  5
80
100
AcDbEntity
  8
0
 62
7
420
16777215
370
-1
  6
CONTINUOUS
100
AcDbCircle
 10
31.0156566627225914
 20
58.2633550707756527
 30
0.0
 40
2.35395199285594
100
AcDbArc
 50
61.4995132725001312
 51
62.2325725088982793
  0
ARC
  5
81
100
AcDbEntity
  8
0
 62
7
420
16777215
370
-1
  6
CONTINUOUS
100
AcDbCircle
 10
31.0156566627225914
 20
58.2633550707756527
 30
0.0
 40
2.35395199285594
100
AcDbArc
 50
252.7674274909985002
 51
253.5004867275004869
  0
CIRCLE
  5
82
100
AcDbEntity
100
AcDbCircle
  8
0
 62
256
370
-1
  6
ByLayer
 10
42.091668830898243
 20
82.6755206137078034
 30
0.0
 40
1.5
  0
ARC
  5
83
100
AcDbEntity
  8
0
 62
256
370
-1
  6
ByLayer
100
AcDbCircle
 10
42.0916688308982998
 20
82.6755206137078034
 30
0.0
 40
3.1050000000000182
100
AcDbArc
 50
0.0
 51
180.0
  0
CIRCLE
  5
84
100
AcDbEntity
100
AcDbCircle
  8
0
 62
256
370
-1
  6
ByLayer
 10
42.091668830898243
 20
53.6755206137078176
 30
0.0
 40
3.0
  0
LINE
  5
85
100
AcDbEntity
100
AcDbLine
  8
0
 62
256
370
-1
  6
ByLayer
 10
19.9000000217561102
 20
24.9499999769637313
 30
0.0
 11
19.9000000217561102
 21
12.049999976963738
 31
0.0
  0
ARC
  5
86
100
AcDbEntity
  8
0
 62
256
370
-1
  6
ByLayer
100
AcDbCircle
 10
20.7000000217561109
 20
12.0499999769637398
 30
0.0
 40
0.8
100
AcDbArc
 50
180.0
 51
0.0
  0
ARC
  5
87
100
AcDbEntity
  8
0
 62
256
370
-1
  6
ByLayer
100
AcDbCircle
 10
20.7000000217561109
 20
24.9499999769637313
 30
0.0
 40
0.8
100
AcDbArc
 50
0.0
 51
180.0
  0
LINE
  5
88
100
AcDbEntity
100
AcDbLine
  8
0
 62
256
370
-1
  6
ByLayer
 10
21.5000000217561116
 20
12.0499999769637398
 30
0.0
 11
41.0000000217561293
 21
12.0499999769637398
 31
0.0
  0
ARC
  5
89
100
AcDbEntity
  8
0
 62
256
370
-1
  6
ByLayer
100
AcDbCircle
 10
41.8000000217561549
 20
12.0499999769637398
 30
0.0
 40
0.8
100
AcDbArc
 50
180.0
 51
360.0
  0
LINE
  5
8A
100
AcDbEntity
100
AcDbLine
  8
0
 62
256
370
-1
  6
ByLayer
 10
41.0000000217561293
 20
24.9499999769637313
 30
0.0
 11
21.500000021756108
 21
24.9499999769637313
 31
0.0
  0
LINE
  5
8B
100
AcDbEntity
100
AcDbLine
  8
0
 62
256
370
-1
  6
ByLayer
 10
42.6000000217561521
 20
24.9499999769637313
 30
0.0
 11
42.6000000217561521
 21
12.049999976963738
 31
0.0
  0
ARC
  5
8C
100
AcDbEntity
  8
0
 62
256
370
-1
  6
ByLayer
100
AcDbCircle
 10
41.8000000217561265
 20
24.9499999769637313
 30
0.0
 40
0.8
100
AcDbArc
 50
0.0
 51
180.0
  0
LINE
  5
8D
100
AcDbEntity
100
AcDbLine
  8
0
 62
256
370
-1
  6
ByLayer
 10
6.1000000217561343
 20
3.9999999769637351
 30
0.0
 11
8.9000000217561279
 21
3.9999999769637351
 31
0.0
  0
ARC
  5
8E
100
AcDbEntity
  8
0
 62
256
370
-1
  6
ByLayer
100
AcDbCircle
 10
5.3000000217561345
 20
3.9999999769637351
 30
0.0
 40
0.8
100
AcDbArc
 50
0.0
 51
180.0
  0
ARC
  5
8F
100
AcDbEntity
  8
0
 62
256
370
-1
  6
ByLayer
100
AcDbCircle
 10
9.7000000217561286
 20
3.9999999769637351
 30
0.0
 40
0.8
100
AcDbArc
 50
0.0
 51
180.0
  0
ARC
  5
90
100
AcDbEntity
  8
0
 62
256
370
-1
  6
ByLayer
100
AcDbCircle
 10
19.0500000217561301
 20
3.9999999769637351
 30
0.0
 40
0.8
100
AcDbArc
 50
0.0
 51
180.0
  0
LINE
  5
91
100
AcDbEntity
100
AcDbLine
  8
0
 62
256
370
-1
  6
ByLayer
 10
19.8500000217561308
 20
3.9999999769637351
 30
0.0
 11
28.650000021756135
 21
3.9999999769637351
 31
0.0
  0
ARC
  5
92
100
AcDbEntity
  8
0
 62
256
370
-1
  6
ByLayer
100
AcDbCircle
 10
29.4500000217561464
 20
3.9999999769637351
 30
0.0
 40
0.8
100
AcDbArc
 50
0.0
 51
180.0
  0
ARC
  5
93
100
AcDbEntity
  8
0
 62
256
370
-1
  6
ByLayer
100
AcDbCircle
 10
38.8000000217559204
 20
3.9999999769637351
 30
0.0
 40
0.8
100
AcDbArc
 50
0.0
 51
180.0
  0
LINE
  5
94
100
AcDbEntity
100
AcDbLine
  8
0
 62
256
370
-1
  6
ByLayer
 10
42.4000000217559077
 20
3.9999999769637351
 30
0.0
 11
39.6000000217559176
 21
3.9999999769637351
 31
0.0
  0
ARC
  5
95
100
AcDbEntity
  8
0
 62
256
370
-1
  6
ByLayer
100
AcDbCircle
 10
43.2000000217559048
 20
3.9999999769637351
 30
0.0
 40
0.8
100
AcDbArc
 50
0.0
 51
180.0
  0
LINE
  5
96
100
AcDbEntity
100
AcDbLine
  8
0
 62
256
370
-1
  6
ByLayer
 10
4.5000000217561347
 20
-2.7000000230362575
 30
0.0
 11
4.5000000217561347
 21
3.9999999769637351
 31
0.0
  0
LINE
  5
97
100
AcDbEntity
100
AcDbLine
  8
0
 62
256
370
-1
  6
ByLayer
 10
44.000000021755902
 20
-2.7000000230362575
 30
0.0
 11
44.000000021755902
 21
3.9999999769637351
 31
0.0
  0
LINE
  5
98
100
AcDbEntity
100
AcDbLine
  8
0
 62
256
370
-1
  6
ByLayer
 10
0.0000000217563638
 20
23.1360389462847813
 30
0.0
 11
0.0000000217561035
 21
1.7999999769638002
 31
0.0
  0
ARC
  5
99
100
AcDbEntity
  8
0
 62
256
370
-1
  6
ByLayer
100
AcDbCircle
 10
4.5000000217561347
 20
1.7999999769637416
 30
0.0
 40
4.5
100
AcDbArc
 50
180.0
 51
270.0
  0
LINE
  5
9A
100
AcDbEntity
100
AcDbLine
  8
0
 62
256
370
-1
  6
ByLayer
 10
10.5000000217561293
 20
3.9999999769637351
 30
0.0
 11
10.5000000217561293
 21
-2.7000000230362575
 31
0.0
  0
LINE
  5
9B
100
AcDbEntity
100
AcDbLine
  8
0
 62
256
370
-1
  6
ByLayer
 10
18.2500000217561293
 20
3.9999999769637351
 30
0.0
 11
18.2500000217561293
 21
-2.7000000230362566
 31
0.0
  0
LINE
  5
9C
100
AcDbEntity
100
AcDbLine
  8
0
 62
256
370
-1
  6
ByLayer
 10
10.5000000217561293
 20
-2.7000000230362575
 30
0.0
 11
18.2500000217561293
 21
-2.7000000230362566
 31
0.0
  0
LINE
  5
9D
100
AcDbEntity
100
AcDbLine
  8
0
 62
256
370
-1
  6
ByLayer
 10
30.2500000217561507
 20
3.9999999769637351
 30
0.0
 11
30.2500000217561507
 21
-2.7000000230362575
 31
0.0
  0
LINE
  5
9E
100
AcDbEntity
100
AcDbLine
  8
0
 62
256
370
-1
  6
ByLayer
 10
38.0000000217559233
 20
3.9999999769637351
 30
0.0
 11
38.0000000217559233
 21
-2.7000000230362571
 31
0.0
  0
LINE
  5
9F
100
AcDbEntity
100
AcDbLine
  8
0
 62
256
370
-1
  6
ByLayer
 10
30.2500000217561507
 20
-2.7000000230362575
 30
0.0
 11
38.0000000217559233
 21
-2.7000000230362571
 31
0.0
  0
LINE
  5
A0
100
AcDbEntity
100
AcDbLine
  8
0
 62
256
370
-1
  6
ByLayer
 10
48.5000000217558309
 20
1.7999999769636279
 30
0.0
 11
48.5000000217563709
 21
23.1360389462848204
 31
0.0
  0
ARC
  5
A1
100
AcDbEntity
  8
0
 62
256
370
-1
  6
ByLayer
100
AcDbCircle
 10
44.000000021755902
 20
1.7999999769637416
 30
0.0
 40
4.5
100
AcDbArc
 50
270.0
 51
360.0
  0
LINE
  5
A2
100
AcDbEntity
100
AcDbLine
  8
0
 62
256
370
-1
  6
ByLayer
 10
7.4152399863078813
 20
83.2679482221193723
 30
0.0
 11
7.4152399863078813
 21
64.292519596996172
 31
0.0
  0
LINE
  5
A3
100
AcDbEntity
100
AcDbLine
  8
0
 62
256
370
-1
  6
ByLayer
 10
13.6252399863079106
 20
83.2679482221193723
 30
0.0
 11
13.6252399863079106
 21
62.686279607163172
 31
0.0
  0
LINE
  5
A4
100
AcDbEntity
100
AcDbLine
  8
0
 62
7
420
16777215
370
-1
  6
CONTINUOUS
 10
15.9290832133928006
 20
46.1505005327545632
 30
0.0
 11
17.0385357141327596
 21
44.4854638047728912
 31
0.0
  0
ARC
  5
A5
100
AcDbEntity
  8
0
 62
7
420
16777215
370
-1
  6
CONTINUOUS
100
AcDbCircle
 10
14.6231385601888597
 20
45.2803193909458415
 30
0.0
 40
1.569301327571579
100
AcDbArc
 50
33.6764388894007922
 51
114.5369404511996976
  0
ARC
  5
A6
100
AcDbEntity
  8
0
 62
7
420
16777215
370
-1
  6
CONTINUOUS
100
AcDbCircle
 10
10.5202399863073204
 20
54.2679482221196565
 30
0.0
 40
8.3105391915906939
100
AcDbArc
 50
290.4630595487997198
 51
294.5369404511995981
  0
ARC
  5
A7
100
AcDbEntity
  8
0
 62
7
420
16777215
370
-1
  6
CONTINUOUS
100
AcDbCircle
 10
13.9742658785179898
 20
45.0115475277905972
 30
0.0
 40
1.569301327571579
100
AcDbArc
 50
110.4630595487997056
 51
191.3235611105999112
  0
LINE
  5
A8
100
AcDbEntity
100
AcDbLine
  8
0
 62
7
420
16777215
370
-1
  6
CONTINUOUS
 10
12.8283699488760004
 20
42.7415560457627066
 30
0.0
 11
12.4355125731359504
 21
44.70341619124369
 31
0.0
  0
ARC
  5
A9
100
AcDbEntity
  8
0
 62
7
420
16777215
370
-1
  6
CONTINUOUS
100
AcDbCircle
 10
10.5202399863073204
 20
42.2793590409423601
 30
0.0
 40
2.35395199285594
100
AcDbArc
 50
6.000486727500129
 51
11.3235611105999201
  0
ARC
  5
AA
100
AcDbEntity
  8
0
 62
7
420
16777215
370
-1
  6
CONTINUOUS
100
AcDbCircle
 10
10.5202399863073204
 20
42.2793590409423601
 30
0.0
 40
2.35395199285594
100
AcDbArc
 50
168.6764388894000888
 51
173.999513272499911
  0
LINE
  5
AB
100
AcDbEntity
100
AcDbLine
  8
0
 62
7
420
16777215
370
-1
  6
CONTINUOUS
 10
17.0385357141327596
 20
64.050432642463619
 30
0.0
 11
15.9290832133928006
 21
62.385395914482153
 31
0.0
  0
ARC
  5
AC
100
AcDbEntity
  8
0
 62
7
420
16777215
370
-1
  6
CONTINUOUS
100
AcDbCircle
 10
18.997452693938321
 20
62.7451609297505897
 30
0.0
 40
2.35395199285594
100
AcDbArc
 50
141.000486727499208
 51
146.3235611105988028
  0
ARC
  5
AD
100
AcDbEntity
  8
0
 62
7
420
16777215
370
-1
  6
CONTINUOUS
100
AcDbCircle
 10
18.997452693938321
 20
62.7451609297505897
 30
0.0
 40
2.35395199285594
100
AcDbArc
 50
303.6764388893998898
 51
308.999513272499712
  0
LINE
  5
AE
100
AcDbEntity
100
AcDbLine
  8
0
 62
7
420
16777215
370
-1
  6
CONTINUOUS
 10
18.6376876786695718
 20
59.6767914492052824
 30
0.0
 11
20.3027244066512402
 21
60.786243949945117
 31
0.0
  0
ARC
  5
AF
100
AcDbEntity
  8
0
 62
7
420
16777215
370
-1
  6
CONTINUOUS
100
AcDbCircle
 10
19.5078688204780413
 20
58.3708467960016435
 30
0.0
 40
1.569301327571579
100
AcDbArc
 50
123.6764388893998046
 51
204.5369404511986886
  0
ARC
  5
B0
100
AcDbEntity
  8
0
 62
7
420
16777215
370
-1
  6
CONTINUOUS
100
AcDbCircle
 10
10.5202399863073204
 20
54.2679482221196565
 30
0.0
 40
8.3105391915906939
100
AcDbArc
 50
20.4630595487990803
 51
24.5369404511989195
  0
ARC
  5
B1
100
AcDbEntity
  8
0
 62
7
420
16777215
370
-1
  6
CONTINUOUS
100
AcDbCircle
 10
19.7766406836332713
 20
57.7219741143305214
 30
0.0
 40
1.569301327571579
100
AcDbArc
 50
200.4630595487990092
 51
281.323561110599428
  0
LINE
  5
B2
100
AcDbEntity
100
AcDbLine
  8
0
 62
7
420
16777215
370
-1
  6
CONTINUOUS
 10
22.2927257687594
 20
56.6119595927682582
 30
0.0
 11
20.0847720201806013
 21
56.1832208089484126
 31
0.0
  0
LINE
  5
B3
100
AcDbEntity
100
AcDbLine
  8
0
 62
7
420
16777215
370
-1
  6
CONTINUOUS
 10
20.0847720201806013
 20
52.3526756382881473
 30
0.0
 11
22.2927257687593396
 21
51.9239368514710407
 31
0.0
  0
ARC
  5
B4
100
AcDbEntity
  8
0
 62
7
420
16777215
370
-1
  6
CONTINUOUS
100
AcDbCircle
 10
19.7766406836332713
 20
50.8139223329060172
 30
0.0
 40
1.569301327571579
100
AcDbArc
 50
78.676438889400643
 51
159.5369404512009055
  0
ARC
  5
B5
100
AcDbEntity
  8
0
 62
7
420
16777215
370
-1
  6
CONTINUOUS
100
AcDbCircle
 10
10.5202399863073204
 20
54.2679482221196565
 30
0.0
 40
8.3105391915906939
100
AcDbArc
 50
335.4630595488009135
 51
339.5369404512007918
  0
ARC
  5
B6
100
AcDbEntity
  8
0
 62
7
420
16777215
370
-1
  6
CONTINUOUS
100
AcDbCircle
 10
19.5078688204780413
 20
50.1650496512351225
 30
0.0
 40
1.569301327571579
100
AcDbArc
 50
155.4630595487979008
 51
236.3235611106002239
  0
LINE
  5
B7
100
AcDbEntity
100
AcDbLine
  8
0
 62
7
420
16777215
370
-1
  6
CONTINUOUS
 10
20.3027244066512402
 20
47.7496524972913932
 30
0.0
 11
18.6376876786695718
 21
48.8591049980313414
 31
0.0
  0
ARC
  5
B8
100
AcDbEntity
  8
0
 62
7
420
16777215
370
-1
  6
CONTINUOUS
100
AcDbCircle
 10
18.997452693938321
 20
45.7907355174859774
 30
0.0
 40
2.35395199285594
100
AcDbArc
 50
51.0004867275003591
 51
56.3235611106002168
  0
ARC
  5
B9
100
AcDbEntity
  8
0
 62
7
420
16777215
370
-1
  6
CONTINUOUS
100
AcDbCircle
 10
18.997452693938321
 20
45.7907355174859774
 30
0.0
 40
2.35395199285594
100
AcDbArc
 50
213.6764388894004867
 51
218.999513272500792
  0
ARC
  5
BA
100
AcDbEntity
  8
0
 62
7
420
16777215
370
-1
  6
CONTINUOUS
100
AcDbCircle
 10
18.997452693938321
 20
62.7451609297505897
 30
0.0
 40
2.35395199285594
100
AcDbArc
 50
309.732572508999624
 51
140.2674274909981875
  0
ARC
  5
BB
100
AcDbEntity
  8
0
 62
7
420
16777215
370
-1
  6
CONTINUOUS
100
AcDbCircle
 10
18.997452693938321
 20
45.7907355174859774
 30
0.0
 40
2.35395199285594
100
AcDbArc
 50
219.7325725090016988
 51
50.2674274910003405
  0
ARC
  5
BC
100
AcDbEntity
  8
0
 62
7
420
16777215
370
-1
  6
CONTINUOUS
100
AcDbCircle
 10
18.997452693938321
 20
62.7451609297505897
 30
0.0
 40
2.35395199285594
100
AcDbArc
 50
308.999513272499712
 51
309.732572508999624
  0
ARC
  5
BD
100
AcDbEntity
  8
0
 62
7
420
16777215
370
-1
  6
CONTINUOUS
100
AcDbCircle
 10
18.997452693938321
 20
62.7451609297505897
 30
0.0
 40
2.35395199285594
100
AcDbArc
 50
140.2674274909981875
 51
141.000486727499208
  0
ARC
  5
BE
100
AcDbEntity
  8
0
 62
7
420
16777215
370
-1
  6
CONTINUOUS
100
AcDbCircle
 10
10.5202399863073204
 20
42.2793590409423601
 30
0.0
 40
2.35395199285594
100
AcDbArc
 50
173.999513272499911
 51
174.7325725089999935
  0
ARC
  5
BF
100
AcDbEntity
  8
0
 62
7
420
16777215
370
-1
  6
CONTINUOUS
100
AcDbCircle
 10
10.5202399863073204
 20
42.2793590409423601
 30
0.0
 40
2.35395199285594
100
AcDbArc
 50
5.2674274910000252
 51
6.000486727500129
  0
ARC
  5
C0
100
AcDbEntity
  8
0
 62
7
420
16777215
370
-1
  6
CONTINUOUS
100
AcDbCircle
 10
18.997452693938321
 20
45.7907355174859774
 30
0.0
 40
2.35395199285594
100
AcDbArc
 50
218.999513272500792
 51
219.7325725090016988
  0
ARC
  5
C1
100
AcDbEntity
  8
0
 62
7
420
16777215
370
-1
  6
CONTINUOUS
100
AcDbCircle
 10
18.997452693938321
 20
45.7907355174859774
 30
0.0
 40
2.35395199285594
100
AcDbArc
 50
50.2674274910003405
 51
51.0004867275003591
  0
CIRCLE
  5
C2
100
AcDbEntity
100
AcDbCircle
  8
0
 62
256
370
-1
  6
ByLayer
 10
10.5202399863078995
 20
54.267948222119351
 30
0.0
 40
1.5
  0
ARC
  5
C3
100
AcDbEntity
  8
0
 62
256
370
-1
  6
ByLayer
100
AcDbCircle
 10
6.4152399863078813
 20
64.292519596996172
 30
0.0
 40
1.0
100
AcDbArc
 50
292.268796286593556
 51
0.0
  0
ARC
  5
C4
100
AcDbEntity
  8
0
 62
7
420
16777215
370
-1
  6
CONTINUOUS
100
AcDbCircle
 10
14.6231385601888597
 20
63.2555770562906616
 30
0.0
 40
1.569301327571579
100
AcDbArc
 50
270.2114927810108043
 51
326.323561110599087
  0
ARC
  5
C5
100
AcDbEntity
  8
0
 62
256
370
-1
  6
ByLayer
100
AcDbCircle
 10
14.6252399863079106
 20
62.686279607163172
 30
0.0
 40
1.0
100
AcDbArc
 50
180.0
 51
270.2114927810108043
  0
ARC
  5
C6
100
AcDbEntity
  8
0
 62
256
370
-1
  6
ByLayer
100
AcDbCircle
 10
10.5202399863078995
 20
54.267948222119351
 30
0.0
 40
9.8324999999999996
100
AcDbArc
 50
112.2687962865935134
 51
253.3796493716816371
  0
LINE
  5
C7
100
AcDbEntity
100
AcDbLine
  8
0
 62
7
420
16777215
370
-1
  6
CONTINUOUS
 10
8.4023677497717291
 20
43.6916694132193584
 30
0.0
 11
8.2121100267355587
 21
42.7415560457627066
 31
0.0
  0
ARC
  5
C8
100
AcDbEntity
  8
0
 62
256
370
-1
  6
ByLayer
100
AcDbCircle
 10
7.4218337509244794
 20
43.8880187883256312
 30
0.0
 40
1.0
100
AcDbArc
 50
348.6764388831515475
 51
73.3796493716816514
  0
LINE
  5
C9
100
AcDbEntity
100
AcDbLine
  8
0
 62
7
420
16777215
370
-1
  6
CONTINUOUS
 10
39.8131435369413111
 20
42.1432397002307724
 30
0.0
 11
40.0009609658793721
 21
43.0938384753045085
 31
0.0
  0
ARC
  5
CA
100
AcDbEntity
  8
0
 62
256
370
-1
  6
ByLayer
100
AcDbCircle
 10
40.9819959111541934
 20
42.9000075279570154
 30
0.0
 40
1.0
100
AcDbArc
 50
84.1203506251891469
 51
168.8235611168468324
  0
ARC
  5
CB
100
AcDbEntity
  8
0
 62
256
370
-1
  6
ByLayer
100
AcDbCircle
 10
42.091668830898243
 20
53.6755206137078176
 30
0.0
 40
9.8324999999999996
100
AcDbArc
 50
264.1203506251889621
 51
67.731203713406785
  0
LINE
  5
CC
100
AcDbEntity
100
AcDbLine
  8
0
 62
256
370
-1
  6
ByLayer
 10
45.1966688308982825
 20
82.6755206137078034
 30
0.0
 11
45.1966688308982114
 21
63.7000919885846741
 31
0.0
  0
ARC
  5
CD
100
AcDbEntity
  8
0
 62
256
370
-1
  6
ByLayer
100
AcDbCircle
 10
46.1966688308982114
 20
63.700091988584667
 30
0.0
 40
1.0
100
AcDbArc
 50
180.0
 51
247.7312037134068703
  0
LINE
  5
CE
100
AcDbEntity
100
AcDbLine
  8
0
 62
256
370
-1
  6
ByLayer
 10
38.9866688308982816
 20
82.6755206137078034
 30
0.0
 11
38.9866688308982319
 21
68.1054847729645445
 31
0.0
  0
LINE
  5
CF
100
AcDbEntity
100
AcDbLine
  8
0
 62
256
370
-1
  6
ByLayer
 10
37.5038343722715695
 20
67.1054847729645445
 30
0.0
 11
37.9866688308982319
 21
67.1054847729645445
 31
0.0
  0
ARC
  5
D0
100
AcDbEntity
  8
0
 62
256
370
-1
  6
ByLayer
100
AcDbCircle
 10
37.9866688308982319
 20
68.1054847729645445
 30
0.0
 40
1.0
100
AcDbArc
 50
270.0
 51
0.0
  0
CIRCLE
  5
D1
100
AcDbEntity
100
AcDbCircle
  8
0
 62
256
370
-1
  6
ByLayer
 10
40.341668830898243
 20
60.6755206137078176
 30
0.0
 40
0.76
  0
CIRCLE
  5
D2
100
AcDbEntity
100
AcDbCircle
  8
0
 62
256
370
-1
  6
ByLayer
 10
43.841668830898243
 20
60.6755206137078176
 30
0.0
 40
0.76
  0
CIRCLE
  5
D3
100
AcDbEntity
100
AcDbCircle
  8
0
 62
256
370
-1
  6
ByLayer
 10
43.841668830898243
 20
47.1755206137078034
 30
0.0
 40
0.76
  0
CIRCLE
  5
D4
100
AcDbEntity
100
AcDbCircle
  8
0
 62
256
370
-1
  6
ByLayer
 10
40.341668830898243
 20
47.1755206137078034
 30
0.0
 40
0.76
  0
ENDSEC
  0
SECTION
  2
OBJECTS
  0
DICTIONARY
  5
C
100
AcDbDictionary
280
0
281
1
  3
ACAD_GROUP
350
D
  3
ACAD_LAYOUT
350
1A
  3
ACAD_MLINESTYLE
350
17
  3
ACAD_PLOTSETTINGS
350
19
  3
ACAD_PLOTSTYLENAME
350
E
  3
AcDbVariableDictionary
350
D5
  0
DICTIONARY
  5
D
100
AcDbDictionary
280
0
281
1
  0
ACDBDICTIONARYWDFLT
  5
E
100
AcDbDictionary
281
1
  3
Normal
350
F
100
AcDbDictionaryWithDefault
340
F
  0
ACDBPLACEHOLDER
  5
F
  0
DICTIONARY
  5
17
100
AcDbDictionary
280
0
281
1
  3
Standard
350
18
  0
MLINESTYLE
  5
18
100
AcDbMlineStyle
  2
STANDARD
 70
0
  3

 62
256
 51
90.0
 52
90.0
 71
2
 49
0.5
 62
256
  6
BYLAYER
 49
-0.5
 62
256
  6
BYLAYER
  0
DICTIONARY
  5
19
100
AcDbDictionary
280
0
281
1
  0
DICTIONARY
  5
1A
100
AcDbDictionary
281
1
  3
Layout1
350
1E
  3
Layout2
350
26
  3
Model
350
22
  0
LAYOUT
  5
1E
100
AcDbPlotSettings
  1

  2
C:\Program Files\AutoCAD 2002\plotters\DWF ePlot (optimized for plotting).pc3
  4

  6

 40
0.0
 41
0.0
 42
0.0
 43
0.0
 44
0.0
 45
0.0
 46
0.0
 47
0.0
 48
0.0
 49
0.0
140
0.0
141
0.0
142
1.0
143
1.0
 70
688
 72
0
 73
0
 74
5
  7

 75
16
147
1.0
148
0.0
149
0.0
100
AcDbLayout
  1
Layout1
 70
1
 71
1
 10
0.0
 20
0.0
 11
420.0
 21
297.0
 12
0.0
 22
0.0
 32
0.0
 14
100000000000000000000.0
 24
100000000000000000000.0
 34
100000000000000000000.0
 15
-100000000000000000000.0
 25
-100000000000000000000.0
 35
-100000000000000000000.0
146
0.0
 13
0.0
 23
0.0
 33
0.0
 16
1.0
 26
0.0
 36
0.0
 17
0.0
 27
1.0
 37
0.0
 76
0
330
1B
  0
LAYOUT
  5
22
100
AcDbPlotSettings
  1

  2
C:\Program Files\AutoCAD 2002\plotters\DWF ePlot (optimized for plotting).pc3
  4

  6

 40
0.0
 41
0.0
 42
0.0
 43
0.0
 44
0.0
 45
0.0
 46
0.0
 47
0.0
 48
0.0
 49
0.0
140
0.0
141
0.0
142
1.0
143
1.0
 70
1712
 72
0
 73
0
 74
0
  7

 75
0
147
1.0
148
0.0
149
0.0
100
AcDbLayout
  1
Model
 70
1
 71
0
 10
0.0
 20
0.0
 11
12.0
 21
9.0
 12
0.0
 22
0.0
 32
0.0
 14
0.0
 24
0.0
 34
0.0
 15
0.0
 25
0.0
 35
0.0
146
0.0
 13
0.0
 23
0.0
 33
0.0
 16
1.0
 26
0.0
 36
0.0
 17
0.0
 27
1.0
 37
0.0
 76
0
330
1F
  0
LAYOUT
  5
26
100
AcDbPlotSettings
  1

  2
C:\Program Files\AutoCAD 2002\plotters\DWF ePlot (optimized for plotting).pc3
  4

  6

 40
0.0
 41
0.0
 42
0.0
 43
0.0
 44
0.0
 45
0.0
 46
0.0
 47
0.0
 48
0.0
 49
0.0
140
0.0
141
0.0
142
1.0
143
1.0
 70
688
 72
0
 73
0
 74
5
  7

 75
16
147
1.0
148
0.0
149
0.0
100
AcDbLayout
  1
Layout2
 70
1
 71
2
 10
0.0
 20
0.0
 11
12.0
 21
9.0
 12
0.0
 22
0.0
 32
0.0
 14
0.0
 24
0.0
 34
0.0
 15
0.0
 25
0.0
 35
0.0
146
0.0
 13
0.0
 23
0.0
 33
0.0
 16
1.0
 26
0.0
 36
0.0
 17
0.0
 27
1.0
 37
0.0
 76
0
330
23
  0
DICTIONARY
  5
D5
100
AcDbDictionary
281
1
  3
DIMASSOC
350
D7
  3
HIDETEXT
350
D6
  0
DICTIONARYVAR
  5
D6
100
DictionaryVariables
280
0
  1
2
  0
DICTIONARYVAR
  5
D7
100
DictionaryVariables
280
0
  1
1
  0
ENDSEC
  0
EOF
