0
SECTION
2
HEADER
9
$ANGDIR
70
0
9
$CHAMFERA
40
10
9
$CHAMFERB
40
10
9
$CLAYER
8
Layer_1
9
$EXTMAX
10
136.82477107526981
20
456.10193144346022
9
$EXTMIN
10
2.8243875229587445
20
371.65185165513878
9
$LIMMAX
10
635
20
458.10000000000002
9
$LIMMIN
10
0
20
0
9
$LTSCALE
40
10
9
$PLINEGEN
70
0
9
$TEXTSIZE
40
20
9
$GRIDUNIT
10
1
20
1
9
$SNAPUNIT
10
0.5
20
0.5
0
ENDSEC
0
SECTION
2
TABLES
0
TABLE
2
STYLE
70
1
0
STYLE
2
STANDARD
70
0
40
0
41
1
50
0
71
0
42
0.20000000000000001
3
txt
4

0
ENDTAB
0
TABLE
2
LTYPE
70
14
0
LTYPE
2
CONTINUOUS
70
0
3
Solid line
72
65
73
0
40
0
0
LTYPE
2
DOT
70
0
3
............................................
72
65
73
2
40
0.25
49
0
49
-0.25
0
LTYPE
2
HIDDEN
70
0
3
_ _ _ _ _ _ _ _ _ _ _ _ _ _ _ _ _ _ _ _ _ _ 
72
65
73
2
40
0.375
49
0.25
49
-0.125
0
LTYPE
2
TSLONGDASH
70
0
3
__ __ __ __ __ __ __ __ __ __ __ __ __ __ _ 
72
65
73
2
40
1.28
49
1
49
-0.28000000000000003
0
LTYPE
2
TSDASHDOT
70
0
3
______ . ______ . ______ . ______ . ______ .
72
65
73
4
40
1.28
49
1
49
-0.14000000000000001
49
0
49
-0.14000000000000001
0
LTYPE
2
TSCENTER
70
0
3
______ _ ______ _ ______ _ ______ _ ______ _
72
65
73
4
40
2
49
1.5
49
-0.17999999999999999
49
0.14000000000000001
49
-0.17999999999999999
0
LTYPE
2
TSPHANTOM
70
0
3
_____ _ _ _____ _ _ _____ _ _ _____ _ _ ____
72
65
73
6
40
2.5
49
1.6299999999999999
49
-0.19
49
0.14999999999999999
49
-0.19
49
0.14999999999999999
49
-0.19
0
LTYPE
2
DASHED
70
0
3
__ __ __ __ __ __ __ __ __ __ __ __ __ __ __
72
65
73
2
40
0.75
49
0.5
49
-0.25
0
LTYPE
2
CENTER
70
0
3
____ _ ____ _ ____ _ ____ _ ____ _ ____ _ __
72
65
73
4
40
2
49
1.25
49
-0.25
49
0.25
49
-0.25
0
LTYPE
2
PHANTOM
70
0
3
_____ _ _ _____ _ _ _____ _ _ _____ _ _ ____
72
65
73
6
40
2.5
49
1.25
49
-0.25
49
0.25
49
-0.25
49
0.25
49
-0.25
0
LTYPE
2
DASHDOT
70
0
3
__ . __ . __ . __ . __ . __ . __ . __ . __ .
72
65
73
4
40
1
49
0.5
49
-0.25
49
0
49
-0.25
0
LTYPE
2
BORDER
70
0
3
__ __ . __ __ . __ __ . __ __ . __ __ . __ _
72
65
73
6
40
1.75
49
0.5
49
-0.25
49
0.5
49
-0.25
49
0
49
-0.25
0
LTYPE
2
DIVIDE
70
0
3
__ . . __ . . __ . . __ . . __ . . __ . . __
72
65
73
6
40
1.25
49
0.5
49
-0.25
49
0
49
-0.25
49
0
49
-0.25
0
ENDTAB
0
TABLE
2
LAYER
70
4
0
LAYER
2
Layer_1
70
0
62
7
6
CONTINUOUS
0
LAYER
2
Layer_2
70
0
62
7
6
CONTINUOUS
0
LAYER
2
Layer_3
70
0
62
7
6
CONTINUOUS
0
LAYER
2
0
70
0
62
7
6
CONTINUOUS
0
ENDTAB
0
ENDSEC
0
SECTION
2
ENTITIES
0
CIRCLE
8
0
6
CONTINUOUS
62
1
10
66.392863991499965
20
375.25897069230206
40
1.5
0
CIRCLE
8
0
6
CONTINUOUS
62
1
10
72.392863991499965
20
392.22897069230203
40
1.5
0
LINE
8
0
6
CONTINUOUS
62
1
10
77.892863991499979
20
395.22897069230203
11
77.892863991499979
21
420.22897069230203
0
LINE
8
0
6
CONTINUOUS
62
1
10
77.892863991499979
20
420.22897069230203
11
71.392863991499965
21
420.22897069230203
0
LINE
8
0
6
CONTINUOUS
62
1
10
71.392863991499965
20
420.22897069230203
11
71.392863991499965
21
395.22897069230203
0
LINE
8
0
6
CONTINUOUS
62
1
10
71.392863991499965
20
395.22897069230203
11
69.892863991499965
21
395.22897069230203
0
LINE
8
0
6
CONTINUOUS
62
1
10
63.524350718277745
20
376.13739633021811
11
69.892863991499965
21
395.22897069230203
0
LINE
8
0
6
CONTINUOUS
62
1
10
69.199209682925087
20
374.19858215020071
11
77.892863991499979
21
395.22897069230203
0
ARC
8
0
6
CONTINUOUS
62
1
10
66.392863991499965
20
375.25897069230206
40
2.9999999999999796
50
162.97382538503055
51
339.30073476602661
0
LINE
8
0
6
CONTINUOUS
62
1
10
104.63475993500094
20
404.05318057258165
11
133.63475993500094
21
404.05318057258165
0
LINE
8
0
6
CONTINUOUS
62
1
10
133.63475993500094
20
398.05318057258171
11
104.63475993500094
21
398.05318057258171
0
ARC
8
0
6
CONTINUOUS
62
1
10
104.63475993500094
20
401.05318057258171
40
3
50
90
51
270
0
ARC
8
0
6
CONTINUOUS
62
1
10
133.63475993500094
20
401.05318057258171
40
3
50
270
51
90
0
CIRCLE
8
0
6
CONTINUOUS
62
1
10
104.63475993500094
20
401.05318057258171
40
1.5
0
CIRCLE
8
0
6
CONTINUOUS
62
1
10
133.63475993500094
20
401.05318057258171
40
1.5
0
LINE
8
0
6
CONTINUOUS
62
1
10
115.25591502622038
20
422.13645532915126
11
115.25591502833052
21
445.63645532915126
0
LINE
8
0
6
CONTINUOUS
62
1
10
123.25591502904888
20
453.63645532843287
11
115.25591502833052
21
445.63645532915126
0
LINE
8
0
6
CONTINUOUS
62
1
10
123.25591502904888
20
453.63645532843287
11
127.25591502904888
21
453.63645532807374
0
LINE
8
0
6
CONTINUOUS
62
1
10
135.25591502833052
20
445.63645532735535
11
127.25591502904888
21
453.63645532807374
0
LINE
8
0
6
CONTINUOUS
62
1
10
135.25591502833052
20
445.63645532735535
11
135.25591502622038
21
422.13645532735546
0
LINE
8
0
6
CONTINUOUS
62
1
10
127.25591502550213
20
414.13645532807379
11
123.25591502550208
21
414.13645532843287
0
LINE
8
0
6
CONTINUOUS
62
1
10
135.25591502622038
20
422.13645532735546
11
127.25591502550213
21
414.13645532807379
0
LINE
8
0
6
CONTINUOUS
62
1
10
115.25591502622038
20
422.13645532915126
11
123.25591502550208
21
414.13645532843287
0
LINE
8
0
6
CONTINUOUS
62
1
10
127.25591502604084
20
420.13645532807385
11
123.25591502604084
21
420.13645532843299
0
LINE
8
0
6
CONTINUOUS
62
1
10
123.25591502604084
20
420.13645532843299
11
123.25591502673672
21
427.88645532843299
0
LINE
8
0
6
CONTINUOUS
62
1
10
123.25591502673672
20
427.88645532843299
11
127.25591502673672
21
427.88645532807385
0
LINE
8
0
6
CONTINUOUS
62
1
10
127.25591502673672
20
427.88645532807385
11
127.25591502604084
21
420.13645532807385
0
LINE
8
0
6
CONTINUOUS
62
1
10
127.25591502781424
20
439.88645532807385
11
123.25591502781424
21
439.88645532843299
0
LINE
8
0
6
CONTINUOUS
62
1
10
123.25591502781424
20
439.88645532843299
11
123.25591502851012
21
447.63645532843287
0
LINE
8
0
6
CONTINUOUS
62
1
10
123.25591502851012
20
447.63645532843287
11
127.25591502851012
21
447.63645532807374
0
LINE
8
0
6
CONTINUOUS
62
1
10
127.25591502851012
20
447.63645532807374
11
127.25591502781424
21
439.88645532807385
0
CIRCLE
8
0
6
CONTINUOUS
62
1
10
125.25591502727548
20
433.88645532825348
40
3
0
CIRCLE
8
0
6
CONTINUOUS
62
1
10
118.25591502711836
20
432.13645532888199
40
0.75
0
CIRCLE
8
0
6
CONTINUOUS
62
1
10
118.25591502743259
20
435.63645532888199
40
0.75
0
CIRCLE
8
0
6
CONTINUOUS
62
1
10
131.75591502711836
20
432.13645532766981
40
0.5
0
CIRCLE
8
0
6
CONTINUOUS
62
1
10
131.75591502743259
20
435.63645532766981
40
0.5
0
LINE
8
0
6
CONTINUOUS
62
1
10
21.295086195758781
20
415.87948375409542
11
22.404538696498744
21
414.21444702611376
0
ARC
8
0
6
CONTINUOUS
62
1
10
19.989141542554844
20
415.00930261228666
40
1.569301327571627
50
33.676438889401723
51
114.53694045119886
0
ARC
8
0
6
CONTINUOUS
62
1
10
15.886242968673312
20
423.99693144346054
40
8.3105391915907418
50
290.46305953850975
51
294.53694044090986
0
ARC
8
0
6
CONTINUOUS
62
1
10
19.340268860883977
20
414.74053074913144
40
1.5693013275715924
50
110.46305954879983
51
191.32356110030889
0
LINE
8
0
6
CONTINUOUS
62
1
10
18.194372931241983
20
412.47053926710356
11
17.801515555501933
21
414.43239941258457
0
ARC
8
0
6
CONTINUOUS
62
1
10
13.23723950528823
20
411.99120450970884
40
2.3539519928559112
50
6.0004867274993545
51
11.323561110599977
0
ARC
8
0
6
CONTINUOUS
62
1
10
13.23723950528823
20
411.99120450970884
40
2.3539519928559463
50
168.67643888940015
51
173.99951327250082
0
LINE
8
0
6
CONTINUOUS
62
1
10
13.955637739842555
20
414.35583089941395
11
13.578113009101539
21
412.47053926710356
0
ARC
8
0
6
CONTINUOUS
62
1
10
15.886242968673312
20
423.99693144346054
40
8.3105391915906939
50
65.463059548800373
51
68.060832431568585
0
ARC
8
0
6
CONTINUOUS
62
1
10
19.989141542554844
20
432.98456027763154
40
1.5693013275716035
50
245.46305953851189
51
326.32356110030935
0
LINE
8
0
6
CONTINUOUS
62
1
10
22.404538696498744
20
433.7794158638045
11
21.295086195758781
21
432.11437913582301
0
ARC
8
0
6
CONTINUOUS
62
1
10
24.363455676304309
20
432.47414415109142
40
2.353951992855964
50
141.00048672749926
51
146.32356111059784
0
ARC
8
0
6
CONTINUOUS
62
1
10
24.363455676304309
20
432.47414415109142
40
2.3539519928559032
50
303.67643887911015
51
308.99951326221077
0
LINE
8
0
6
CONTINUOUS
62
1
10
24.003690661035559
20
429.40577467054612
11
25.668727389017217
21
430.51522717128597
0
ARC
8
0
6
CONTINUOUS
62
1
10
24.873871802844032
20
428.09983001734247
40
1.5693013275716123
50
123.67643888939828
51
204.53694044090722
0
ARC
8
0
6
CONTINUOUS
62
1
10
15.886242968673312
20
423.99693144346054
40
8.3105391915906814
50
20.463059548798984
51
24.536940451198934
0
ARC
8
0
6
CONTINUOUS
62
1
10
25.142643665999255
20
427.45095733567138
40
1.5693013275715604
50
200.4630595385091
51
281.32356110030975
0
LINE
8
0
6
CONTINUOUS
62
1
10
27.658728751125377
20
426.3409428141091
11
25.450775002546575
21
425.91220403028927
0
LINE
8
0
6
CONTINUOUS
62
1
10
25.450775002546575
20
422.08165885962899
11
27.65872875112532
21
421.65292007281187
0
ARC
8
0
6
CONTINUOUS
62
1
10
25.142643665999255
20
420.54290555424689
40
1.5693013275715344
50
78.676438889401297
51
159.5369404512017
0
ARC
8
0
6
CONTINUOUS
62
1
10
15.886242968673312
20
423.99693144346054
40
8.3105391915906903
50
335.46305953851152
51
339.53694044091105
0
ARC
8
0
6
CONTINUOUS
62
1
10
24.873871802844032
20
419.89403287257596
40
1.5693013275716021
50
155.4630595487979
51
236.32356110031105
0
LINE
8
0
6
CONTINUOUS
62
1
10
25.668727389017217
20
417.47863571863223
11
24.003690661035559
21
418.5880882193722
0
ARC
8
0
6
CONTINUOUS
62
1
10
24.363455676304309
20
415.51971873882684
40
2.3539519928559232
50
51.000486727500437
51
56.323561110599961
0
ARC
8
0
6
CONTINUOUS
62
1
10
24.363455676304309
20
415.51971873882684
40
2.3539519928559254
50
213.67643887911112
51
218.99951326221085
0
ARC
8
0
6
CONTINUOUS
62
1
10
15.886242968673312
20
412.00834226228324
40
2.3539519928559653
50
174.73257250900105
51
5.2674274807098413
0
ARC
8
0
6
CONTINUOUS
62
1
10
27.874832149850331
20
423.99693144346054
40
2.353951992855956
50
264.73257249870926
51
95.267427480710239
0
ARC
8
0
6
CONTINUOUS
62
1
10
24.363455676304309
20
432.47414415109142
40
2.3539519928558916
50
309.73257249871011
51
140.2674274807087
0
ARC
8
0
6
CONTINUOUS
62
1
10
24.363455676304309
20
415.51971873882684
40
2.3539519928559098
50
219.73257249871187
51
50.26742748071058
0
ARC
8
0
6
CONTINUOUS
62
1
10
24.363455676304309
20
432.47414415109142
40
2.3539519928559383
50
308.99951326221077
51
309.73257249871011
0
ARC
8
0
6
CONTINUOUS
62
1
10
24.363455676304309
20
432.47414415109142
40
2.353951992855968
50
140.26742749099836
51
141.00048672749926
0
ARC
8
0
6
CONTINUOUS
62
1
10
13.23723950528823
20
411.99120450970884
40
2.3539519928559511
50
173.99951327250082
51
174.73257250900105
0
ARC
8
0
6
CONTINUOUS
62
1
10
13.23723950528823
20
411.99120450970884
40
2.3539519928559485
50
5.2674274910000136
51
6.0004867274993545
0
ARC
8
0
6
CONTINUOUS
62
1
10
24.363455676304309
20
415.51971873882684
40
2.3539519928559431
50
218.99951326221085
51
219.73257249871187
0
ARC
8
0
6
CONTINUOUS
62
1
10
24.363455676304309
20
415.51971873882684
40
2.3539519928559498
50
50.267427491000142
51
51.000486727500437
0
LINE
8
0
6
CONTINUOUS
62
1
10
18.991242968673898
20
452.9969314434602
11
18.991242968673898
21
431.70563020881389
0
LINE
8
0
6
CONTINUOUS
62
1
10
12.781242968673862
20
452.9969314434602
11
12.781242968673862
21
433.32629536872332
0
ARC
8
0
6
CONTINUOUS
62
1
10
15.88624296867388
20
423.9969314434602
40
9.8325000000000315
50
108.40848017058651
51
258.67643888415978
0
CIRCLE
8
0
6
CONTINUOUS
62
1
10
15.88624296867388
20
423.9969314434602
40
1.5
0
CIRCLE
8
0
6
CONTINUOUS
62
1
10
15.88624296867388
20
452.9969314434602
40
1.5
0
ARC
8
0
6
CONTINUOUS
62
1
10
15.88624296867388
20
452.9969314434602
40
3.1050000000000182
50
0
51
180
0
LINE
8
0
6
CONTINUOUS
62
1
10
114.0339237843816
20
432.61075943334197
11
114.03392378438166
21
444.17749003021333
0
CIRCLE
8
0
6
CONTINUOUS
62
1
10
110.50392378438168
20
443.84412473177804
40
1.5
0
CIRCLE
8
0
6
CONTINUOUS
62
1
10
110.50392378438163
20
432.64412473177811
40
1.5
0
LINE
8
0
6
CONTINUOUS
62
1
10
109.86208549750198
20
425.89412473177765
11
113.02084219093648
21
429.76622080185365
0
LINE
8
0
6
CONTINUOUS
62
1
10
113.02084219093653
20
447.02202866170165
11
109.86208549750215
21
450.89412473177759
0
ARC
8
0
6
CONTINUOUS
62
1
10
109.53392378438166
20
432.61075943334197
40
4.500000000000024
50
320.79331641875456
51
0
0
ARC
8
0
6
CONTINUOUS
62
1
10
109.53392378438166
20
444.17749003021333
40
4.5
50
0
51
39.206683570954901
0
LINE
8
0
6
CONTINUOUS
62
1
10
107.53392378438166
20
450.89412473177759
11
107.5339237843816
21
425.89412473177765
0
LINE
8
0
6
CONTINUOUS
62
1
10
107.5339237843816
20
425.89412473177765
11
109.86208549750198
21
425.89412473177765
0
LINE
8
0
6
CONTINUOUS
62
1
10
107.53392378438166
20
450.89412473177759
11
109.86208549750209
21
450.89412473177759
0
LINE
8
0
6
CONTINUOUS
62
1
10
45.44290016467005
20
452.91364932684229
11
45.442900164669993
21
433.24301325210541
0
LINE
8
0
6
CONTINUOUS
62
1
10
39.23290016467007
20
452.91364932684229
11
39.232900164670014
21
437.343613486099
0
LINE
8
0
6
CONTINUOUS
62
1
10
40.0593748707131
20
412.38136841336524
11
40.432057372396059
21
414.26762322791757
0
ARC
8
0
6
CONTINUOUS
62
1
10
37.750065707602062
20
412.83763715866615
40
2.3539519928559547
50
343.50048671721061
51
348.82356110030952
0
ARC
8
0
6
CONTINUOUS
62
1
10
37.750065707602062
20
412.83763715866615
40
2.353951992855976
50
146.17643888940302
51
151.49951327249883
0
LINE
8
0
6
CONTINUOUS
62
1
10
36.908231074830724
20
415.81011703014059
11
35.79450681189536
21
414.14793460505928
0
ARC
8
0
6
CONTINUOUS
62
1
10
35.604525147893014
20
416.68364866176836
40
1.569301327571589
50
326.1764388791147
51
47.036940440908779
0
ARC
8
0
6
CONTINUOUS
62
1
10
42.337900164670032
20
423.91364932684229
40
8.3105391915906814
50
222.96305953851024
51
227.03694044091026
0
ARC
8
0
6
CONTINUOUS
62
1
10
35.107899497207143
20
417.18027431004208
40
1.5693013275715799
50
42.963059548800089
51
123.82356111060039
0
LINE
8
0
6
CONTINUOUS
62
1
10
32.572185439841121
20
417.37025597607106
11
34.234367867646142
21
418.48398023890337
0
ARC
8
0
6
CONTINUOUS
62
1
10
31.261887995499986
20
419.32581486936266
40
2.3539519928559836
50
298.50048671720907
51
303.82356110030997
0
ARC
8
0
6
CONTINUOUS
62
1
10
31.261887995499986
20
419.32581486936266
40
2.3539519928559178
50
101.17643888939928
51
106.499513272499
0
LINE
8
0
6
CONTINUOUS
62
1
10
32.768481694199806
20
422.02294251973285
11
30.805619249308787
21
421.63512403208381
0
ARC
8
0
6
CONTINUOUS
62
1
10
32.464302530072473
20
423.56248196154684
40
1.5693013275715757
50
281.17643887910879
51
2.0369404409104845
0
ARC
8
0
6
CONTINUOUS
62
1
10
42.337900164670032
20
423.91364932684229
40
8.310539191590685
50
177.96305954879944
51
182.03694044091063
0
ARC
8
0
6
CONTINUOUS
62
1
10
32.46430253177823
20
424.26481669046399
40
1.5693013275716099
50
357.96305953850964
51
78.823561100311679
0
LINE
8
0
6
CONTINUOUS
62
1
10
30.805619250046444
20
426.19217461803015
11
32.768481693083515
21
425.80435613237972
0
ARC
8
0
6
CONTINUOUS
62
1
10
31.261887996494348
20
428.50148378391015
40
2.3539519928559476
50
253.50048671721103
51
258.82356110031111
0
ARC
8
0
6
CONTINUOUS
62
1
10
29.951277290378282
20
427.94195287878642
40
2.3539519928559351
50
56.176438889399762
51
61.499513272498859
0
LINE
8
0
6
CONTINUOUS
62
1
10
34.234367866821344
20
429.3433184139127
11
32.572185441740601
21
430.45704267684772
0
ARC
8
0
6
CONTINUOUS
62
1
10
35.107899498449569
20
430.64702434085007
40
1.5693013275715986
50
236.17643887911061
51
317.0369404409106
0
ARC
8
0
6
CONTINUOUS
62
1
10
42.337900164670032
20
423.91364932684229
40
8.3105391915906797
50
132.96305954880063
51
137.03694045120008
0
ARC
8
0
6
CONTINUOUS
62
1
10
35.604525146723404
20
431.14364999153628
40
1.5693013275715761
50
312.96305953851106
51
33.823561100307984
0
LINE
8
0
6
CONTINUOUS
62
1
10
35.794506812751706
20
433.67936404890207
11
36.908231075584297
21
432.01718162109717
0
ARC
8
0
6
CONTINUOUS
62
1
10
37.750065706043358
20
434.98966149324309
40
2.3539519928559467
50
208.50048671721277
51
213.82356110031205
0
ARC
8
0
6
CONTINUOUS
62
1
10
37.750065707602062
20
412.83763715866615
40
2.3539519928559165
50
152.23257250899965
51
342.76742748070882
0
ARC
8
0
6
CONTINUOUS
62
1
10
31.261887996494348
20
428.50148378391015
40
2.3539519928559152
50
62.232572508996228
51
252.76742748070919
0
ARC
8
0
6
CONTINUOUS
62
1
10
31.261887995499986
20
419.32581486936266
40
2.3539519928559427
50
107.23257250900141
51
297.76742748070973
0
ARC
8
0
6
CONTINUOUS
62
1
10
37.750065706043358
20
434.98966149324309
40
2.3539519928559685
50
90
51
207.76742748071121
0
ARC
8
0
6
CONTINUOUS
62
1
10
31.261887995499986
20
419.32581486936266
40
2.3539519928559347
50
106.499513272499
51
107.23257250900141
0
ARC
8
0
6
CONTINUOUS
62
1
10
31.261887995499986
20
419.32581486936266
40
2.3539519928559631
50
297.76742748070973
51
298.50048671720907
0
ARC
8
0
6
CONTINUOUS
62
1
10
37.750065707602062
20
412.83763715866615
40
2.3539519928559609
50
151.49951327249883
51
152.23257250899965
0
ARC
8
0
6
CONTINUOUS
62
1
10
37.750065707602062
20
412.83763715866615
40
2.3539519928559449
50
342.76742748070882
51
343.50048671721061
0
ARC
8
0
6
CONTINUOUS
62
1
10
37.750065706043358
20
434.98966149324309
40
2.3539519928559436
50
207.76742748071121
51
208.50048671721277
0
ARC
8
0
6
CONTINUOUS
62
1
10
29.951277290378282
20
427.94195287878642
40
2.3539519928559507
50
61.499513272498859
51
62.232572508897896
0
ARC
8
0
6
CONTINUOUS
62
1
10
31.261887996494348
20
428.50148378391015
40
2.353951992855952
50
252.76742748070919
51
253.50048671721103
0
ARC
8
0
6
CONTINUOUS
62
1
10
42.337900164670032
20
423.91364932684229
40
9.8325000000000067
50
258.82356109182871
51
71.59151981912413
0
LINE
8
0
6
CONTINUOUS
62
1
10
37.750065706043358
20
437.343613486099
11
39.232900164670014
21
437.343613486099
0
CIRCLE
8
0
6
CONTINUOUS
62
1
10
42.337900164670032
20
452.91364932684229
40
1.5
0
ARC
8
0
6
CONTINUOUS
62
1
10
42.337900164670089
20
452.91364932684229
40
3.1050000000000182
50
0
51
180
0
CIRCLE
8
0
6
CONTINUOUS
62
1
10
88.388386378593026
20
375.33952681424768
40
1.5
0
CIRCLE
8
0
6
CONTINUOUS
62
1
10
94.388386378592969
20
392.30952681424765
40
1.5
0
LINE
8
0
6
CONTINUOUS
62
1
10
99.888386378592969
20
395.30952681424765
11
99.888386378592969
21
420.30952681424765
0
LINE
8
0
6
CONTINUOUS
62
1
10
99.888386378592969
20
420.30952681424765
11
93.388386378592969
21
420.30952681424765
0
LINE
8
0
6
CONTINUOUS
62
1
10
93.388386378592969
20
420.30952681424765
11
93.388386378592969
21
395.30952681424765
0
LINE
8
0
6
CONTINUOUS
62
1
10
93.388386378592969
20
395.30952681424765
11
91.888386378592969
21
395.30952681424765
0
LINE
8
0
6
CONTINUOUS
62
1
10
85.519873105370863
20
376.21795245216373
11
91.888386378592969
21
395.30952681424765
0
LINE
8
0
6
CONTINUOUS
62
1
10
91.194732070018091
20
374.27913827214633
11
99.888386378592969
21
395.30952681424765
0
ARC
8
0
6
CONTINUOUS
62
1
10
88.388386378593026
20
375.33952681424768
40
2.999999999999996
50
162.9738253850295
51
339.30073476602763
0
CIRCLE
8
0
6
CONTINUOUS
62
1
10
77.588160168336486
20
375.33952681424768
40
1.5
0
CIRCLE
8
0
6
CONTINUOUS
62
1
10
83.588160168336429
20
392.30952681424765
40
1.5
0
LINE
8
0
6
CONTINUOUS
62
1
10
89.088160168336429
20
395.30952681424765
11
89.088160168336429
21
420.30952681424765
0
LINE
8
0
6
CONTINUOUS
62
1
10
89.088160168336429
20
420.30952681424765
11
82.588160168336429
21
420.30952681424765
0
LINE
8
0
6
CONTINUOUS
62
1
10
82.588160168336429
20
420.30952681424765
11
82.588160168336429
21
395.30952681424765
0
LINE
8
0
6
CONTINUOUS
62
1
10
82.588160168336429
20
395.30952681424765
11
81.088160168336486
21
395.30952681424765
0
LINE
8
0
6
CONTINUOUS
62
1
10
74.719646895114309
20
376.21795245216373
11
81.088160168336486
21
395.30952681424765
0
LINE
8
0
6
CONTINUOUS
62
1
10
80.394505859761551
20
374.27913827214633
11
89.088160168336429
21
395.30952681424765
0
ARC
8
0
6
CONTINUOUS
62
1
10
77.588160168336486
20
375.33952681424768
40
3.0000000000000098
50
162.97382538502958
51
339.30073476602763
0
CIRCLE
8
0
6
CONTINUOUS
62
1
10
56.352683023294688
20
375.44898200281483
40
1.5
0
CIRCLE
8
0
6
CONTINUOUS
62
1
10
62.352683023294688
20
392.4189820028148
40
1.5
0
LINE
8
0
6
CONTINUOUS
62
1
10
67.852683023294631
20
395.4189820028148
11
67.852683023294631
21
420.4189820028148
0
LINE
8
0
6
CONTINUOUS
62
1
10
67.852683023294631
20
420.4189820028148
11
61.352683023294688
21
420.4189820028148
0
LINE
8
0
6
CONTINUOUS
62
1
10
61.352683023294688
20
420.4189820028148
11
61.352683023294688
21
395.4189820028148
0
LINE
8
0
6
CONTINUOUS
62
1
10
61.352683023294688
20
395.4189820028148
11
59.852683023294688
21
395.4189820028148
0
LINE
8
0
6
CONTINUOUS
62
1
10
53.484169750072468
20
376.32740764073088
11
59.852683023294688
21
395.4189820028148
0
LINE
8
0
6
CONTINUOUS
62
1
10
59.159028714719696
20
374.38859346071348
11
67.852683023294631
21
395.4189820028148
0
ARC
8
0
6
CONTINUOUS
62
1
10
56.352683023294688
20
375.44898200281483
40
2.9999999999999796
50
162.97382538503055
51
339.30073476602661
0
LINE
8
0
6
CONTINUOUS
62
1
10
104.82477107526981
20
395.13120190613347
11
133.82477107526981
21
395.13120190613347
0
LINE
8
0
6
CONTINUOUS
62
1
10
133.82477107526981
20
389.13120190613347
11
104.82477107526981
21
389.13120190613347
0
ARC
8
0
6
CONTINUOUS
62
1
10
104.82477107526981
20
392.13120190613347
40
3
50
90
51
270
0
ARC
8
0
6
CONTINUOUS
62
1
10
133.82477107526981
20
392.13120190613347
40
3
50
270
51
90
0
CIRCLE
8
0
6
CONTINUOUS
62
1
10
104.82477107526981
20
392.13120190613347
40
1.5
0
CIRCLE
8
0
6
CONTINUOUS
62
1
10
133.82477107526981
20
392.13120190613347
40
1.5
0
LINE
8
0
6
CONTINUOUS
62
1
10
104.35027955910932
20
378.99849035667808
11
133.35027955910934
21
378.99849035667808
0
LINE
8
0
6
CONTINUOUS
62
1
10
133.35027955910934
20
372.99849035667808
11
104.35027955910932
21
372.99849035667808
0
ARC
8
0
6
CONTINUOUS
62
1
10
104.35027955910932
20
375.99849035667808
40
3
50
90
51
270
0
ARC
8
0
6
CONTINUOUS
62
1
10
133.35027955910934
20
375.99849035667808
40
3
50
270
51
90
0
CIRCLE
8
0
6
CONTINUOUS
62
1
10
104.35027955910932
20
375.99849035667808
40
1.5
0
CIRCLE
8
0
6
CONTINUOUS
62
1
10
133.35027955910934
20
375.99849035667808
40
1.5
0
LINE
8
0
6
CONTINUOUS
62
1
10
104.50563506430395
20
387.25210636664372
11
133.50563506430393
21
387.25210636664372
0
LINE
8
0
6
CONTINUOUS
62
1
10
133.50563506430393
20
381.25210636664372
11
104.50563506430395
21
381.25210636664372
0
ARC
8
0
6
CONTINUOUS
62
1
10
104.50563506430395
20
384.25210636664372
40
3
50
90
51
270
0
ARC
8
0
6
CONTINUOUS
62
1
10
133.50563506430393
20
384.25210636664372
40
3
50
270
51
90
0
CIRCLE
8
0
6
CONTINUOUS
62
1
10
104.50563506430395
20
384.25210636664372
40
1.5
0
CIRCLE
8
0
6
CONTINUOUS
62
1
10
133.50563506430393
20
384.25210636664372
40
1.5
0
CIRCLE
8
0
6
CONTINUOUS
62
1
10
42.337900164670032
20
423.91364932684229
40
3
0
CIRCLE
8
0
6
CONTINUOUS
62
1
10
40.587900164670032
20
430.91364932684229
40
0.75
0
CIRCLE
8
0
6
CONTINUOUS
62
1
10
44.087900164670032
20
430.91364932684229
40
0.75
0
CIRCLE
8
0
6
CONTINUOUS
62
1
10
40.587900164670032
20
417.41364932684229
40
0.5
0
CIRCLE
8
0
6
CONTINUOUS
62
1
10
44.087900164670032
20
417.41364932684229
40
0.5
0
CIRCLE
8
0
6
CONTINUOUS
62
1
10
108.64871210937127
20
412.23444217248164
40
3
0
CIRCLE
8
0
6
CONTINUOUS
62
1
10
108.64871210937127
20
412.23444217248164
40
1.5
0
CIRCLE
8
0
6
CONTINUOUS
62
1
10
67.897455178064547
20
424.10957189419639
40
0.89999999999997726
0
LINE
8
Layer_1
6
CONTINUOUS
62
1
10
79.39745515498339
20
423.10957187192395
11
56.287428111914437
21
423.13290251872792
0
LINE
8
Layer_1
6
CONTINUOUS
62
1
10
79.388034475916641
20
453.55337936084698
11
79.39745515498339
21
423.10957187192395
0
LINE
8
Layer_1
6
CONTINUOUS
62
1
10
56.287428111914437
20
423.13290251872792
11
56.287428113104681
21
449.6431989346749
0
LINE
8
Layer_1
6
CONTINUOUS
62
1
10
56.287428113104681
20
449.6431989346749
11
59.464119116171673
21
453.53727940413955
0
LINE
8
Layer_1
6
CONTINUOUS
62
1
10
59.464119116171673
20
453.53727940413955
11
79.388034475916641
21
453.55337936084698
0
CIRCLE
8
0
6
CONTINUOUS
62
1
10
59.232603445751806
20
438.42881311979716
40
1.5
0
CIRCLE
8
0
6
CONTINUOUS
62
1
10
76.502515069937374
20
438.35816725714074
40
1.5
0
LINE
8
0
6
CONTINUOUS
62
1
10
61.492360335589353
20
449.69947746987265
11
61.492360334570208
21
426.9994774698726
0
LINE
8
0
6
CONTINUOUS
62
1
10
74.392360334570242
20
426.99947746929348
11
74.392360335589387
21
449.69947746929353
0
LINE
8
0
6
CONTINUOUS
62
1
10
61.492360335589353
20
449.69947746987265
11
74.392360335589387
21
449.69947746929353
0
LINE
8
0
6
CONTINUOUS
62
1
10
61.492360334570208
20
426.9994774698726
11
74.392360334570242
21
426.99947746929348
0
CIRCLE
8
0
6
CONTINUOUS
62
1
10
67.94236033571957
20
452.59947746958284
40
0.89999999999997726
0
CIRCLE
8
0
6
CONTINUOUS
62
1
10
15.624387522958756
20
390.15185165513878
40
1.5
0
LINE
8
0
6
CONTINUOUS
62
1
10
51.324387522958517
20
376.15185165513867
11
51.324387522958972
21
394.78789062445986
0
LINE
8
0
6
CONTINUOUS
62
1
10
32.857752821394882
20
410.65185165513878
11
21.291022224523516
21
410.65185165513878
0
LINE
8
0
6
CONTINUOUS
62
1
10
2.8243875229589719
20
394.78789062445981
11
2.8243875229587445
21
376.15185165513878
0
CIRCLE
8
0
6
CONTINUOUS
62
1
10
21.624387522958756
20
407.12185165513881
40
1.5
0
CIRCLE
8
0
6
CONTINUOUS
62
1
10
32.824387522958745
20
407.12185165513881
40
1.5
0
LINE
8
0
6
CONTINUOUS
62
1
10
50.006368038298518
20
397.96987113979941
11
35.702291452883145
21
409.63877006169366
0
LINE
8
0
6
CONTINUOUS
62
1
10
18.44648359303514
20
409.63877006169366
11
4.1424070076193118
21
397.9698711397993
0
ARC
8
0
6
CONTINUOUS
62
1
10
46.824387522958972
20
394.78789062445998
40
4.5
50
0
51
44.999999989710453
0
ARC
8
0
6
CONTINUOUS
62
1
10
7.3243875229587445
20
394.78789062445981
40
4.4999999999999964
50
135.00000000000034
51
180
0
ARC
8
0
6
CONTINUOUS
62
1
10
46.824387522958517
20
376.15185165513878
40
4.5
50
270
51
0
0
ARC
8
0
6
CONTINUOUS
62
1
10
7.3243875229587445
20
376.15185165513878
40
4.5
50
180
51
270
0
LINE
8
0
6
CONTINUOUS
62
1
10
7.3243875229587445
20
371.65185165513878
11
7.3243875229587445
21
375.65185165513878
0
LINE
8
0
6
CONTINUOUS
62
1
10
7.3243875229587445
20
375.65185165513878
11
13.324387522958745
21
375.65185165513878
0
LINE
8
0
6
CONTINUOUS
62
1
10
13.324387522958745
20
375.65185165513878
11
13.324387522958745
21
371.65185165513878
0
LINE
8
0
6
CONTINUOUS
62
1
10
46.824387522958517
20
371.65185165513878
11
46.824387522958517
21
375.65185165513878
0
LINE
8
0
6
CONTINUOUS
62
1
10
46.824387522958517
20
375.65185165513878
11
40.824387522958517
21
375.65185165513878
0
LINE
8
0
6
CONTINUOUS
62
1
10
40.824387522958517
20
375.65185165513878
11
40.824387522958517
21
371.65185165513878
0
LINE
8
0
6
CONTINUOUS
62
1
10
21.074387522958745
20
375.65185165513878
11
33.074387522958745
21
375.65185165513878
0
LINE
8
0
6
CONTINUOUS
62
1
10
33.074387522958745
20
375.65185165513878
11
33.074387522958745
21
371.65185165513878
0
LINE
8
0
6
CONTINUOUS
62
1
10
21.074387522958745
20
375.65185165513878
11
21.074387522958745
21
371.65185165513878
0
ARC
8
0
6
CONTINUOUS
62
1
10
32.857752821394882
20
406.15185165513878
40
4.4999999999999991
50
50.793316429045454
51
90
0
ARC
8
0
6
CONTINUOUS
62
1
10
21.291022224523516
20
406.15185165513878
40
4.5
50
90
51
129.20668357095479
0
LINE
8
0
6
CONTINUOUS
62
1
10
13.324387522958745
20
371.65185165513878
11
21.074387522958745
21
371.65185165513878
0
LINE
8
0
6
CONTINUOUS
62
1
10
33.074387522958745
20
371.65185165513878
11
40.824387522958517
21
371.65185165513878
0
ARC
8
Layer_1
6
CONTINUOUS
62
1
10
38.972115562499596
20
390.13534155020994
40
6.4522957822005651
50
206.20080554250205
51
153.76472267998372
0
CIRCLE
8
0
6
CONTINUOUS
62
1
10
34.133385468626585
20
398.79153312975529
40
1.5
0
CIRCLE
8
0
6
CONTINUOUS
62
1
10
34.062739606745509
20
381.52162150556654
40
1.5
0
ARC
8
Layer_1
6
CONTINUOUS
62
1
10
33.18250792431644
20
390.13708319744916
40
2.8505494070754778
50
89.960075199030655
51
270.00545302345529
0
CIRCLE
8
0
6
CONTINUOUS
62
1
10
92.808259829063672
20
424.10957189419645
40
0.89999999999997726
0
LINE
8
Layer_1
6
CONTINUOUS
62
1
10
104.30825980598252
20
423.109571871924
11
81.198232762913563
21
423.13290251872797
0
LINE
8
Layer_1
6
CONTINUOUS
62
1
10
104.29883912691577
20
453.55337936084703
11
104.30825980598252
21
423.109571871924
0
LINE
8
Layer_1
6
CONTINUOUS
62
1
10
81.198232762913563
20
423.13290251872797
11
81.198232764103807
21
449.64319893467496
0
LINE
8
Layer_1
6
CONTINUOUS
62
1
10
81.198232764103807
20
449.64319893467496
11
84.374923767170799
21
453.53727940413961
0
LINE
8
Layer_1
6
CONTINUOUS
62
1
10
84.374923767170799
20
453.53727940413961
11
104.29883912691577
21
453.55337936084703
0
CIRCLE
8
0
6
CONTINUOUS
62
1
10
84.143408096750932
20
438.42881311979721
40
1.5
0
CIRCLE
8
0
6
CONTINUOUS
62
1
10
101.4133197209365
20
438.35816725714079
40
1.5
0
LINE
8
0
6
CONTINUOUS
62
1
10
86.403164986588479
20
449.6994774698727
11
86.403164985569333
21
426.99947746987266
0
LINE
8
0
6
CONTINUOUS
62
1
10
99.303164985569367
20
426.99947746929354
11
99.303164986588513
21
449.69947746929358
0
LINE
8
0
6
CONTINUOUS
62
1
10
86.403164986588479
20
449.6994774698727
11
99.303164986588513
21
449.69947746929358
0
LINE
8
0
6
CONTINUOUS
62
1
10
86.403164985569333
20
426.99947746987266
11
99.303164985569367
21
426.99947746929354
0
CIRCLE
8
0
6
CONTINUOUS
62
1
10
92.853164986718696
20
452.59947746958289
40
0.89999999999997726
0
ENDSEC
0
EOF
