solid CATIA STL
  facet normal  0.000000e+000  0.000000e+000  1.000000e+000
    outer loop
      vertex  4.560305e+001  2.226797e+001  4.000000e+000
      vertex  4.368460e+001  1.559667e+001  4.000000e+000
      vertex  4.810305e+001  2.159810e+001  4.000000e+000
    endloop
  endfacet
  facet normal  0.000000e+000  0.000000e+000  1.000000e+000
    outer loop
      vertex  2.849043e+001  8.496863e+000  4.000000e+000
      vertex  4.152149e+001  8.939276e+000  4.000000e+000
      vertex  3.977149e+001  1.021072e+001  4.000000e+000
    endloop
  endfacet
  facet normal  0.000000e+000  0.000000e+000  1.000000e+000
    outer loop
      vertex -2.739695e+001  2.226797e+001  4.000000e+000
      vertex -2.739695e+001  2.273244e+000  4.000000e+000
      vertex -1.910453e+000  1.167840e+001  4.000000e+000
    endloop
  endfacet
  facet normal  0.000000e+000  -0.000000e+000  1.000000e+000
    outer loop
      vertex -2.739695e+001  2.226797e+001  4.000000e+000
      vertex -1.910453e+000  1.167840e+001  4.000000e+000
      vertex  4.160045e+000  1.371278e+001  4.000000e+000
    endloop
  endfacet
  facet normal  0.000000e+000  -0.000000e+000  1.000000e+000
    outer loop
      vertex -2.739695e+001  2.226797e+001  4.000000e+000
      vertex  4.160045e+000  1.371278e+001  4.000000e+000
      vertex  1.052398e+001  1.441271e+001  4.000000e+000
    endloop
  endfacet
  facet normal  0.000000e+000  -0.000000e+000  1.000000e+000
    outer loop
      vertex -2.739695e+001  2.226797e+001  4.000000e+000
      vertex  1.052398e+001  1.441271e+001  4.000000e+000
      vertex  4.152149e+001  1.559667e+001  4.000000e+000
    endloop
  endfacet
  facet normal  0.000000e+000  -0.000000e+000  1.000000e+000
    outer loop
      vertex -2.739695e+001  2.226797e+001  4.000000e+000
      vertex  4.152149e+001  1.559667e+001  4.000000e+000
      vertex  4.368460e+001  1.559667e+001  4.000000e+000
    endloop
  endfacet
  facet normal  0.000000e+000  -0.000000e+000  1.000000e+000
    outer loop
      vertex -2.739695e+001  2.226797e+001  4.000000e+000
      vertex  4.368460e+001  1.559667e+001  4.000000e+000
      vertex  4.560305e+001  2.226797e+001  4.000000e+000
    endloop
  endfacet
  facet normal  0.000000e+000  0.000000e+000  1.000000e+000
    outer loop
      vertex  5.060305e+001  1.726797e+001  4.000000e+000
      vertex  4.993317e+001  1.976797e+001  4.000000e+000
      vertex  4.810305e+001  2.159810e+001  4.000000e+000
    endloop
  endfacet
  facet normal  0.000000e+000  0.000000e+000  1.000000e+000
    outer loop
      vertex  5.060305e+001  1.726797e+001  4.000000e+000
      vertex  4.810305e+001  2.159810e+001  4.000000e+000
      vertex  4.368460e+001  1.559667e+001  4.000000e+000
    endloop
  endfacet
  facet normal  -0.000000e+000  0.000000e+000  9.999999e-001
    outer loop
      vertex  5.060305e+001  1.726797e+001  4.000000e+000
      vertex  4.368460e+001  1.559667e+001  4.000000e+000
      vertex  4.543460e+001  1.432522e+001  4.000000e+000
    endloop
  endfacet
  facet normal  -0.000000e+000  0.000000e+000  1.000000e+000
    outer loop
      vertex  5.060305e+001  1.726797e+001  4.000000e+000
      vertex  4.543460e+001  1.432522e+001  4.000000e+000
      vertex  5.060305e+001  7.465650e+000  4.000000e+000
    endloop
  endfacet
  facet normal  0.000000e+000  -0.000000e+000  1.000000e+000
    outer loop
      vertex  4.368460e+001  8.939276e+000  4.000000e+000
      vertex  4.561622e+001  2.465667e+000  4.000000e+000
      vertex  4.811065e+001  3.139922e+000  4.000000e+000
    endloop
  endfacet
  facet normal  0.000000e+000  -0.000000e+000  1.000000e+000
    outer loop
      vertex  4.368460e+001  8.939276e+000  4.000000e+000
      vertex  4.811065e+001  3.139922e+000  4.000000e+000
      vertex  4.993537e+001  4.969454e+000  4.000000e+000
    endloop
  endfacet
  facet normal  0.000000e+000  -0.000000e+000  1.000000e+000
    outer loop
      vertex  4.368460e+001  8.939276e+000  4.000000e+000
      vertex  4.993537e+001  4.969454e+000  4.000000e+000
      vertex  5.060305e+001  7.465650e+000  4.000000e+000
    endloop
  endfacet
  facet normal  0.000000e+000  -0.000000e+000  1.000000e+000
    outer loop
      vertex -2.739695e+001  2.273244e+000  4.000000e+000
      vertex -1.586038e+001  2.303648e+000  4.000000e+000
      vertex -1.378797e+001  2.759366e+000  4.000000e+000
    endloop
  endfacet
  facet normal  0.000000e+000  -0.000000e+000  1.000000e+000
    outer loop
      vertex -2.739695e+001  2.273244e+000  4.000000e+000
      vertex -1.378797e+001  2.759366e+000  4.000000e+000
      vertex -1.209119e+001  4.033514e+000  4.000000e+000
    endloop
  endfacet
  facet normal  0.000000e+000  -0.000000e+000  9.999999e-001
    outer loop
      vertex -2.739695e+001  2.273244e+000  4.000000e+000
      vertex -1.209119e+001  4.033514e+000  4.000000e+000
      vertex -7.411036e+000  8.402246e+000  4.000000e+000
    endloop
  endfacet
  facet normal  0.000000e+000  -0.000000e+000  1.000000e+000
    outer loop
      vertex -2.739695e+001  2.273244e+000  4.000000e+000
      vertex -7.411036e+000  8.402246e+000  4.000000e+000
      vertex -1.910453e+000  1.167840e+001  4.000000e+000
    endloop
  endfacet
  facet normal  0.000000e+000  0.000000e+000  1.000000e+000
    outer loop
      vertex  5.060305e+001  7.465650e+000  4.000000e+000
      vertex  4.543460e+001  1.432522e+001  4.000000e+000
      vertex  4.610305e+001  1.226797e+001  4.000000e+000
    endloop
  endfacet
  facet normal  0.000000e+000  0.000000e+000  1.000000e+000
    outer loop
      vertex  5.060305e+001  7.465650e+000  4.000000e+000
      vertex  4.610305e+001  1.226797e+001  4.000000e+000
      vertex  4.543460e+001  1.021072e+001  4.000000e+000
    endloop
  endfacet
  facet normal  0.000000e+000  0.000000e+000  1.000000e+000
    outer loop
      vertex  5.060305e+001  7.465650e+000  4.000000e+000
      vertex  4.543460e+001  1.021072e+001  4.000000e+000
      vertex  4.368460e+001  8.939276e+000  4.000000e+000
    endloop
  endfacet
  facet normal  0.000000e+000  0.000000e+000  9.999999e-001
    outer loop
      vertex  4.561622e+001  2.465667e+000  4.000000e+000
      vertex  4.368460e+001  8.939276e+000  4.000000e+000
      vertex  3.697181e+001  2.442885e+000  4.000000e+000
    endloop
  endfacet
  facet normal  0.000000e+000  0.000000e+000  1.000000e+000
    outer loop
      vertex  3.697181e+001  2.442885e+000  4.000000e+000
      vertex  4.368460e+001  8.939276e+000  4.000000e+000
      vertex  4.152149e+001  8.939276e+000  4.000000e+000
    endloop
  endfacet
  facet normal  0.000000e+000  0.000000e+000  9.999999e-001
    outer loop
      vertex  3.697181e+001  2.442885e+000  4.000000e+000
      vertex  4.152149e+001  8.939276e+000  4.000000e+000
      vertex  3.489703e+001  2.887673e+000  4.000000e+000
    endloop
  endfacet
  facet normal  0.000000e+000  -0.000000e+000  9.999999e-001
    outer loop
      vertex  3.489703e+001  2.887673e+000  4.000000e+000
      vertex  4.152149e+001  8.939276e+000  4.000000e+000
      vertex  2.849043e+001  8.496863e+000  4.000000e+000
    endloop
  endfacet
  facet normal  0.000000e+000  0.000000e+000  9.999999e-001
    outer loop
      vertex  3.489703e+001  2.887673e+000  4.000000e+000
      vertex  2.849043e+001  8.496863e+000  4.000000e+000
      vertex  3.319355e+001  4.152860e+000  4.000000e+000
    endloop
  endfacet
  facet normal  0.000000e+000  0.000000e+000  9.999999e-001
    outer loop
      vertex  1.689152e+001  1.374633e+001  4.000000e+000
      vertex  3.910305e+001  1.226797e+001  4.000000e+000
      vertex  1.052398e+001  1.441271e+001  4.000000e+000
    endloop
  endfacet
  facet normal  0.000000e+000  0.000000e+000  1.000000e+000
    outer loop
      vertex  1.052398e+001  1.441271e+001  4.000000e+000
      vertex  3.910305e+001  1.226797e+001  4.000000e+000
      vertex  3.977149e+001  1.432522e+001  4.000000e+000
    endloop
  endfacet
  facet normal  0.000000e+000  -0.000000e+000  1.000000e+000
    outer loop
      vertex  1.052398e+001  1.441271e+001  4.000000e+000
      vertex  3.977149e+001  1.432522e+001  4.000000e+000
      vertex  4.152149e+001  1.559667e+001  4.000000e+000
    endloop
  endfacet
  facet normal  0.000000e+000  0.000000e+000  1.000000e+000
    outer loop
      vertex  2.849043e+001  8.496863e+000  4.000000e+000
      vertex  3.977149e+001  1.021072e+001  4.000000e+000
      vertex  2.297266e+001  1.174398e+001  4.000000e+000
    endloop
  endfacet
  facet normal  -0.000000e+000  0.000000e+000  9.999999e-001
    outer loop
      vertex  2.297266e+001  1.174398e+001  4.000000e+000
      vertex  3.977149e+001  1.021072e+001  4.000000e+000
      vertex  3.910305e+001  1.226797e+001  4.000000e+000
    endloop
  endfacet
  facet normal  0.000000e+000  0.000000e+000  1.000000e+000
    outer loop
      vertex  2.297266e+001  1.174398e+001  4.000000e+000
      vertex  3.910305e+001  1.226797e+001  4.000000e+000
      vertex  1.689152e+001  1.374633e+001  4.000000e+000
    endloop
  endfacet
  facet normal  2.635413e-003 -9.999965e-001  0.000000e+000
    outer loop
      vertex -2.939695e+001  2.267973e+000  4.000000e+000
      vertex -2.902016e+001  2.268966e+000  4.831580e+000
      vertex -2.939695e+001  2.267973e+000  6.000000e+000
    endloop
  endfacet
  facet normal  2.635464e-003 -9.999965e-001  0.000000e+000
    outer loop
      vertex -2.839695e+001  2.270608e+000  0.000000e+000
      vertex -1.586038e+001  2.303648e+000  0.000000e+000
      vertex -1.586038e+001  2.303648e+000  4.000000e+000
    endloop
  endfacet
  facet normal  2.635464e-003 -9.999965e-001  1.459422e-009
    outer loop
      vertex -2.839695e+001  2.270608e+000  0.000000e+000
      vertex -1.586038e+001  2.303648e+000  4.000000e+000
      vertex -2.739695e+001  2.273244e+000  4.000000e+000
    endloop
  endfacet
  facet normal  2.635378e-003 -9.999965e-001  2.299678e-008
    outer loop
      vertex -2.839695e+001  2.270608e+000  0.000000e+000
      vertex -2.739695e+001  2.273244e+000  4.000000e+000
      vertex -2.830842e+001  2.270842e+000  4.219769e+000
    endloop
  endfacet
  facet normal  2.635311e-003 -9.999966e-001  2.440255e-008
    outer loop
      vertex -2.839695e+001  2.270608e+000  0.000000e+000
      vertex -2.830842e+001  2.270842e+000  4.219769e+000
      vertex -2.902016e+001  2.268966e+000  4.831580e+000
    endloop
  endfacet
  facet normal  2.635348e-003 -9.999965e-001  2.924808e-008
    outer loop
      vertex -2.839695e+001  2.270608e+000  0.000000e+000
      vertex -2.902016e+001  2.268966e+000  4.831580e+000
      vertex -2.939695e+001  2.267973e+000  4.000000e+000
    endloop
  endfacet
  facet normal  2.635231e-003 -9.999965e-001  0.000000e+000
    outer loop
      vertex -2.839695e+001  2.270608e+000  0.000000e+000
      vertex -2.939695e+001  2.267973e+000  4.000000e+000
      vertex -2.939695e+001  2.267973e+000  1.010205e-001
    endloop
  endfacet
  facet normal  6.823677e-001 -7.310091e-001  0.000000e+000
    outer loop
      vertex -1.209119e+001  4.033514e+000  4.000000e+000
      vertex -1.209119e+001  4.033514e+000  0.000000e+000
      vertex -7.411036e+000  8.402246e+000  4.000000e+000
    endloop
  endfacet
  facet normal  6.823677e-001 -7.310091e-001  0.000000e+000
    outer loop
      vertex -7.411036e+000  8.402246e+000  4.000000e+000
      vertex -1.209119e+001  4.033514e+000  0.000000e+000
      vertex -7.411036e+000  8.402246e+000  0.000000e+000
    endloop
  endfacet
  facet normal  5.117146e-001 -8.591555e-001  0.000000e+000
    outer loop
      vertex -7.411036e+000  8.402246e+000  4.000000e+000
      vertex -7.411036e+000  8.402246e+000  0.000000e+000
      vertex -1.910453e+000  1.167840e+001  4.000000e+000
    endloop
  endfacet
  facet normal  5.117146e-001 -8.591555e-001  0.000000e+000
    outer loop
      vertex -1.910453e+000  1.167840e+001  4.000000e+000
      vertex -7.411036e+000  8.402246e+000  0.000000e+000
      vertex -1.910453e+000  1.167840e+001  0.000000e+000
    endloop
  endfacet
  facet normal  3.177558e-001 -9.481726e-001  0.000000e+000
    outer loop
      vertex -1.910453e+000  1.167840e+001  4.000000e+000
      vertex -1.910453e+000  1.167840e+001  0.000000e+000
      vertex  4.160045e+000  1.371278e+001  4.000000e+000
    endloop
  endfacet
  facet normal  3.177558e-001 -9.481726e-001  0.000000e+000
    outer loop
      vertex  4.160045e+000  1.371278e+001  4.000000e+000
      vertex -1.910453e+000  1.167840e+001  0.000000e+000
      vertex  4.160045e+000  1.371278e+001  0.000000e+000
    endloop
  endfacet
  facet normal  1.093253e-001 -9.940060e-001  0.000000e+000
    outer loop
      vertex  4.160045e+000  1.371278e+001  4.000000e+000
      vertex  4.160045e+000  1.371278e+001  0.000000e+000
      vertex  1.052398e+001  1.441271e+001  4.000000e+000
    endloop
  endfacet
  facet normal  1.093253e-001 -9.940060e-001  0.000000e+000
    outer loop
      vertex  1.052398e+001  1.441271e+001  4.000000e+000
      vertex  4.160045e+000  1.371278e+001  0.000000e+000
      vertex  1.052398e+001  1.441271e+001  0.000000e+000
    endloop
  endfacet
  facet normal -1.040845e-001 -9.945683e-001  0.000000e+000
    outer loop
      vertex  1.052398e+001  1.441271e+001  4.000000e+000
      vertex  1.052398e+001  1.441271e+001  0.000000e+000
      vertex  1.689152e+001  1.374633e+001  4.000000e+000
    endloop
  endfacet
  facet normal -1.040845e-001 -9.945683e-001  -0.000000e+000
    outer loop
      vertex  1.689152e+001  1.374633e+001  4.000000e+000
      vertex  1.052398e+001  1.441271e+001  0.000000e+000
      vertex  1.689152e+001  1.374633e+001  0.000000e+000
    endloop
  endfacet
  facet normal -3.127537e-001 -9.498343e-001  0.000000e+000
    outer loop
      vertex  1.689152e+001  1.374633e+001  4.000000e+000
      vertex  1.689152e+001  1.374633e+001  0.000000e+000
      vertex  2.297266e+001  1.174398e+001  4.000000e+000
    endloop
  endfacet
  facet normal -3.127537e-001 -9.498343e-001  -0.000000e+000
    outer loop
      vertex  2.297266e+001  1.174398e+001  4.000000e+000
      vertex  1.689152e+001  1.374633e+001  0.000000e+000
      vertex  2.297266e+001  1.174398e+001  0.000000e+000
    endloop
  endfacet
  facet normal -5.071788e-001 -8.618408e-001  0.000000e+000
    outer loop
      vertex  2.297266e+001  1.174398e+001  4.000000e+000
      vertex  2.297266e+001  1.174398e+001  0.000000e+000
      vertex  2.849043e+001  8.496863e+000  4.000000e+000
    endloop
  endfacet
  facet normal -5.071788e-001 -8.618408e-001  -0.000000e+000
    outer loop
      vertex  2.849043e+001  8.496863e+000  4.000000e+000
      vertex  2.297266e+001  1.174398e+001  0.000000e+000
      vertex  2.849043e+001  8.496863e+000  0.000000e+000
    endloop
  endfacet
  facet normal -6.785052e-001 -7.345956e-001  0.000000e+000
    outer loop
      vertex  2.849043e+001  8.496863e+000  4.000000e+000
      vertex  2.849043e+001  8.496863e+000  0.000000e+000
      vertex  3.319355e+001  4.152860e+000  4.000000e+000
    endloop
  endfacet
  facet normal -6.785052e-001 -7.345956e-001  -0.000000e+000
    outer loop
      vertex  3.319355e+001  4.152860e+000  4.000000e+000
      vertex  2.849043e+001  8.496863e+000  0.000000e+000
      vertex  3.319355e+001  4.152860e+000  0.000000e+000
    endloop
  endfacet
  facet normal  0.000000e+000  0.000000e+000 -1.000000e+000
    outer loop
      vertex  4.810305e+001  2.159810e+001  0.000000e+000
      vertex  4.368460e+001  1.559667e+001  0.000000e+000
      vertex  4.560305e+001  2.226797e+001  0.000000e+000
    endloop
  endfacet
  facet normal  -0.000000e+000  0.000000e+000 -1.000000e+000
    outer loop
      vertex  3.977149e+001  1.021072e+001  0.000000e+000
      vertex  4.152149e+001  8.939276e+000  0.000000e+000
      vertex  2.849043e+001  8.496863e+000  0.000000e+000
    endloop
  endfacet
  facet normal  -0.000000e+000  0.000000e+000 -1.000000e+000
    outer loop
      vertex -2.839695e+001  2.226797e+001  0.000000e+000
      vertex  4.560305e+001  2.226797e+001  0.000000e+000
      vertex  4.368460e+001  1.559667e+001  0.000000e+000
    endloop
  endfacet
  facet normal  0.000000e+000  0.000000e+000 -1.000000e+000
    outer loop
      vertex -2.839695e+001  2.226797e+001  0.000000e+000
      vertex  4.368460e+001  1.559667e+001  0.000000e+000
      vertex  4.152149e+001  1.559667e+001  0.000000e+000
    endloop
  endfacet
  facet normal  -0.000000e+000  0.000000e+000 -1.000000e+000
    outer loop
      vertex -2.839695e+001  2.226797e+001  0.000000e+000
      vertex  4.152149e+001  1.559667e+001  0.000000e+000
      vertex  1.052398e+001  1.441271e+001  0.000000e+000
    endloop
  endfacet
  facet normal  -0.000000e+000  0.000000e+000 -1.000000e+000
    outer loop
      vertex -2.839695e+001  2.226797e+001  0.000000e+000
      vertex  1.052398e+001  1.441271e+001  0.000000e+000
      vertex  4.160045e+000  1.371278e+001  0.000000e+000
    endloop
  endfacet
  facet normal  -0.000000e+000  0.000000e+000 -1.000000e+000
    outer loop
      vertex -2.839695e+001  2.226797e+001  0.000000e+000
      vertex  4.160045e+000  1.371278e+001  0.000000e+000
      vertex -1.910453e+000  1.167840e+001  0.000000e+000
    endloop
  endfacet
  facet normal  -0.000000e+000  0.000000e+000 -1.000000e+000
    outer loop
      vertex -2.839695e+001  2.226797e+001  0.000000e+000
      vertex -1.910453e+000  1.167840e+001  0.000000e+000
      vertex -2.839695e+001  2.270608e+000  0.000000e+000
    endloop
  endfacet
  facet normal  0.000000e+000  0.000000e+000 -1.000000e+000
    outer loop
      vertex  5.060305e+001  1.726797e+001  0.000000e+000
      vertex  5.060305e+001  7.465650e+000  0.000000e+000
      vertex  4.543460e+001  1.432522e+001  0.000000e+000
    endloop
  endfacet
  facet normal  0.000000e+000  0.000000e+000 -9.999999e-001
    outer loop
      vertex  5.060305e+001  1.726797e+001  0.000000e+000
      vertex  4.543460e+001  1.432522e+001  0.000000e+000
      vertex  4.368460e+001  1.559667e+001  0.000000e+000
    endloop
  endfacet
  facet normal  0.000000e+000  0.000000e+000 -1.000000e+000
    outer loop
      vertex  5.060305e+001  1.726797e+001  0.000000e+000
      vertex  4.368460e+001  1.559667e+001  0.000000e+000
      vertex  4.810305e+001  2.159810e+001  0.000000e+000
    endloop
  endfacet
  facet normal  0.000000e+000  0.000000e+000 -1.000000e+000
    outer loop
      vertex  5.060305e+001  1.726797e+001  0.000000e+000
      vertex  4.810305e+001  2.159810e+001  0.000000e+000
      vertex  4.993317e+001  1.976797e+001  0.000000e+000
    endloop
  endfacet
  facet normal  -0.000000e+000  0.000000e+000 -1.000000e+000
    outer loop
      vertex  4.368460e+001  8.939276e+000  0.000000e+000
      vertex  5.060305e+001  7.465650e+000  0.000000e+000
      vertex  4.993537e+001  4.969454e+000  0.000000e+000
    endloop
  endfacet
  facet normal  -0.000000e+000  0.000000e+000 -1.000000e+000
    outer loop
      vertex  4.368460e+001  8.939276e+000  0.000000e+000
      vertex  4.993537e+001  4.969454e+000  0.000000e+000
      vertex  4.811065e+001  3.139922e+000  0.000000e+000
    endloop
  endfacet
  facet normal  -0.000000e+000  0.000000e+000 -1.000000e+000
    outer loop
      vertex  4.368460e+001  8.939276e+000  0.000000e+000
      vertex  4.811065e+001  3.139922e+000  0.000000e+000
      vertex  4.561622e+001  2.465667e+000  0.000000e+000
    endloop
  endfacet
  facet normal  0.000000e+000  0.000000e+000 -1.000000e+000
    outer loop
      vertex -2.839695e+001  2.270608e+000  0.000000e+000
      vertex -1.910453e+000  1.167840e+001  0.000000e+000
      vertex -7.411036e+000  8.402246e+000  0.000000e+000
    endloop
  endfacet
  facet normal  0.000000e+000  0.000000e+000 -9.999999e-001
    outer loop
      vertex -2.839695e+001  2.270608e+000  0.000000e+000
      vertex -7.411036e+000  8.402246e+000  0.000000e+000
      vertex -1.209119e+001  4.033514e+000  0.000000e+000
    endloop
  endfacet
  facet normal  0.000000e+000  0.000000e+000 -1.000000e+000
    outer loop
      vertex -2.839695e+001  2.270608e+000  0.000000e+000
      vertex -1.209119e+001  4.033514e+000  0.000000e+000
      vertex -1.378797e+001  2.759366e+000  0.000000e+000
    endloop
  endfacet
  facet normal  0.000000e+000  0.000000e+000 -1.000000e+000
    outer loop
      vertex -2.839695e+001  2.270608e+000  0.000000e+000
      vertex -1.378797e+001  2.759366e+000  0.000000e+000
      vertex -1.586038e+001  2.303648e+000  0.000000e+000
    endloop
  endfacet
  facet normal  0.000000e+000  0.000000e+000 -1.000000e+000
    outer loop
      vertex  5.060305e+001  7.465650e+000  0.000000e+000
      vertex  4.368460e+001  8.939276e+000  0.000000e+000
      vertex  4.543460e+001  1.021072e+001  0.000000e+000
    endloop
  endfacet
  facet normal  0.000000e+000  0.000000e+000 -1.000000e+000
    outer loop
      vertex  5.060305e+001  7.465650e+000  0.000000e+000
      vertex  4.543460e+001  1.021072e+001  0.000000e+000
      vertex  4.610305e+001  1.226797e+001  0.000000e+000
    endloop
  endfacet
  facet normal  0.000000e+000  0.000000e+000 -1.000000e+000
    outer loop
      vertex  5.060305e+001  7.465650e+000  0.000000e+000
      vertex  4.610305e+001  1.226797e+001  0.000000e+000
      vertex  4.543460e+001  1.432522e+001  0.000000e+000
    endloop
  endfacet
  facet normal  0.000000e+000  0.000000e+000 -9.999999e-001
    outer loop
      vertex  4.368460e+001  8.939276e+000  0.000000e+000
      vertex  4.561622e+001  2.465667e+000  0.000000e+000
      vertex  4.152149e+001  8.939276e+000  0.000000e+000
    endloop
  endfacet
  facet normal  0.000000e+000  -0.000000e+000 -1.000000e+000
    outer loop
      vertex  4.152149e+001  8.939276e+000  0.000000e+000
      vertex  4.561622e+001  2.465667e+000  0.000000e+000
      vertex  3.697181e+001  2.442885e+000  0.000000e+000
    endloop
  endfacet
  facet normal  0.000000e+000  0.000000e+000 -1.000000e+000
    outer loop
      vertex  4.152149e+001  8.939276e+000  0.000000e+000
      vertex  3.697181e+001  2.442885e+000  0.000000e+000
      vertex  2.849043e+001  8.496863e+000  0.000000e+000
    endloop
  endfacet
  facet normal  0.000000e+000  0.000000e+000 -1.000000e+000
    outer loop
      vertex  2.849043e+001  8.496863e+000  0.000000e+000
      vertex  3.697181e+001  2.442885e+000  0.000000e+000
      vertex  3.489703e+001  2.887673e+000  0.000000e+000
    endloop
  endfacet
  facet normal  0.000000e+000  0.000000e+000 -1.000000e+000
    outer loop
      vertex  2.849043e+001  8.496863e+000  0.000000e+000
      vertex  3.489703e+001  2.887673e+000  0.000000e+000
      vertex  3.319355e+001  4.152860e+000  0.000000e+000
    endloop
  endfacet
  facet normal  0.000000e+000  0.000000e+000 -1.000000e+000
    outer loop
      vertex  3.910305e+001  1.226797e+001  0.000000e+000
      vertex  1.689152e+001  1.374633e+001  0.000000e+000
      vertex  3.977149e+001  1.432522e+001  0.000000e+000
    endloop
  endfacet
  facet normal  -0.000000e+000  0.000000e+000 -1.000000e+000
    outer loop
      vertex  3.977149e+001  1.432522e+001  0.000000e+000
      vertex  1.689152e+001  1.374633e+001  0.000000e+000
      vertex  1.052398e+001  1.441271e+001  0.000000e+000
    endloop
  endfacet
  facet normal  0.000000e+000  0.000000e+000 -1.000000e+000
    outer loop
      vertex  3.977149e+001  1.432522e+001  0.000000e+000
      vertex  1.052398e+001  1.441271e+001  0.000000e+000
      vertex  4.152149e+001  1.559667e+001  0.000000e+000
    endloop
  endfacet
  facet normal  0.000000e+000  0.000000e+000 -1.000000e+000
    outer loop
      vertex  3.977149e+001  1.021072e+001  0.000000e+000
      vertex  2.849043e+001  8.496863e+000  0.000000e+000
      vertex  3.910305e+001  1.226797e+001  0.000000e+000
    endloop
  endfacet
  facet normal  0.000000e+000  0.000000e+000 -1.000000e+000
    outer loop
      vertex  3.910305e+001  1.226797e+001  0.000000e+000
      vertex  2.849043e+001  8.496863e+000  0.000000e+000
      vertex  2.297266e+001  1.174398e+001  0.000000e+000
    endloop
  endfacet
  facet normal  0.000000e+000  0.000000e+000 -1.000000e+000
    outer loop
      vertex  3.910305e+001  1.226797e+001  0.000000e+000
      vertex  2.297266e+001  1.174398e+001  0.000000e+000
      vertex  1.689152e+001  1.374633e+001  0.000000e+000
    endloop
  endfacet
  facet normal  2.147667e-001 -9.766654e-001  0.000000e+000
    outer loop
      vertex -1.586038e+001  2.303648e+000  4.000000e+000
      vertex -1.586038e+001  2.303648e+000  0.000000e+000
      vertex -1.378797e+001  2.759366e+000  4.000000e+000
    endloop
  endfacet
  facet normal  2.147667e-001 -9.766654e-001  0.000000e+000
    outer loop
      vertex -1.378797e+001  2.759366e+000  4.000000e+000
      vertex -1.586038e+001  2.303648e+000  0.000000e+000
      vertex -1.378797e+001  2.759366e+000  0.000000e+000
    endloop
  endfacet
  facet normal  6.004694e-001 -7.996478e-001  0.000000e+000
    outer loop
      vertex -1.378797e+001  2.759366e+000  4.000000e+000
      vertex -1.378797e+001  2.759366e+000  0.000000e+000
      vertex -1.209119e+001  4.033514e+000  4.000000e+000
    endloop
  endfacet
  facet normal  6.004694e-001 -7.996478e-001  0.000000e+000
    outer loop
      vertex -1.209119e+001  4.033514e+000  4.000000e+000
      vertex -1.378797e+001  2.759366e+000  0.000000e+000
      vertex -1.209119e+001  4.033514e+000  0.000000e+000
    endloop
  endfacet
  facet normal  9.999999e-001  0.000000e+000  -0.000000e+000
    outer loop
      vertex -2.939695e+001  1.297508e+001  3.600711e+001
      vertex -2.939695e+001  1.326797e+001  3.530000e+001
      vertex -2.939695e+001  1.726797e+001  3.780000e+001
    endloop
  endfacet
  facet normal  1.000000e+000  0.000000e+000  -0.000000e+000
    outer loop
      vertex -2.939695e+001  1.226797e+001  3.630000e+001
      vertex -2.939695e+001  1.297508e+001  3.600711e+001
      vertex -2.939695e+001  1.726797e+001  3.780000e+001
    endloop
  endfacet
  facet normal  1.000000e+000  0.000000e+000  0.000000e+000
    outer loop
      vertex -2.939695e+001  2.226797e+001  3.280000e+001
      vertex -2.939695e+001  2.159810e+001  3.530000e+001
      vertex -2.939695e+001  1.856797e+001  3.280000e+001
    endloop
  endfacet
  facet normal  1.000000e+000  -0.000000e+000  0.000000e+000
    outer loop
      vertex -2.939695e+001  1.297508e+001  3.459289e+001
      vertex -2.939695e+001  1.226797e+001  3.430000e+001
      vertex -2.939695e+001  1.856797e+001  3.280000e+001
    endloop
  endfacet
  facet normal  1.000000e+000  -0.000000e+000  0.000000e+000
    outer loop
      vertex -2.939695e+001  1.856797e+001  9.000000e+000
      vertex -2.939695e+001  1.226797e+001  7.500000e+000
      vertex -2.939695e+001  1.297508e+001  7.207107e+000
    endloop
  endfacet
  facet normal  1.000000e+000  -0.000000e+000  0.000000e+000
    outer loop
      vertex -2.939695e+001  1.856797e+001  9.000000e+000
      vertex -2.939695e+001  1.297508e+001  7.207107e+000
      vertex -2.939695e+001  1.326797e+001  6.500000e+000
    endloop
  endfacet
  facet normal  1.000000e+000  -0.000000e+000  0.000000e+000
    outer loop
      vertex -2.939695e+001  1.856797e+001  9.000000e+000
      vertex -2.939695e+001  1.326797e+001  6.500000e+000
      vertex -2.939695e+001  1.313400e+001  6.000000e+000
    endloop
  endfacet
  facet normal  1.000000e+000  0.000000e+000  0.000000e+000
    outer loop
      vertex -2.939695e+001  1.856797e+001  9.000000e+000
      vertex -2.939695e+001  1.313400e+001  6.000000e+000
      vertex -2.939695e+001  2.226797e+001  6.000000e+000
    endloop
  endfacet
  facet normal  1.000000e+000  0.000000e+000  -0.000000e+000
    outer loop
      vertex -2.939695e+001  1.856797e+001  9.000000e+000
      vertex -2.939695e+001  2.226797e+001  6.000000e+000
      vertex -2.939695e+001  2.226797e+001  3.280000e+001
    endloop
  endfacet
  facet normal  1.000000e+000  0.000000e+000  0.000000e+000
    outer loop
      vertex -2.939695e+001  1.856797e+001  9.000000e+000
      vertex -2.939695e+001  2.226797e+001  3.280000e+001
      vertex -2.939695e+001  1.856797e+001  3.280000e+001
    endloop
  endfacet
  facet normal  1.000000e+000  0.000000e+000  0.000000e+000
    outer loop
      vertex -2.939695e+001  5.967973e+000  3.280000e+001
      vertex -2.939695e+001  1.856797e+001  3.280000e+001
      vertex -2.939695e+001  1.226797e+001  3.430000e+001
    endloop
  endfacet
  facet normal  1.000000e+000  0.000000e+000  0.000000e+000
    outer loop
      vertex -2.939695e+001  5.967973e+000  3.280000e+001
      vertex -2.939695e+001  1.226797e+001  3.430000e+001
      vertex -2.939695e+001  1.156087e+001  3.459289e+001
    endloop
  endfacet
  facet normal  1.000000e+000  0.000000e+000  0.000000e+000
    outer loop
      vertex -2.939695e+001  5.967973e+000  3.280000e+001
      vertex -2.939695e+001  1.156087e+001  3.459289e+001
      vertex -2.939695e+001  1.126797e+001  3.530000e+001
    endloop
  endfacet
  facet normal  9.999999e-001  0.000000e+000  0.000000e+000
    outer loop
      vertex -2.939695e+001  5.967973e+000  3.280000e+001
      vertex -2.939695e+001  1.126797e+001  3.530000e+001
      vertex -2.939695e+001  2.937846e+000  3.530000e+001
    endloop
  endfacet
  facet normal  1.000000e+000  0.000000e+000  0.000000e+000
    outer loop
      vertex -2.939695e+001  5.967973e+000  3.280000e+001
      vertex -2.939695e+001  2.937846e+000  3.530000e+001
      vertex -2.939695e+001  2.267973e+000  3.280000e+001
    endloop
  endfacet
  facet normal  1.000000e+000  -0.000000e+000  0.000000e+000
    outer loop
      vertex -2.939695e+001  5.967973e+000  3.280000e+001
      vertex -2.939695e+001  2.267973e+000  3.280000e+001
      vertex -2.939695e+001  2.267973e+000  6.000000e+000
    endloop
  endfacet
  facet normal  1.000000e+000  0.000000e+000  0.000000e+000
    outer loop
      vertex -2.939695e+001  5.967973e+000  3.280000e+001
      vertex -2.939695e+001  2.267973e+000  6.000000e+000
      vertex -2.939695e+001  5.967973e+000  9.000000e+000
    endloop
  endfacet
  facet normal  1.000000e+000  -0.000000e+000  0.000000e+000
    outer loop
      vertex -2.939695e+001  1.326797e+001  3.530000e+001
      vertex -2.939695e+001  1.297508e+001  3.459289e+001
      vertex -2.939695e+001  1.856797e+001  3.280000e+001
    endloop
  endfacet
  facet normal  1.000000e+000  0.000000e+000  -0.000000e+000
    outer loop
      vertex -2.939695e+001  1.326797e+001  3.530000e+001
      vertex -2.939695e+001  1.856797e+001  3.280000e+001
      vertex -2.939695e+001  2.159810e+001  3.530000e+001
    endloop
  endfacet
  facet normal  1.000000e+000  0.000000e+000  0.000000e+000
    outer loop
      vertex -2.939695e+001  1.326797e+001  3.530000e+001
      vertex -2.939695e+001  2.159810e+001  3.530000e+001
      vertex -2.939695e+001  1.976797e+001  3.713013e+001
    endloop
  endfacet
  facet normal  1.000000e+000  0.000000e+000  0.000000e+000
    outer loop
      vertex -2.939695e+001  1.326797e+001  3.530000e+001
      vertex -2.939695e+001  1.976797e+001  3.713013e+001
      vertex -2.939695e+001  1.726797e+001  3.780000e+001
    endloop
  endfacet
  facet normal  1.000000e+000  0.000000e+000  0.000000e+000
    outer loop
      vertex -2.939695e+001  5.967973e+000  9.000000e+000
      vertex -2.939695e+001  2.267973e+000  6.000000e+000
      vertex -2.939695e+001  1.140195e+001  6.000000e+000
    endloop
  endfacet
  facet normal  1.000000e+000  0.000000e+000  0.000000e+000
    outer loop
      vertex -2.939695e+001  5.967973e+000  9.000000e+000
      vertex -2.939695e+001  1.140195e+001  6.000000e+000
      vertex -2.939695e+001  1.126797e+001  6.500000e+000
    endloop
  endfacet
  facet normal  1.000000e+000  0.000000e+000  -0.000000e+000
    outer loop
      vertex -2.939695e+001  5.967973e+000  9.000000e+000
      vertex -2.939695e+001  1.126797e+001  6.500000e+000
      vertex -2.939695e+001  1.156087e+001  7.207107e+000
    endloop
  endfacet
  facet normal  1.000000e+000  0.000000e+000  -0.000000e+000
    outer loop
      vertex -2.939695e+001  5.967973e+000  9.000000e+000
      vertex -2.939695e+001  1.156087e+001  7.207107e+000
      vertex -2.939695e+001  1.226797e+001  7.500000e+000
    endloop
  endfacet
  facet normal  1.000000e+000  0.000000e+000  -0.000000e+000
    outer loop
      vertex -2.939695e+001  5.967973e+000  9.000000e+000
      vertex -2.939695e+001  1.226797e+001  7.500000e+000
      vertex -2.939695e+001  1.856797e+001  9.000000e+000
    endloop
  endfacet
  facet normal  1.000000e+000  -0.000000e+000  0.000000e+000
    outer loop
      vertex -2.939695e+001  7.267973e+000  3.780000e+001
      vertex -2.939695e+001  4.767973e+000  3.713013e+001
      vertex -2.939695e+001  2.937846e+000  3.530000e+001
    endloop
  endfacet
  facet normal  9.999999e-001  0.000000e+000  0.000000e+000
    outer loop
      vertex -2.939695e+001  7.267973e+000  3.780000e+001
      vertex -2.939695e+001  2.937846e+000  3.530000e+001
      vertex -2.939695e+001  1.126797e+001  3.530000e+001
    endloop
  endfacet
  facet normal  9.999999e-001  0.000000e+000  -0.000000e+000
    outer loop
      vertex -2.939695e+001  7.267973e+000  3.780000e+001
      vertex -2.939695e+001  1.126797e+001  3.530000e+001
      vertex -2.939695e+001  1.156087e+001  3.600711e+001
    endloop
  endfacet
  facet normal  1.000000e+000  0.000000e+000  -0.000000e+000
    outer loop
      vertex -2.939695e+001  7.267973e+000  3.780000e+001
      vertex -2.939695e+001  1.156087e+001  3.600711e+001
      vertex -2.939695e+001  1.226797e+001  3.630000e+001
    endloop
  endfacet
  facet normal  1.000000e+000  0.000000e+000  -0.000000e+000
    outer loop
      vertex -2.939695e+001  7.267973e+000  3.780000e+001
      vertex -2.939695e+001  1.226797e+001  3.630000e+001
      vertex -2.939695e+001  1.726797e+001  3.780000e+001
    endloop
  endfacet
  facet normal  0.000000e+000  1.000000e+000  0.000000e+000
    outer loop
      vertex -3.339695e+001  2.226797e+001  3.280000e+001
      vertex -3.272708e+001  2.226797e+001  2.500000e+000
      vertex -3.339695e+001  2.226797e+001  5.000000e+000
    endloop
  endfacet
  facet normal  0.000000e+000  1.000000e+000  -0.000000e+000
    outer loop
      vertex  4.560305e+001  2.226797e+001  4.000000e+000
      vertex  4.560305e+001  2.226797e+001  0.000000e+000
      vertex -2.739695e+001  2.226797e+001  4.000000e+000
    endloop
  endfacet
  facet normal  0.000000e+000  1.000000e+000  0.000000e+000
    outer loop
      vertex -2.739695e+001  2.226797e+001  4.000000e+000
      vertex  4.560305e+001  2.226797e+001  0.000000e+000
      vertex -2.839695e+001  2.226797e+001  0.000000e+000
    endloop
  endfacet
  facet normal  0.000000e+000  1.000000e+000  -0.000000e+000
    outer loop
      vertex -2.739695e+001  2.226797e+001  4.000000e+000
      vertex -2.839695e+001  2.226797e+001  0.000000e+000
      vertex -2.881117e+001  2.226797e+001  4.585786e+000
    endloop
  endfacet
  facet normal  0.000000e+000  1.000000e+000  0.000000e+000
    outer loop
      vertex -3.272708e+001  2.226797e+001  2.500000e+000
      vertex -3.339695e+001  2.226797e+001  3.280000e+001
      vertex -3.089695e+001  2.226797e+001  6.698730e-001
    endloop
  endfacet
  facet normal  0.000000e+000  1.000000e+000  -0.000000e+000
    outer loop
      vertex -3.089695e+001  2.226797e+001  6.698730e-001
      vertex -3.339695e+001  2.226797e+001  3.280000e+001
      vertex -2.939695e+001  2.226797e+001  3.280000e+001
    endloop
  endfacet
  facet normal  0.000000e+000  1.000000e+000  0.000000e+000
    outer loop
      vertex -3.089695e+001  2.226797e+001  6.698730e-001
      vertex -2.939695e+001  2.226797e+001  3.280000e+001
      vertex -2.939695e+001  2.226797e+001  6.000000e+000
    endloop
  endfacet
  facet normal  0.000000e+000  9.999999e-001  0.000000e+000
    outer loop
      vertex -2.939695e+001  2.226797e+001  6.000000e+000
      vertex -2.881117e+001  2.226797e+001  4.585786e+000
      vertex -3.089695e+001  2.226797e+001  6.698730e-001
    endloop
  endfacet
  facet normal  -0.000000e+000  9.999999e-001  0.000000e+000
    outer loop
      vertex -3.089695e+001  2.226797e+001  6.698730e-001
      vertex -2.881117e+001  2.226797e+001  4.585786e+000
      vertex -2.839695e+001  2.226797e+001  0.000000e+000
    endloop
  endfacet
  facet normal  1.107197e-002 -3.826603e-001  9.238228e-001
    outer loop
      vertex -2.937443e+001  1.286892e+001  5.700710e+000
      vertex -3.339695e+001  1.297508e+001  5.792893e+000
      vertex -3.339695e+001  1.226797e+001  5.500000e+000
    endloop
  endfacet
  facet normal  0.000000e+000  9.238794e-001  3.826837e-001
    outer loop
      vertex -3.339695e+001  1.126797e+001  6.500000e+000
      vertex -2.939695e+001  1.126797e+001  6.500000e+000
      vertex -3.339695e+001  1.156087e+001  5.792893e+000
    endloop
  endfacet
  facet normal  2.496723e-002  9.656245e-001  2.587391e-001
    outer loop
      vertex -3.339695e+001  1.156087e+001  5.792893e+000
      vertex -2.939695e+001  1.126797e+001  6.500000e+000
      vertex -2.939695e+001  1.140195e+001  6.000000e+000
    endloop
  endfacet
  facet normal -1.408830e-002  6.431544e-001  7.656069e-001
    outer loop
      vertex -3.339695e+001  1.156087e+001  5.792893e+000
      vertex -2.939695e+001  1.140195e+001  6.000000e+000
      vertex -2.934795e+001  1.192679e+001  5.560003e+000
    endloop
  endfacet
  facet normal  1.855185e-002  3.826179e-001  9.237204e-001
    outer loop
      vertex -3.339695e+001  1.156087e+001  5.792893e+000
      vertex -2.934795e+001  1.192679e+001  5.560003e+000
      vertex -3.339695e+001  1.226797e+001  5.500000e+000
    endloop
  endfacet
  facet normal  4.492580e-004  1.783786e-001  9.839618e-001
    outer loop
      vertex -3.339695e+001  1.226797e+001  5.500000e+000
      vertex -2.934795e+001  1.192679e+001  5.560003e+000
      vertex -2.933346e+001  1.225743e+001  5.500056e+000
    endloop
  endfacet
  facet normal -8.220364e-004 -3.118344e-001  9.501362e-001
    outer loop
      vertex -3.339695e+001  1.226797e+001  5.500000e+000
      vertex -2.933346e+001  1.225743e+001  5.500056e+000
      vertex -2.937443e+001  1.286892e+001  5.700710e+000
    endloop
  endfacet
  facet normal  0.000000e+000 -9.659261e-001  2.588181e-001
    outer loop
      vertex -2.939695e+001  1.326797e+001  6.500000e+000
      vertex -3.339695e+001  1.326797e+001  6.500000e+000
      vertex -2.939695e+001  1.313400e+001  6.000000e+000
    endloop
  endfacet
  facet normal  1.688909e-002 -9.237477e-001  3.826292e-001
    outer loop
      vertex -2.939695e+001  1.313400e+001  6.000000e+000
      vertex -3.339695e+001  1.326797e+001  6.500000e+000
      vertex -3.339695e+001  1.297508e+001  5.792893e+000
    endloop
  endfacet
  facet normal -4.571073e-003 -7.487569e-001  6.628289e-001
    outer loop
      vertex -2.939695e+001  1.313400e+001  6.000000e+000
      vertex -3.339695e+001  1.297508e+001  5.792893e+000
      vertex -2.937443e+001  1.286892e+001  5.700710e+000
    endloop
  endfacet
  facet normal  0.000000e+000 -1.000000e+000  0.000000e+000
    outer loop
      vertex -2.939695e+001  2.267973e+000  3.280000e+001
      vertex -3.339695e+001  2.267973e+000  3.280000e+001
      vertex -2.939695e+001  2.267973e+000  6.000000e+000
    endloop
  endfacet
  facet normal  -0.000000e+000 -1.000000e+000  0.000000e+000
    outer loop
      vertex -2.939695e+001  2.267973e+000  6.000000e+000
      vertex -3.339695e+001  2.267973e+000  3.280000e+001
      vertex -3.339695e+001  2.267973e+000  5.000000e+000
    endloop
  endfacet
  facet normal  0.000000e+000 -1.000000e+000  0.000000e+000
    outer loop
      vertex -2.939695e+001  2.267973e+000  6.000000e+000
      vertex -3.339695e+001  2.267973e+000  5.000000e+000
      vertex -2.939695e+001  2.267973e+000  4.000000e+000
    endloop
  endfacet
  facet normal  0.000000e+000 -1.000000e+000  0.000000e+000
    outer loop
      vertex -2.939695e+001  2.267973e+000  4.000000e+000
      vertex -3.339695e+001  2.267973e+000  5.000000e+000
      vertex -2.939695e+001  2.267973e+000  1.010205e-001
    endloop
  endfacet
  facet normal  0.000000e+000 -9.999999e-001  0.000000e+000
    outer loop
      vertex -2.939695e+001  2.267973e+000  1.010205e-001
      vertex -3.339695e+001  2.267973e+000  5.000000e+000
      vertex -3.288500e+001  2.267973e+000  2.796046e+000
    endloop
  endfacet
  facet normal  0.000000e+000 -1.000000e+000  0.000000e+000
    outer loop
      vertex -2.939695e+001  2.267973e+000  1.010205e-001
      vertex -3.288500e+001  2.267973e+000  2.796046e+000
      vertex -3.145399e+001  2.267973e+000  1.043418e+000
    endloop
  endfacet
  facet normal  9.238795e-001  0.000000e+000  3.826837e-001
    outer loop
      vertex -2.881117e+001  2.226797e+001  4.585786e+000
      vertex -2.939695e+001  2.226797e+001  6.000000e+000
      vertex -2.939695e+001  1.313400e+001  6.000000e+000
    endloop
  endfacet
  facet normal  9.922829e-001 -4.579724e-002  1.152269e-001
    outer loop
      vertex -2.881117e+001  2.226797e+001  4.585786e+000
      vertex -2.939695e+001  1.313400e+001  6.000000e+000
      vertex -2.937443e+001  1.286892e+001  5.700710e+000
    endloop
  endfacet
  facet normal  9.616218e-001 -2.521887e-002  2.732168e-001
    outer loop
      vertex -2.881117e+001  2.226797e+001  4.585786e+000
      vertex -2.937443e+001  1.286892e+001  5.700710e+000
      vertex -2.933346e+001  1.225743e+001  5.500056e+000
    endloop
  endfacet
  facet normal  8.843403e-001 -3.503999e-003  4.668295e-001
    outer loop
      vertex -2.881117e+001  2.226797e+001  4.585786e+000
      vertex -2.933346e+001  1.225743e+001  5.500056e+000
      vertex -2.902016e+001  2.268966e+000  4.831580e+000
    endloop
  endfacet
  facet normal  6.518605e-001  2.508126e-003  7.583348e-001
    outer loop
      vertex -2.881117e+001  2.226797e+001  4.585786e+000
      vertex -2.902016e+001  2.268966e+000  4.831580e+000
      vertex -2.830842e+001  2.270842e+000  4.219769e+000
    endloop
  endfacet
  facet normal  2.344106e-001 -1.189893e-002  9.720649e-001
    outer loop
      vertex -2.881117e+001  2.226797e+001  4.585786e+000
      vertex -2.830842e+001  2.270842e+000  4.219769e+000
      vertex -2.739695e+001  2.273244e+000  4.000000e+000
    endloop
  endfacet
  facet normal  3.826835e-001  -0.000000e+000  9.238794e-001
    outer loop
      vertex -2.881117e+001  2.226797e+001  4.585786e+000
      vertex -2.739695e+001  2.273244e+000  4.000000e+000
      vertex -2.739695e+001  2.226797e+001  4.000000e+000
    endloop
  endfacet
  facet normal  9.938562e-001  -0.000000e+000  1.106797e-001
    outer loop
      vertex -2.939695e+001  1.140195e+001  6.000000e+000
      vertex -2.939695e+001  2.267973e+000  6.000000e+000
      vertex -2.934795e+001  1.192679e+001  5.560003e+000
    endloop
  endfacet
  facet normal  9.516938e-001  9.153054e-003  3.069122e-001
    outer loop
      vertex -2.934795e+001  1.192679e+001  5.560003e+000
      vertex -2.939695e+001  2.267973e+000  6.000000e+000
      vertex -2.902016e+001  2.268966e+000  4.831580e+000
    endloop
  endfacet
  facet normal  9.569910e-001  1.061419e-002  2.899233e-001
    outer loop
      vertex -2.934795e+001  1.192679e+001  5.560003e+000
      vertex -2.902016e+001  2.268966e+000  4.831580e+000
      vertex -2.933346e+001  1.225743e+001  5.500056e+000
    endloop
  endfacet
  facet normal -1.000000e+000  0.000000e+000  0.000000e+000
    outer loop
      vertex -3.339695e+001  2.937846e+000  3.530000e+001
      vertex -3.339695e+001  1.226797e+001  3.630000e+001
      vertex -3.339695e+001  1.156087e+001  3.600711e+001
    endloop
  endfacet
  facet normal -9.999999e-001  0.000000e+000  0.000000e+000
    outer loop
      vertex -3.339695e+001  1.126797e+001  3.530000e+001
      vertex -3.339695e+001  2.937846e+000  3.530000e+001
      vertex -3.339695e+001  1.156087e+001  3.600711e+001
    endloop
  endfacet
  facet normal -1.000000e+000  0.000000e+000  0.000000e+000
    outer loop
      vertex -3.339695e+001  1.856797e+001  9.000000e+000
      vertex -3.339695e+001  1.856797e+001  3.280000e+001
      vertex -3.339695e+001  2.226797e+001  3.280000e+001
    endloop
  endfacet
  facet normal -1.000000e+000  0.000000e+000  -0.000000e+000
    outer loop
      vertex -3.339695e+001  1.856797e+001  9.000000e+000
      vertex -3.339695e+001  2.226797e+001  3.280000e+001
      vertex -3.339695e+001  2.226797e+001  5.000000e+000
    endloop
  endfacet
  facet normal -1.000000e+000  0.000000e+000  0.000000e+000
    outer loop
      vertex -3.339695e+001  1.856797e+001  9.000000e+000
      vertex -3.339695e+001  2.226797e+001  5.000000e+000
      vertex -3.339695e+001  1.226797e+001  7.500000e+000
    endloop
  endfacet
  facet normal -1.000000e+000  0.000000e+000  0.000000e+000
    outer loop
      vertex -3.339695e+001  1.856797e+001  9.000000e+000
      vertex -3.339695e+001  1.226797e+001  7.500000e+000
      vertex -3.339695e+001  5.967973e+000  9.000000e+000
    endloop
  endfacet
  facet normal -1.000000e+000  0.000000e+000  0.000000e+000
    outer loop
      vertex -3.339695e+001  2.267973e+000  5.000000e+000
      vertex -3.339695e+001  2.267973e+000  3.280000e+001
      vertex -3.339695e+001  5.967973e+000  3.280000e+001
    endloop
  endfacet
  facet normal -1.000000e+000  0.000000e+000  -0.000000e+000
    outer loop
      vertex -3.339695e+001  2.267973e+000  5.000000e+000
      vertex -3.339695e+001  5.967973e+000  3.280000e+001
      vertex -3.339695e+001  5.967973e+000  9.000000e+000
    endloop
  endfacet
  facet normal -1.000000e+000  0.000000e+000  -0.000000e+000
    outer loop
      vertex -3.339695e+001  2.267973e+000  5.000000e+000
      vertex -3.339695e+001  5.967973e+000  9.000000e+000
      vertex -3.339695e+001  1.226797e+001  7.500000e+000
    endloop
  endfacet
  facet normal -1.000000e+000  0.000000e+000  0.000000e+000
    outer loop
      vertex -3.339695e+001  2.267973e+000  5.000000e+000
      vertex -3.339695e+001  1.226797e+001  7.500000e+000
      vertex -3.339695e+001  1.156087e+001  7.207107e+000
    endloop
  endfacet
  facet normal -1.000000e+000  0.000000e+000  0.000000e+000
    outer loop
      vertex -3.339695e+001  2.267973e+000  5.000000e+000
      vertex -3.339695e+001  1.156087e+001  7.207107e+000
      vertex -3.339695e+001  1.126797e+001  6.500000e+000
    endloop
  endfacet
  facet normal -9.999999e-001  0.000000e+000  -0.000000e+000
    outer loop
      vertex -3.339695e+001  2.267973e+000  5.000000e+000
      vertex -3.339695e+001  1.126797e+001  6.500000e+000
      vertex -3.339695e+001  1.156087e+001  5.792893e+000
    endloop
  endfacet
  facet normal -1.000000e+000  0.000000e+000  -0.000000e+000
    outer loop
      vertex -3.339695e+001  2.267973e+000  5.000000e+000
      vertex -3.339695e+001  1.156087e+001  5.792893e+000
      vertex -3.339695e+001  1.226797e+001  5.500000e+000
    endloop
  endfacet
  facet normal -1.000000e+000  0.000000e+000  -0.000000e+000
    outer loop
      vertex -3.339695e+001  2.267973e+000  5.000000e+000
      vertex -3.339695e+001  1.226797e+001  5.500000e+000
      vertex -3.339695e+001  2.226797e+001  5.000000e+000
    endloop
  endfacet
  facet normal -1.000000e+000  0.000000e+000  0.000000e+000
    outer loop
      vertex -3.339695e+001  2.226797e+001  3.280000e+001
      vertex -3.339695e+001  1.856797e+001  3.280000e+001
      vertex -3.339695e+001  1.226797e+001  3.430000e+001
    endloop
  endfacet
  facet normal -1.000000e+000  0.000000e+000  0.000000e+000
    outer loop
      vertex -3.339695e+001  2.226797e+001  3.280000e+001
      vertex -3.339695e+001  1.226797e+001  3.430000e+001
      vertex -3.339695e+001  1.297508e+001  3.459289e+001
    endloop
  endfacet
  facet normal -9.999999e-001  0.000000e+000  0.000000e+000
    outer loop
      vertex -3.339695e+001  2.226797e+001  3.280000e+001
      vertex -3.339695e+001  1.297508e+001  3.459289e+001
      vertex -3.339695e+001  1.326797e+001  3.530000e+001
    endloop
  endfacet
  facet normal -1.000000e+000  0.000000e+000  0.000000e+000
    outer loop
      vertex -3.339695e+001  2.226797e+001  3.280000e+001
      vertex -3.339695e+001  1.326797e+001  3.530000e+001
      vertex -3.339695e+001  2.159810e+001  3.530000e+001
    endloop
  endfacet
  facet normal -1.000000e+000  0.000000e+000  0.000000e+000
    outer loop
      vertex -3.339695e+001  2.226797e+001  5.000000e+000
      vertex -3.339695e+001  1.226797e+001  5.500000e+000
      vertex -3.339695e+001  1.297508e+001  5.792893e+000
    endloop
  endfacet
  facet normal -9.999999e-001  0.000000e+000  0.000000e+000
    outer loop
      vertex -3.339695e+001  2.226797e+001  5.000000e+000
      vertex -3.339695e+001  1.297508e+001  5.792893e+000
      vertex -3.339695e+001  1.326797e+001  6.500000e+000
    endloop
  endfacet
  facet normal -1.000000e+000  0.000000e+000  0.000000e+000
    outer loop
      vertex -3.339695e+001  2.226797e+001  5.000000e+000
      vertex -3.339695e+001  1.326797e+001  6.500000e+000
      vertex -3.339695e+001  1.297508e+001  7.207107e+000
    endloop
  endfacet
  facet normal -1.000000e+000  0.000000e+000  0.000000e+000
    outer loop
      vertex -3.339695e+001  2.226797e+001  5.000000e+000
      vertex -3.339695e+001  1.297508e+001  7.207107e+000
      vertex -3.339695e+001  1.226797e+001  7.500000e+000
    endloop
  endfacet
  facet normal -1.000000e+000  0.000000e+000  -0.000000e+000
    outer loop
      vertex -3.339695e+001  2.937846e+000  3.530000e+001
      vertex -3.339695e+001  4.767973e+000  3.713013e+001
      vertex -3.339695e+001  1.226797e+001  3.630000e+001
    endloop
  endfacet
  facet normal -1.000000e+000  0.000000e+000  0.000000e+000
    outer loop
      vertex -3.339695e+001  1.226797e+001  3.630000e+001
      vertex -3.339695e+001  4.767973e+000  3.713013e+001
      vertex -3.339695e+001  7.267973e+000  3.780000e+001
    endloop
  endfacet
  facet normal -1.000000e+000  0.000000e+000  0.000000e+000
    outer loop
      vertex -3.339695e+001  1.226797e+001  3.630000e+001
      vertex -3.339695e+001  7.267973e+000  3.780000e+001
      vertex -3.339695e+001  1.976797e+001  3.713013e+001
    endloop
  endfacet
  facet normal -1.000000e+000  0.000000e+000  0.000000e+000
    outer loop
      vertex -3.339695e+001  1.976797e+001  3.713013e+001
      vertex -3.339695e+001  7.267973e+000  3.780000e+001
      vertex -3.339695e+001  1.726797e+001  3.780000e+001
    endloop
  endfacet
  facet normal -1.000000e+000  0.000000e+000  0.000000e+000
    outer loop
      vertex -3.339695e+001  1.226797e+001  3.630000e+001
      vertex -3.339695e+001  1.976797e+001  3.713013e+001
      vertex -3.339695e+001  1.297508e+001  3.600711e+001
    endloop
  endfacet
  facet normal -1.000000e+000  0.000000e+000  0.000000e+000
    outer loop
      vertex -3.339695e+001  1.297508e+001  3.600711e+001
      vertex -3.339695e+001  1.976797e+001  3.713013e+001
      vertex -3.339695e+001  2.159810e+001  3.530000e+001
    endloop
  endfacet
  facet normal -1.000000e+000  0.000000e+000  0.000000e+000
    outer loop
      vertex -3.339695e+001  1.297508e+001  3.600711e+001
      vertex -3.339695e+001  2.159810e+001  3.530000e+001
      vertex -3.339695e+001  1.326797e+001  3.530000e+001
    endloop
  endfacet
  facet normal -9.999999e-001  -0.000000e+000  0.000000e+000
    outer loop
      vertex -3.339695e+001  2.937846e+000  3.530000e+001
      vertex -3.339695e+001  1.126797e+001  3.530000e+001
      vertex -3.339695e+001  2.267973e+000  3.280000e+001
    endloop
  endfacet
  facet normal -9.999999e-001  0.000000e+000  0.000000e+000
    outer loop
      vertex -3.339695e+001  2.267973e+000  3.280000e+001
      vertex -3.339695e+001  1.126797e+001  3.530000e+001
      vertex -3.339695e+001  1.156087e+001  3.459289e+001
    endloop
  endfacet
  facet normal -1.000000e+000  0.000000e+000  0.000000e+000
    outer loop
      vertex -3.339695e+001  2.267973e+000  3.280000e+001
      vertex -3.339695e+001  1.156087e+001  3.459289e+001
      vertex -3.339695e+001  5.967973e+000  3.280000e+001
    endloop
  endfacet
  facet normal -1.000000e+000  0.000000e+000  0.000000e+000
    outer loop
      vertex -3.339695e+001  5.967973e+000  3.280000e+001
      vertex -3.339695e+001  1.156087e+001  3.459289e+001
      vertex -3.339695e+001  1.226797e+001  3.430000e+001
    endloop
  endfacet
  facet normal -1.000000e+000  0.000000e+000  -0.000000e+000
    outer loop
      vertex -3.339695e+001  5.967973e+000  3.280000e+001
      vertex -3.339695e+001  1.226797e+001  3.430000e+001
      vertex -3.339695e+001  1.856797e+001  3.280000e+001
    endloop
  endfacet
  facet normal  -0.000000e+000 -9.238794e-001 -3.826837e-001
    outer loop
      vertex -3.339695e+001  1.326797e+001  6.500000e+000
      vertex -2.939695e+001  1.326797e+001  6.500000e+000
      vertex -3.339695e+001  1.297508e+001  7.207107e+000
    endloop
  endfacet
  facet normal  0.000000e+000 -9.238794e-001 -3.826837e-001
    outer loop
      vertex -3.339695e+001  1.297508e+001  7.207107e+000
      vertex -2.939695e+001  1.326797e+001  6.500000e+000
      vertex -2.939695e+001  1.297508e+001  7.207107e+000
    endloop
  endfacet
  facet normal  -0.000000e+000 -3.826837e-001 -9.238794e-001
    outer loop
      vertex -3.339695e+001  1.297508e+001  7.207107e+000
      vertex -2.939695e+001  1.297508e+001  7.207107e+000
      vertex -3.339695e+001  1.226797e+001  7.500000e+000
    endloop
  endfacet
  facet normal  0.000000e+000 -3.826837e-001 -9.238794e-001
    outer loop
      vertex -3.339695e+001  1.226797e+001  7.500000e+000
      vertex -2.939695e+001  1.297508e+001  7.207107e+000
      vertex -2.939695e+001  1.226797e+001  7.500000e+000
    endloop
  endfacet
  facet normal  0.000000e+000  3.826837e-001 -9.238794e-001
    outer loop
      vertex -3.339695e+001  1.226797e+001  7.500000e+000
      vertex -2.939695e+001  1.226797e+001  7.500000e+000
      vertex -3.339695e+001  1.156087e+001  7.207107e+000
    endloop
  endfacet
  facet normal  0.000000e+000  3.826837e-001 -9.238794e-001
    outer loop
      vertex -3.339695e+001  1.156087e+001  7.207107e+000
      vertex -2.939695e+001  1.226797e+001  7.500000e+000
      vertex -2.939695e+001  1.156087e+001  7.207107e+000
    endloop
  endfacet
  facet normal  0.000000e+000  9.238794e-001 -3.826837e-001
    outer loop
      vertex -3.339695e+001  1.156087e+001  7.207107e+000
      vertex -2.939695e+001  1.156087e+001  7.207107e+000
      vertex -3.339695e+001  1.126797e+001  6.500000e+000
    endloop
  endfacet
  facet normal  0.000000e+000  9.238794e-001 -3.826837e-001
    outer loop
      vertex -3.339695e+001  1.126797e+001  6.500000e+000
      vertex -2.939695e+001  1.156087e+001  7.207107e+000
      vertex -2.939695e+001  1.126797e+001  6.500000e+000
    endloop
  endfacet
  facet normal  -0.000000e+000 -9.238796e-001 -3.826833e-001
    outer loop
      vertex -3.339695e+001  1.326797e+001  3.530000e+001
      vertex -2.939695e+001  1.326797e+001  3.530000e+001
      vertex -3.339695e+001  1.297508e+001  3.600711e+001
    endloop
  endfacet
  facet normal  0.000000e+000 -9.238796e-001 -3.826833e-001
    outer loop
      vertex -3.339695e+001  1.297508e+001  3.600711e+001
      vertex -2.939695e+001  1.326797e+001  3.530000e+001
      vertex -2.939695e+001  1.297508e+001  3.600711e+001
    endloop
  endfacet
  facet normal  -0.000000e+000 -3.826827e-001 -9.238798e-001
    outer loop
      vertex -3.339695e+001  1.297508e+001  3.600711e+001
      vertex -2.939695e+001  1.297508e+001  3.600711e+001
      vertex -3.339695e+001  1.226797e+001  3.630000e+001
    endloop
  endfacet
  facet normal  0.000000e+000 -3.826827e-001 -9.238798e-001
    outer loop
      vertex -3.339695e+001  1.226797e+001  3.630000e+001
      vertex -2.939695e+001  1.297508e+001  3.600711e+001
      vertex -2.939695e+001  1.226797e+001  3.630000e+001
    endloop
  endfacet
  facet normal  0.000000e+000  3.826827e-001 -9.238798e-001
    outer loop
      vertex -3.339695e+001  1.226797e+001  3.630000e+001
      vertex -2.939695e+001  1.226797e+001  3.630000e+001
      vertex -3.339695e+001  1.156087e+001  3.600711e+001
    endloop
  endfacet
  facet normal  0.000000e+000  3.826827e-001 -9.238798e-001
    outer loop
      vertex -3.339695e+001  1.156087e+001  3.600711e+001
      vertex -2.939695e+001  1.226797e+001  3.630000e+001
      vertex -2.939695e+001  1.156087e+001  3.600711e+001
    endloop
  endfacet
  facet normal  0.000000e+000  9.238796e-001 -3.826833e-001
    outer loop
      vertex -3.339695e+001  1.156087e+001  3.600711e+001
      vertex -2.939695e+001  1.156087e+001  3.600711e+001
      vertex -3.339695e+001  1.126797e+001  3.530000e+001
    endloop
  endfacet
  facet normal  0.000000e+000  9.238796e-001 -3.826833e-001
    outer loop
      vertex -3.339695e+001  1.126797e+001  3.530000e+001
      vertex -2.939695e+001  1.156087e+001  3.600711e+001
      vertex -2.939695e+001  1.126797e+001  3.530000e+001
    endloop
  endfacet
  facet normal  0.000000e+000  9.238796e-001  3.826833e-001
    outer loop
      vertex -3.339695e+001  1.126797e+001  3.530000e+001
      vertex -2.939695e+001  1.126797e+001  3.530000e+001
      vertex -3.339695e+001  1.156087e+001  3.459289e+001
    endloop
  endfacet
  facet normal  -0.000000e+000  9.238796e-001  3.826833e-001
    outer loop
      vertex -3.339695e+001  1.156087e+001  3.459289e+001
      vertex -2.939695e+001  1.126797e+001  3.530000e+001
      vertex -2.939695e+001  1.156087e+001  3.459289e+001
    endloop
  endfacet
  facet normal  0.000000e+000  3.826827e-001  9.238798e-001
    outer loop
      vertex -3.339695e+001  1.156087e+001  3.459289e+001
      vertex -2.939695e+001  1.156087e+001  3.459289e+001
      vertex -3.339695e+001  1.226797e+001  3.430000e+001
    endloop
  endfacet
  facet normal  -0.000000e+000  3.826827e-001  9.238798e-001
    outer loop
      vertex -3.339695e+001  1.226797e+001  3.430000e+001
      vertex -2.939695e+001  1.156087e+001  3.459289e+001
      vertex -2.939695e+001  1.226797e+001  3.430000e+001
    endloop
  endfacet
  facet normal  0.000000e+000 -3.826827e-001  9.238798e-001
    outer loop
      vertex -3.339695e+001  1.226797e+001  3.430000e+001
      vertex -2.939695e+001  1.226797e+001  3.430000e+001
      vertex -3.339695e+001  1.297508e+001  3.459289e+001
    endloop
  endfacet
  facet normal  0.000000e+000 -3.826827e-001  9.238798e-001
    outer loop
      vertex -3.339695e+001  1.297508e+001  3.459289e+001
      vertex -2.939695e+001  1.226797e+001  3.430000e+001
      vertex -2.939695e+001  1.297508e+001  3.459289e+001
    endloop
  endfacet
  facet normal  0.000000e+000 -9.238796e-001  3.826833e-001
    outer loop
      vertex -3.339695e+001  1.297508e+001  3.459289e+001
      vertex -2.939695e+001  1.297508e+001  3.459289e+001
      vertex -3.339695e+001  1.326797e+001  3.530000e+001
    endloop
  endfacet
  facet normal  0.000000e+000 -9.238796e-001  3.826833e-001
    outer loop
      vertex -3.339695e+001  1.326797e+001  3.530000e+001
      vertex -2.939695e+001  1.297508e+001  3.459289e+001
      vertex -2.939695e+001  1.326797e+001  3.530000e+001
    endloop
  endfacet
  facet normal  2.635459e-003 -9.999965e-001  0.000000e+000
    outer loop
      vertex  4.561622e+001  2.465667e+000  0.000000e+000
      vertex  4.561622e+001  2.465667e+000  4.000000e+000
      vertex  3.697181e+001  2.442885e+000  0.000000e+000
    endloop
  endfacet
  facet normal  2.635459e-003 -9.999965e-001  0.000000e+000
    outer loop
      vertex  3.697181e+001  2.442885e+000  0.000000e+000
      vertex  4.561622e+001  2.465667e+000  4.000000e+000
      vertex  3.697181e+001  2.442885e+000  4.000000e+000
    endloop
  endfacet
  facet normal -5.962465e-001 -8.028013e-001  0.000000e+000
    outer loop
      vertex  3.319355e+001  4.152860e+000  4.000000e+000
      vertex  3.319355e+001  4.152860e+000  0.000000e+000
      vertex  3.489703e+001  2.887673e+000  4.000000e+000
    endloop
  endfacet
  facet normal -5.962465e-001 -8.028013e-001  -0.000000e+000
    outer loop
      vertex  3.489703e+001  2.887673e+000  4.000000e+000
      vertex  3.319355e+001  4.152860e+000  0.000000e+000
      vertex  3.489703e+001  2.887673e+000  0.000000e+000
    endloop
  endfacet
  facet normal -2.096159e-001 -9.777837e-001  0.000000e+000
    outer loop
      vertex  3.489703e+001  2.887673e+000  4.000000e+000
      vertex  3.489703e+001  2.887673e+000  0.000000e+000
      vertex  3.697181e+001  2.442885e+000  4.000000e+000
    endloop
  endfacet
  facet normal -2.096159e-001 -9.777837e-001  -0.000000e+000
    outer loop
      vertex  3.697181e+001  2.442885e+000  4.000000e+000
      vertex  3.489703e+001  2.887673e+000  0.000000e+000
      vertex  3.697181e+001  2.442885e+000  0.000000e+000
    endloop
  endfacet
  facet normal  1.000000e+000  0.000000e+000  0.000000e+000
    outer loop
      vertex  5.060305e+001  7.465650e+000  4.000000e+000
      vertex  5.060305e+001  7.465650e+000  0.000000e+000
      vertex  5.060305e+001  1.726797e+001  4.000000e+000
    endloop
  endfacet
  facet normal  1.000000e+000  0.000000e+000  0.000000e+000
    outer loop
      vertex  5.060305e+001  1.726797e+001  4.000000e+000
      vertex  5.060305e+001  7.465650e+000  0.000000e+000
      vertex  5.060305e+001  1.726797e+001  0.000000e+000
    endloop
  endfacet
  facet normal  9.660394e-001 -2.583949e-001  0.000000e+000
    outer loop
      vertex  5.060305e+001  7.465650e+000  0.000000e+000
      vertex  5.060305e+001  7.465650e+000  4.000000e+000
      vertex  4.993537e+001  4.969454e+000  0.000000e+000
    endloop
  endfacet
  facet normal  9.660394e-001 -2.583949e-001  0.000000e+000
    outer loop
      vertex  4.993537e+001  4.969454e+000  0.000000e+000
      vertex  5.060305e+001  7.465650e+000  4.000000e+000
      vertex  4.993537e+001  4.969454e+000  4.000000e+000
    endloop
  endfacet
  facet normal  7.080377e-001 -7.061746e-001  0.000000e+000
    outer loop
      vertex  4.993537e+001  4.969454e+000  0.000000e+000
      vertex  4.993537e+001  4.969454e+000  4.000000e+000
      vertex  4.811065e+001  3.139922e+000  0.000000e+000
    endloop
  endfacet
  facet normal  7.080377e-001 -7.061746e-001  0.000000e+000
    outer loop
      vertex  4.811065e+001  3.139922e+000  0.000000e+000
      vertex  4.993537e+001  4.969454e+000  4.000000e+000
      vertex  4.811065e+001  3.139922e+000  4.000000e+000
    endloop
  endfacet
  facet normal  2.609398e-001 -9.653551e-001  0.000000e+000
    outer loop
      vertex  4.811065e+001  3.139922e+000  0.000000e+000
      vertex  4.811065e+001  3.139922e+000  4.000000e+000
      vertex  4.561622e+001  2.465667e+000  0.000000e+000
    endloop
  endfacet
  facet normal  2.609398e-001 -9.653551e-001  0.000000e+000
    outer loop
      vertex  4.561622e+001  2.465667e+000  0.000000e+000
      vertex  4.811065e+001  3.139922e+000  4.000000e+000
      vertex  4.561622e+001  2.465667e+000  4.000000e+000
    endloop
  endfacet
  facet normal  2.588188e-001  9.659259e-001  0.000000e+000
    outer loop
      vertex  4.560305e+001  2.226797e+001  0.000000e+000
      vertex  4.560305e+001  2.226797e+001  4.000000e+000
      vertex  4.810305e+001  2.159810e+001  0.000000e+000
    endloop
  endfacet
  facet normal  2.588188e-001  9.659259e-001  -0.000000e+000
    outer loop
      vertex  4.810305e+001  2.159810e+001  0.000000e+000
      vertex  4.560305e+001  2.226797e+001  4.000000e+000
      vertex  4.810305e+001  2.159810e+001  4.000000e+000
    endloop
  endfacet
  facet normal  7.071068e-001  7.071068e-001  0.000000e+000
    outer loop
      vertex  4.810305e+001  2.159810e+001  0.000000e+000
      vertex  4.810305e+001  2.159810e+001  4.000000e+000
      vertex  4.993317e+001  1.976797e+001  0.000000e+000
    endloop
  endfacet
  facet normal  7.071068e-001  7.071068e-001  -0.000000e+000
    outer loop
      vertex  4.993317e+001  1.976797e+001  0.000000e+000
      vertex  4.810305e+001  2.159810e+001  4.000000e+000
      vertex  4.993317e+001  1.976797e+001  4.000000e+000
    endloop
  endfacet
  facet normal  9.659259e-001  2.588188e-001  0.000000e+000
    outer loop
      vertex  4.993317e+001  1.976797e+001  0.000000e+000
      vertex  4.993317e+001  1.976797e+001  4.000000e+000
      vertex  5.060305e+001  1.726797e+001  0.000000e+000
    endloop
  endfacet
  facet normal  9.659259e-001  2.588188e-001  -0.000000e+000
    outer loop
      vertex  5.060305e+001  1.726797e+001  0.000000e+000
      vertex  4.993317e+001  1.976797e+001  4.000000e+000
      vertex  5.060305e+001  1.726797e+001  4.000000e+000
    endloop
  endfacet
  facet normal  0.000000e+000  0.000000e+000  1.000000e+000
    outer loop
      vertex -3.339695e+001  7.267973e+000  3.780000e+001
      vertex -2.939695e+001  7.267973e+000  3.780000e+001
      vertex -3.339695e+001  1.726797e+001  3.780000e+001
    endloop
  endfacet
  facet normal  -0.000000e+000  0.000000e+000  1.000000e+000
    outer loop
      vertex -3.339695e+001  1.726797e+001  3.780000e+001
      vertex -2.939695e+001  7.267973e+000  3.780000e+001
      vertex -2.939695e+001  1.726797e+001  3.780000e+001
    endloop
  endfacet
  facet normal  0.000000e+000 -2.588188e-001  9.659259e-001
    outer loop
      vertex -2.939695e+001  7.267973e+000  3.780000e+001
      vertex -3.339695e+001  7.267973e+000  3.780000e+001
      vertex -2.939695e+001  4.767973e+000  3.713013e+001
    endloop
  endfacet
  facet normal  0.000000e+000 -2.588188e-001  9.659259e-001
    outer loop
      vertex -2.939695e+001  4.767973e+000  3.713013e+001
      vertex -3.339695e+001  7.267973e+000  3.780000e+001
      vertex -3.339695e+001  4.767973e+000  3.713013e+001
    endloop
  endfacet
  facet normal  0.000000e+000 -7.071069e-001  7.071066e-001
    outer loop
      vertex -2.939695e+001  4.767973e+000  3.713013e+001
      vertex -3.339695e+001  4.767973e+000  3.713013e+001
      vertex -2.939695e+001  2.937846e+000  3.530000e+001
    endloop
  endfacet
  facet normal  0.000000e+000 -7.071069e-001  7.071066e-001
    outer loop
      vertex -2.939695e+001  2.937846e+000  3.530000e+001
      vertex -3.339695e+001  4.767973e+000  3.713013e+001
      vertex -3.339695e+001  2.937846e+000  3.530000e+001
    endloop
  endfacet
  facet normal  0.000000e+000 -9.659258e-001  2.588190e-001
    outer loop
      vertex -2.939695e+001  2.937846e+000  3.530000e+001
      vertex -3.339695e+001  2.937846e+000  3.530000e+001
      vertex -2.939695e+001  2.267973e+000  3.280000e+001
    endloop
  endfacet
  facet normal  0.000000e+000 -9.659258e-001  2.588190e-001
    outer loop
      vertex -2.939695e+001  2.267973e+000  3.280000e+001
      vertex -3.339695e+001  2.937846e+000  3.530000e+001
      vertex -3.339695e+001  2.267973e+000  3.280000e+001
    endloop
  endfacet
  facet normal  -0.000000e+000  9.659259e-001  2.588188e-001
    outer loop
      vertex -2.939695e+001  2.226797e+001  3.280000e+001
      vertex -3.339695e+001  2.226797e+001  3.280000e+001
      vertex -2.939695e+001  2.159810e+001  3.530000e+001
    endloop
  endfacet
  facet normal  0.000000e+000  9.659259e-001  2.588188e-001
    outer loop
      vertex -2.939695e+001  2.159810e+001  3.530000e+001
      vertex -3.339695e+001  2.226797e+001  3.280000e+001
      vertex -3.339695e+001  2.159810e+001  3.530000e+001
    endloop
  endfacet
  facet normal  -0.000000e+000  7.071068e-001  7.071068e-001
    outer loop
      vertex -2.939695e+001  2.159810e+001  3.530000e+001
      vertex -3.339695e+001  2.159810e+001  3.530000e+001
      vertex -2.939695e+001  1.976797e+001  3.713013e+001
    endloop
  endfacet
  facet normal  0.000000e+000  7.071068e-001  7.071068e-001
    outer loop
      vertex -2.939695e+001  1.976797e+001  3.713013e+001
      vertex -3.339695e+001  2.159810e+001  3.530000e+001
      vertex -3.339695e+001  1.976797e+001  3.713013e+001
    endloop
  endfacet
  facet normal  -0.000000e+000  2.588188e-001  9.659259e-001
    outer loop
      vertex -2.939695e+001  1.976797e+001  3.713013e+001
      vertex -3.339695e+001  1.976797e+001  3.713013e+001
      vertex -2.939695e+001  1.726797e+001  3.780000e+001
    endloop
  endfacet
  facet normal  0.000000e+000  2.588188e-001  9.659259e-001
    outer loop
      vertex -2.939695e+001  1.726797e+001  3.780000e+001
      vertex -3.339695e+001  1.976797e+001  3.713013e+001
      vertex -3.339695e+001  1.726797e+001  3.780000e+001
    endloop
  endfacet
  facet normal -7.070917e-001  6.487209e-003 -7.070920e-001
    outer loop
      vertex -3.272708e+001  2.226797e+001  2.500000e+000
      vertex -3.089695e+001  2.226797e+001  6.698730e-001
      vertex -3.145399e+001  2.267973e+000  1.043418e+000
    endloop
  endfacet
  facet normal -4.164989e-001 -5.379652e-003 -9.091203e-001
    outer loop
      vertex -2.939695e+001  2.267973e+000  1.010205e-001
      vertex -3.145399e+001  2.267973e+000  1.043418e+000
      vertex -3.089695e+001  2.226797e+001  6.698730e-001
    endloop
  endfacet
  facet normal -2.588106e-001  8.061774e-003 -9.658944e-001
    outer loop
      vertex -2.939695e+001  2.267973e+000  1.010205e-001
      vertex -3.089695e+001  2.226797e+001  6.698730e-001
      vertex -2.839695e+001  2.226797e+001  0.000000e+000
    endloop
  endfacet
  facet normal -1.005090e-001  -0.000000e+000 -9.949361e-001
    outer loop
      vertex -2.939695e+001  2.267973e+000  1.010205e-001
      vertex -2.839695e+001  2.226797e+001  0.000000e+000
      vertex -2.839695e+001  2.270608e+000  0.000000e+000
    endloop
  endfacet
  facet normal -9.740661e-001  -0.000000e+000 -2.262636e-001
    outer loop
      vertex -3.339695e+001  2.267973e+000  5.000000e+000
      vertex -3.339695e+001  2.226797e+001  5.000000e+000
      vertex -3.288500e+001  2.267973e+000  2.796046e+000
    endloop
  endfacet
  facet normal -9.659189e-001  3.795850e-003 -2.588169e-001
    outer loop
      vertex -3.288500e+001  2.267973e+000  2.796046e+000
      vertex -3.339695e+001  2.226797e+001  5.000000e+000
      vertex -3.272708e+001  2.226797e+001  2.500000e+000
    endloop
  endfacet
  facet normal -7.745929e-001 -3.245525e-003 -6.324519e-001
    outer loop
      vertex -3.288500e+001  2.267973e+000  2.796046e+000
      vertex -3.272708e+001  2.226797e+001  2.500000e+000
      vertex -3.145399e+001  2.267973e+000  1.043418e+000
    endloop
  endfacet
  facet normal  -0.000000e+000  0.000000e+000  1.000000e+000
    outer loop
      vertex -2.939695e+001  1.856797e+001  9.000000e+000
      vertex -3.339695e+001  1.856797e+001  9.000000e+000
      vertex -2.939695e+001  5.967973e+000  9.000000e+000
    endloop
  endfacet
  facet normal  0.000000e+000  0.000000e+000  1.000000e+000
    outer loop
      vertex -2.939695e+001  5.967973e+000  9.000000e+000
      vertex -3.339695e+001  1.856797e+001  9.000000e+000
      vertex -3.339695e+001  5.967973e+000  9.000000e+000
    endloop
  endfacet
  facet normal  0.000000e+000  1.000000e+000  0.000000e+000
    outer loop
      vertex -2.939695e+001  5.967973e+000  9.000000e+000
      vertex -3.339695e+001  5.967973e+000  9.000000e+000
      vertex -2.939695e+001  5.967973e+000  3.280000e+001
    endloop
  endfacet
  facet normal  0.000000e+000  1.000000e+000  0.000000e+000
    outer loop
      vertex -2.939695e+001  5.967973e+000  3.280000e+001
      vertex -3.339695e+001  5.967973e+000  9.000000e+000
      vertex -3.339695e+001  5.967973e+000  3.280000e+001
    endloop
  endfacet
  facet normal  0.000000e+000  0.000000e+000 -1.000000e+000
    outer loop
      vertex -2.939695e+001  5.967973e+000  3.280000e+001
      vertex -3.339695e+001  5.967973e+000  3.280000e+001
      vertex -2.939695e+001  1.856797e+001  3.280000e+001
    endloop
  endfacet
  facet normal  -0.000000e+000  0.000000e+000 -1.000000e+000
    outer loop
      vertex -2.939695e+001  1.856797e+001  3.280000e+001
      vertex -3.339695e+001  5.967973e+000  3.280000e+001
      vertex -3.339695e+001  1.856797e+001  3.280000e+001
    endloop
  endfacet
  facet normal  0.000000e+000 -1.000000e+000  0.000000e+000
    outer loop
      vertex -2.939695e+001  1.856797e+001  3.280000e+001
      vertex -3.339695e+001  1.856797e+001  3.280000e+001
      vertex -2.939695e+001  1.856797e+001  9.000000e+000
    endloop
  endfacet
  facet normal  0.000000e+000 -1.000000e+000  0.000000e+000
    outer loop
      vertex -2.939695e+001  1.856797e+001  9.000000e+000
      vertex -3.339695e+001  1.856797e+001  3.280000e+001
      vertex -3.339695e+001  1.856797e+001  9.000000e+000
    endloop
  endfacet
  facet normal  9.510564e-001 -3.090176e-001  0.000000e+000
    outer loop
      vertex  3.910305e+001  1.226797e+001  4.000000e+000
      vertex  3.910305e+001  1.226797e+001  0.000000e+000
      vertex  3.977149e+001  1.432522e+001  4.000000e+000
    endloop
  endfacet
  facet normal  9.510564e-001 -3.090176e-001  0.000000e+000
    outer loop
      vertex  3.977149e+001  1.432522e+001  4.000000e+000
      vertex  3.910305e+001  1.226797e+001  0.000000e+000
      vertex  3.977149e+001  1.432522e+001  0.000000e+000
    endloop
  endfacet
  facet normal  5.877854e-001 -8.090169e-001  0.000000e+000
    outer loop
      vertex  3.977149e+001  1.432522e+001  4.000000e+000
      vertex  3.977149e+001  1.432522e+001  0.000000e+000
      vertex  4.152149e+001  1.559667e+001  4.000000e+000
    endloop
  endfacet
  facet normal  5.877854e-001 -8.090169e-001  0.000000e+000
    outer loop
      vertex  4.152149e+001  1.559667e+001  4.000000e+000
      vertex  3.977149e+001  1.432522e+001  0.000000e+000
      vertex  4.152149e+001  1.559667e+001  0.000000e+000
    endloop
  endfacet
  facet normal  0.000000e+000 -1.000000e+000  0.000000e+000
    outer loop
      vertex  4.152149e+001  1.559667e+001  4.000000e+000
      vertex  4.152149e+001  1.559667e+001  0.000000e+000
      vertex  4.368460e+001  1.559667e+001  4.000000e+000
    endloop
  endfacet
  facet normal  0.000000e+000 -1.000000e+000  -0.000000e+000
    outer loop
      vertex  4.368460e+001  1.559667e+001  4.000000e+000
      vertex  4.152149e+001  1.559667e+001  0.000000e+000
      vertex  4.368460e+001  1.559667e+001  0.000000e+000
    endloop
  endfacet
  facet normal -5.877854e-001 -8.090169e-001  0.000000e+000
    outer loop
      vertex  4.368460e+001  1.559667e+001  4.000000e+000
      vertex  4.368460e+001  1.559667e+001  0.000000e+000
      vertex  4.543460e+001  1.432522e+001  4.000000e+000
    endloop
  endfacet
  facet normal -5.877854e-001 -8.090169e-001  -0.000000e+000
    outer loop
      vertex  4.543460e+001  1.432522e+001  4.000000e+000
      vertex  4.368460e+001  1.559667e+001  0.000000e+000
      vertex  4.543460e+001  1.432522e+001  0.000000e+000
    endloop
  endfacet
  facet normal -9.510564e-001 -3.090176e-001  0.000000e+000
    outer loop
      vertex  4.543460e+001  1.432522e+001  4.000000e+000
      vertex  4.543460e+001  1.432522e+001  0.000000e+000
      vertex  4.610305e+001  1.226797e+001  4.000000e+000
    endloop
  endfacet
  facet normal -9.510564e-001 -3.090176e-001  -0.000000e+000
    outer loop
      vertex  4.610305e+001  1.226797e+001  4.000000e+000
      vertex  4.543460e+001  1.432522e+001  0.000000e+000
      vertex  4.610305e+001  1.226797e+001  0.000000e+000
    endloop
  endfacet
  facet normal -9.510564e-001  3.090176e-001  0.000000e+000
    outer loop
      vertex  4.610305e+001  1.226797e+001  4.000000e+000
      vertex  4.610305e+001  1.226797e+001  0.000000e+000
      vertex  4.543460e+001  1.021072e+001  4.000000e+000
    endloop
  endfacet
  facet normal -9.510564e-001  3.090176e-001  0.000000e+000
    outer loop
      vertex  4.543460e+001  1.021072e+001  4.000000e+000
      vertex  4.610305e+001  1.226797e+001  0.000000e+000
      vertex  4.543460e+001  1.021072e+001  0.000000e+000
    endloop
  endfacet
  facet normal -5.877851e-001  8.090170e-001  0.000000e+000
    outer loop
      vertex  4.543460e+001  1.021072e+001  4.000000e+000
      vertex  4.543460e+001  1.021072e+001  0.000000e+000
      vertex  4.368460e+001  8.939276e+000  4.000000e+000
    endloop
  endfacet
  facet normal -5.877851e-001  8.090170e-001  0.000000e+000
    outer loop
      vertex  4.368460e+001  8.939276e+000  4.000000e+000
      vertex  4.543460e+001  1.021072e+001  0.000000e+000
      vertex  4.368460e+001  8.939276e+000  0.000000e+000
    endloop
  endfacet
  facet normal  0.000000e+000  1.000000e+000  -0.000000e+000
    outer loop
      vertex  4.368460e+001  8.939276e+000  4.000000e+000
      vertex  4.368460e+001  8.939276e+000  0.000000e+000
      vertex  4.152149e+001  8.939276e+000  4.000000e+000
    endloop
  endfacet
  facet normal  0.000000e+000  1.000000e+000  0.000000e+000
    outer loop
      vertex  4.152149e+001  8.939276e+000  4.000000e+000
      vertex  4.368460e+001  8.939276e+000  0.000000e+000
      vertex  4.152149e+001  8.939276e+000  0.000000e+000
    endloop
  endfacet
  facet normal  5.877851e-001  8.090170e-001  -0.000000e+000
    outer loop
      vertex  4.152149e+001  8.939276e+000  4.000000e+000
      vertex  4.152149e+001  8.939276e+000  0.000000e+000
      vertex  3.977149e+001  1.021072e+001  4.000000e+000
    endloop
  endfacet
  facet normal  5.877851e-001  8.090170e-001  0.000000e+000
    outer loop
      vertex  3.977149e+001  1.021072e+001  4.000000e+000
      vertex  4.152149e+001  8.939276e+000  0.000000e+000
      vertex  3.977149e+001  1.021072e+001  0.000000e+000
    endloop
  endfacet
  facet normal  9.510564e-001  3.090176e-001  -0.000000e+000
    outer loop
      vertex  3.977149e+001  1.021072e+001  4.000000e+000
      vertex  3.977149e+001  1.021072e+001  0.000000e+000
      vertex  3.910305e+001  1.226797e+001  4.000000e+000
    endloop
  endfacet
  facet normal  9.510564e-001  3.090176e-001  0.000000e+000
    outer loop
      vertex  3.910305e+001  1.226797e+001  4.000000e+000
      vertex  3.977149e+001  1.021072e+001  0.000000e+000
      vertex  3.910305e+001  1.226797e+001  0.000000e+000
    endloop
  endfacet
endsolid CATIA STL
