solid CATIA STL
  facet normal -2.024677e-001  0.000000e+000  9.792889e-001
    outer loop
      vertex -4.036895e+001 -1.229495e+001  4.000000e+000
      vertex -4.036895e+001 -4.809496e+001  4.000000e+000
      vertex -3.838620e+001 -1.350808e+001  4.409932e+000
    endloop
  endfacet
  facet normal -2.024677e-001  0.000000e+000  9.792889e-001
    outer loop
      vertex -3.838620e+001 -1.350808e+001  4.409932e+000
      vertex -4.036895e+001 -4.809496e+001  4.000000e+000
      vertex -3.838620e+001 -4.688182e+001  4.409932e+000
    endloop
  endfacet
  facet normal -5.177765e-001  0.000000e+000  8.555160e-001
    outer loop
      vertex -3.838620e+001 -1.350808e+001  4.409932e+000
      vertex -3.838620e+001 -4.688182e+001  4.409932e+000
      vertex -3.722210e+001 -1.408823e+001  5.114473e+000
    endloop
  endfacet
  facet normal -5.177764e-001  0.000000e+000  8.555160e-001
    outer loop
      vertex -3.722210e+001 -1.408823e+001  5.114473e+000
      vertex -3.838620e+001 -4.688182e+001  4.409932e+000
      vertex -3.722210e+001 -4.630168e+001  5.114473e+000
    endloop
  endfacet
  facet normal -7.201497e-001  0.000000e+000  6.938187e-001
    outer loop
      vertex -3.722210e+001 -1.408823e+001  5.114473e+000
      vertex -3.722210e+001 -4.630168e+001  5.114473e+000
      vertex -3.636895e+001 -1.429495e+001  6.000000e+000
    endloop
  endfacet
  facet normal -7.201497e-001  0.000000e+000  6.938187e-001
    outer loop
      vertex -3.636895e+001 -1.429495e+001  6.000000e+000
      vertex -3.722210e+001 -4.630168e+001  5.114473e+000
      vertex -3.636895e+001 -4.609496e+001  6.000000e+000
    endloop
  endfacet
  facet normal -8.857795e-001  0.000000e+000  4.641063e-001
    outer loop
      vertex -3.636895e+001 -1.429495e+001  6.000000e+000
      vertex -3.636895e+001 -4.609496e+001  6.000000e+000
      vertex -3.562553e+001 -1.429495e+001  7.418861e+000
    endloop
  endfacet
  facet normal -8.857795e-001  0.000000e+000  4.641063e-001
    outer loop
      vertex -3.562553e+001 -1.429495e+001  7.418861e+000
      vertex -3.636895e+001 -4.609496e+001  6.000000e+000
      vertex -3.562553e+001 -4.609496e+001  7.418861e+000
    endloop
  endfacet
  facet normal -9.870874e-001  0.000000e+000  1.601827e-001
    outer loop
      vertex -3.562553e+001 -1.429495e+001  7.418861e+000
      vertex -3.562553e+001 -4.609496e+001  7.418861e+000
      vertex -3.536895e+001 -1.429495e+001  9.000000e+000
    endloop
  endfacet
  facet normal -9.870874e-001  0.000000e+000  1.601827e-001
    outer loop
      vertex -3.536895e+001 -1.429495e+001  9.000000e+000
      vertex -3.562553e+001 -4.609496e+001  7.418861e+000
      vertex -3.536895e+001 -4.609496e+001  9.000000e+000
    endloop
  endfacet
  facet normal  0.000000e+000  0.000000e+000  1.000000e+000
    outer loop
      vertex -4.036895e+001 -1.229495e+001  4.000000e+000
      vertex -3.136895e+001 -1.229495e+001  4.000000e+000
      vertex -3.636895e+001 -1.179495e+001  4.000000e+000
    endloop
  endfacet
  facet normal  0.000000e+000  0.000000e+000  1.000000e+000
    outer loop
      vertex -4.036895e+001 -1.229495e+001  4.000000e+000
      vertex -3.636895e+001 -1.179495e+001  4.000000e+000
      vertex -5.636895e+001 -1.179495e+001  4.000000e+000
    endloop
  endfacet
  facet normal  0.000000e+000  0.000000e+000  1.000000e+000
    outer loop
      vertex -4.036895e+001 -1.229495e+001  4.000000e+000
      vertex -5.636895e+001 -1.179495e+001  4.000000e+000
      vertex -5.636895e+001 -4.859496e+001  4.000000e+000
    endloop
  endfacet
  facet normal  0.000000e+000  0.000000e+000  1.000000e+000
    outer loop
      vertex -4.036895e+001 -1.229495e+001  4.000000e+000
      vertex -5.636895e+001 -4.859496e+001  4.000000e+000
      vertex -4.036895e+001 -4.809496e+001  4.000000e+000
    endloop
  endfacet
  facet normal  0.000000e+000  0.000000e+000  1.000000e+000
    outer loop
      vertex -3.136895e+001 -1.019495e+001  4.000000e+000
      vertex -3.203882e+001 -7.694954e+000  4.000000e+000
      vertex -3.636895e+001 -8.594954e+000  4.000000e+000
    endloop
  endfacet
  facet normal  0.000000e+000  0.000000e+000  1.000000e+000
    outer loop
      vertex -3.136895e+001 -1.019495e+001  4.000000e+000
      vertex -3.636895e+001 -8.594954e+000  4.000000e+000
      vertex -3.523758e+001 -9.063583e+000  4.000000e+000
    endloop
  endfacet
  facet normal  0.000000e+000  0.000000e+000  1.000000e+000
    outer loop
      vertex -3.136895e+001 -1.019495e+001  4.000000e+000
      vertex -3.523758e+001 -9.063583e+000  4.000000e+000
      vertex -3.476895e+001 -1.019495e+001  4.000000e+000
    endloop
  endfacet
  facet normal  -0.000000e+000  0.000000e+000  1.000000e+000
    outer loop
      vertex -3.136895e+001 -1.019495e+001  4.000000e+000
      vertex -3.476895e+001 -1.019495e+001  4.000000e+000
      vertex -3.523758e+001 -1.132632e+001  4.000000e+000
    endloop
  endfacet
  facet normal  -0.000000e+000  0.000000e+000  1.000000e+000
    outer loop
      vertex -3.136895e+001 -1.019495e+001  4.000000e+000
      vertex -3.523758e+001 -1.132632e+001  4.000000e+000
      vertex -3.636895e+001 -1.179495e+001  4.000000e+000
    endloop
  endfacet
  facet normal  -0.000000e+000  0.000000e+000  9.999999e-001
    outer loop
      vertex -3.136895e+001 -1.019495e+001  4.000000e+000
      vertex -3.636895e+001 -1.179495e+001  4.000000e+000
      vertex -3.136895e+001 -1.229495e+001  4.000000e+000
    endloop
  endfacet
  facet normal  0.000000e+000  -0.000000e+000  1.000000e+000
    outer loop
      vertex -6.136895e+001 -5.019495e+001  4.000000e+000
      vertex -5.796895e+001 -5.019495e+001  4.000000e+000
      vertex -5.750032e+001 -4.906358e+001  4.000000e+000
    endloop
  endfacet
  facet normal  0.000000e+000  -0.000000e+000  1.000000e+000
    outer loop
      vertex -6.136895e+001 -5.019495e+001  4.000000e+000
      vertex -5.750032e+001 -4.906358e+001  4.000000e+000
      vertex -5.636895e+001 -4.859496e+001  4.000000e+000
    endloop
  endfacet
  facet normal  0.000000e+000  -0.000000e+000  1.000000e+000
    outer loop
      vertex -6.136895e+001 -5.019495e+001  4.000000e+000
      vertex -5.636895e+001 -4.859496e+001  4.000000e+000
      vertex -5.636895e+001 -1.179495e+001  4.000000e+000
    endloop
  endfacet
  facet normal  0.000000e+000  0.000000e+000  1.000000e+000
    outer loop
      vertex -6.136895e+001 -5.019495e+001  4.000000e+000
      vertex -5.636895e+001 -1.179495e+001  4.000000e+000
      vertex -5.750032e+001 -1.132632e+001  4.000000e+000
    endloop
  endfacet
  facet normal  0.000000e+000  0.000000e+000  1.000000e+000
    outer loop
      vertex -6.136895e+001 -5.019495e+001  4.000000e+000
      vertex -5.750032e+001 -1.132632e+001  4.000000e+000
      vertex -5.796895e+001 -1.019495e+001  4.000000e+000
    endloop
  endfacet
  facet normal  0.000000e+000  0.000000e+000  1.000000e+000
    outer loop
      vertex -6.136895e+001 -5.019495e+001  4.000000e+000
      vertex -5.796895e+001 -1.019495e+001  4.000000e+000
      vertex -6.136895e+001 -1.019495e+001  4.000000e+000
    endloop
  endfacet
  facet normal  -0.000000e+000  -0.000000e+000  1.000000e+000
    outer loop
      vertex -6.069908e+001 -5.269495e+001  4.000000e+000
      vertex -5.886895e+001 -5.452508e+001  4.000000e+000
      vertex -5.636895e+001 -5.519495e+001  4.000000e+000
    endloop
  endfacet
  facet normal  0.000000e+000  -0.000000e+000  1.000000e+000
    outer loop
      vertex -6.069908e+001 -5.269495e+001  4.000000e+000
      vertex -5.636895e+001 -5.519495e+001  4.000000e+000
      vertex -5.636895e+001 -5.179495e+001  4.000000e+000
    endloop
  endfacet
  facet normal  0.000000e+000  0.000000e+000  1.000000e+000
    outer loop
      vertex -6.069908e+001 -5.269495e+001  4.000000e+000
      vertex -5.636895e+001 -5.179495e+001  4.000000e+000
      vertex -5.750032e+001 -5.132632e+001  4.000000e+000
    endloop
  endfacet
  facet normal  0.000000e+000  0.000000e+000  1.000000e+000
    outer loop
      vertex -6.069908e+001 -5.269495e+001  4.000000e+000
      vertex -5.750032e+001 -5.132632e+001  4.000000e+000
      vertex -5.796895e+001 -5.019495e+001  4.000000e+000
    endloop
  endfacet
  facet normal  0.000000e+000  0.000000e+000  1.000000e+000
    outer loop
      vertex -6.069908e+001 -5.269495e+001  4.000000e+000
      vertex -5.796895e+001 -5.019495e+001  4.000000e+000
      vertex -6.136895e+001 -5.019495e+001  4.000000e+000
    endloop
  endfacet
  facet normal  0.000000e+000  0.000000e+000  1.000000e+000
    outer loop
      vertex -4.036895e+001 -4.809496e+001  4.000000e+000
      vertex -5.636895e+001 -4.859496e+001  4.000000e+000
      vertex -3.136895e+001 -4.809496e+001  4.000000e+000
    endloop
  endfacet
  facet normal  0.000000e+000  0.000000e+000  1.000000e+000
    outer loop
      vertex -3.136895e+001 -4.809496e+001  4.000000e+000
      vertex -5.636895e+001 -4.859496e+001  4.000000e+000
      vertex -3.636895e+001 -4.859496e+001  4.000000e+000
    endloop
  endfacet
  facet normal  -0.000000e+000  0.000000e+000  1.000000e+000
    outer loop
      vertex -3.136895e+001 -4.809496e+001  4.000000e+000
      vertex -3.636895e+001 -4.859496e+001  4.000000e+000
      vertex -3.136895e+001 -5.019495e+001  4.000000e+000
    endloop
  endfacet
  facet normal  0.000000e+000  0.000000e+000  1.000000e+000
    outer loop
      vertex -3.136895e+001 -5.019495e+001  4.000000e+000
      vertex -3.636895e+001 -4.859496e+001  4.000000e+000
      vertex -3.523758e+001 -4.906358e+001  4.000000e+000
    endloop
  endfacet
  facet normal  0.000000e+000  0.000000e+000  1.000000e+000
    outer loop
      vertex -3.136895e+001 -5.019495e+001  4.000000e+000
      vertex -3.523758e+001 -4.906358e+001  4.000000e+000
      vertex -3.476895e+001 -5.019495e+001  4.000000e+000
    endloop
  endfacet
  facet normal  -0.000000e+000  0.000000e+000  1.000000e+000
    outer loop
      vertex -3.136895e+001 -5.019495e+001  4.000000e+000
      vertex -3.476895e+001 -5.019495e+001  4.000000e+000
      vertex -3.203882e+001 -5.269495e+001  4.000000e+000
    endloop
  endfacet
  facet normal  0.000000e+000  0.000000e+000  1.000000e+000
    outer loop
      vertex -3.203882e+001 -5.269495e+001  4.000000e+000
      vertex -3.476895e+001 -5.019495e+001  4.000000e+000
      vertex -3.523758e+001 -5.132632e+001  4.000000e+000
    endloop
  endfacet
  facet normal  0.000000e+000  0.000000e+000  1.000000e+000
    outer loop
      vertex -3.203882e+001 -5.269495e+001  4.000000e+000
      vertex -3.523758e+001 -5.132632e+001  4.000000e+000
      vertex -3.636895e+001 -5.179495e+001  4.000000e+000
    endloop
  endfacet
  facet normal  0.000000e+000  0.000000e+000  1.000000e+000
    outer loop
      vertex -5.636895e+001 -5.179495e+001  4.000000e+000
      vertex -5.636895e+001 -5.519495e+001  4.000000e+000
      vertex -3.636895e+001 -5.179495e+001  4.000000e+000
    endloop
  endfacet
  facet normal  0.000000e+000  0.000000e+000  1.000000e+000
    outer loop
      vertex -3.636895e+001 -5.179495e+001  4.000000e+000
      vertex -5.636895e+001 -5.519495e+001  4.000000e+000
      vertex -3.636895e+001 -5.519495e+001  4.000000e+000
    endloop
  endfacet
  facet normal  0.000000e+000  0.000000e+000  1.000000e+000
    outer loop
      vertex -3.636895e+001 -5.179495e+001  4.000000e+000
      vertex -3.636895e+001 -5.519495e+001  4.000000e+000
      vertex -3.203882e+001 -5.269495e+001  4.000000e+000
    endloop
  endfacet
  facet normal  0.000000e+000  0.000000e+000  1.000000e+000
    outer loop
      vertex -3.203882e+001 -5.269495e+001  4.000000e+000
      vertex -3.636895e+001 -5.519495e+001  4.000000e+000
      vertex -3.386895e+001 -5.452508e+001  4.000000e+000
    endloop
  endfacet
  facet normal  0.000000e+000  0.000000e+000  1.000000e+000
    outer loop
      vertex -3.203882e+001 -7.694954e+000  4.000000e+000
      vertex -3.386895e+001 -5.864827e+000  4.000000e+000
      vertex -3.636895e+001 -8.594954e+000  4.000000e+000
    endloop
  endfacet
  facet normal  0.000000e+000  0.000000e+000  1.000000e+000
    outer loop
      vertex -3.636895e+001 -8.594954e+000  4.000000e+000
      vertex -3.386895e+001 -5.864827e+000  4.000000e+000
      vertex -3.636895e+001 -5.194954e+000  4.000000e+000
    endloop
  endfacet
  facet normal  0.000000e+000  0.000000e+000  1.000000e+000
    outer loop
      vertex -3.636895e+001 -8.594954e+000  4.000000e+000
      vertex -3.636895e+001 -5.194954e+000  4.000000e+000
      vertex -5.636895e+001 -8.594954e+000  4.000000e+000
    endloop
  endfacet
  facet normal  0.000000e+000  0.000000e+000  1.000000e+000
    outer loop
      vertex -5.636895e+001 -8.594954e+000  4.000000e+000
      vertex -3.636895e+001 -5.194954e+000  4.000000e+000
      vertex -5.636895e+001 -5.194954e+000  4.000000e+000
    endloop
  endfacet
  facet normal  0.000000e+000  0.000000e+000  1.000000e+000
    outer loop
      vertex -5.636895e+001 -8.594954e+000  4.000000e+000
      vertex -5.636895e+001 -5.194954e+000  4.000000e+000
      vertex -6.069908e+001 -7.694954e+000  4.000000e+000
    endloop
  endfacet
  facet normal  0.000000e+000  0.000000e+000  1.000000e+000
    outer loop
      vertex -6.069908e+001 -7.694954e+000  4.000000e+000
      vertex -5.636895e+001 -5.194954e+000  4.000000e+000
      vertex -5.886895e+001 -5.864827e+000  4.000000e+000
    endloop
  endfacet
  facet normal  0.000000e+000  0.000000e+000  9.999999e-001
    outer loop
      vertex -5.636895e+001 -8.594954e+000  4.000000e+000
      vertex -6.069908e+001 -7.694954e+000  4.000000e+000
      vertex -5.750032e+001 -9.063583e+000  4.000000e+000
    endloop
  endfacet
  facet normal  0.000000e+000  0.000000e+000  1.000000e+000
    outer loop
      vertex -5.750032e+001 -9.063583e+000  4.000000e+000
      vertex -6.069908e+001 -7.694954e+000  4.000000e+000
      vertex -6.136895e+001 -1.019495e+001  4.000000e+000
    endloop
  endfacet
  facet normal  0.000000e+000  0.000000e+000  1.000000e+000
    outer loop
      vertex -5.750032e+001 -9.063583e+000  4.000000e+000
      vertex -6.136895e+001 -1.019495e+001  4.000000e+000
      vertex -5.796895e+001 -1.019495e+001  4.000000e+000
    endloop
  endfacet
  facet normal  -0.000000e+000  0.000000e+000  1.000000e+000
    outer loop
      vertex -3.636895e+001 -8.594954e+000  4.000000e+000
      vertex -5.636895e+001 -8.594954e+000  4.000000e+000
      vertex -3.750032e+001 -9.063583e+000  4.000000e+000
    endloop
  endfacet
  facet normal  0.000000e+000  0.000000e+000  1.000000e+000
    outer loop
      vertex -3.750032e+001 -9.063583e+000  4.000000e+000
      vertex -5.636895e+001 -8.594954e+000  4.000000e+000
      vertex -5.523758e+001 -9.063583e+000  4.000000e+000
    endloop
  endfacet
  facet normal  -0.000000e+000  0.000000e+000  1.000000e+000
    outer loop
      vertex -3.750032e+001 -9.063583e+000  4.000000e+000
      vertex -5.523758e+001 -9.063583e+000  4.000000e+000
      vertex -3.796895e+001 -1.019495e+001  4.000000e+000
    endloop
  endfacet
  facet normal  0.000000e+000  0.000000e+000  9.999999e-001
    outer loop
      vertex -3.796895e+001 -1.019495e+001  4.000000e+000
      vertex -5.523758e+001 -9.063583e+000  4.000000e+000
      vertex -5.476895e+001 -1.019495e+001  4.000000e+000
    endloop
  endfacet
  facet normal  -0.000000e+000  0.000000e+000  9.999999e-001
    outer loop
      vertex -3.796895e+001 -1.019495e+001  4.000000e+000
      vertex -5.476895e+001 -1.019495e+001  4.000000e+000
      vertex -3.750032e+001 -1.132632e+001  4.000000e+000
    endloop
  endfacet
  facet normal  0.000000e+000  0.000000e+000  1.000000e+000
    outer loop
      vertex -3.750032e+001 -1.132632e+001  4.000000e+000
      vertex -5.476895e+001 -1.019495e+001  4.000000e+000
      vertex -5.523758e+001 -1.132632e+001  4.000000e+000
    endloop
  endfacet
  facet normal  -0.000000e+000  0.000000e+000  1.000000e+000
    outer loop
      vertex -3.750032e+001 -1.132632e+001  4.000000e+000
      vertex -5.523758e+001 -1.132632e+001  4.000000e+000
      vertex -3.636895e+001 -1.179495e+001  4.000000e+000
    endloop
  endfacet
  facet normal  0.000000e+000  0.000000e+000  1.000000e+000
    outer loop
      vertex -3.636895e+001 -1.179495e+001  4.000000e+000
      vertex -5.523758e+001 -1.132632e+001  4.000000e+000
      vertex -5.636895e+001 -1.179495e+001  4.000000e+000
    endloop
  endfacet
  facet normal  -0.000000e+000  0.000000e+000  1.000000e+000
    outer loop
      vertex -3.636895e+001 -4.859496e+001  4.000000e+000
      vertex -5.636895e+001 -4.859496e+001  4.000000e+000
      vertex -3.750032e+001 -4.906358e+001  4.000000e+000
    endloop
  endfacet
  facet normal  0.000000e+000  0.000000e+000  1.000000e+000
    outer loop
      vertex -3.750032e+001 -4.906358e+001  4.000000e+000
      vertex -5.636895e+001 -4.859496e+001  4.000000e+000
      vertex -5.523758e+001 -4.906358e+001  4.000000e+000
    endloop
  endfacet
  facet normal  -0.000000e+000  0.000000e+000  1.000000e+000
    outer loop
      vertex -3.750032e+001 -4.906358e+001  4.000000e+000
      vertex -5.523758e+001 -4.906358e+001  4.000000e+000
      vertex -3.796895e+001 -5.019495e+001  4.000000e+000
    endloop
  endfacet
  facet normal  0.000000e+000  0.000000e+000  9.999999e-001
    outer loop
      vertex -3.796895e+001 -5.019495e+001  4.000000e+000
      vertex -5.523758e+001 -4.906358e+001  4.000000e+000
      vertex -5.476895e+001 -5.019495e+001  4.000000e+000
    endloop
  endfacet
  facet normal  -0.000000e+000  0.000000e+000  9.999999e-001
    outer loop
      vertex -3.796895e+001 -5.019495e+001  4.000000e+000
      vertex -5.476895e+001 -5.019495e+001  4.000000e+000
      vertex -3.750032e+001 -5.132632e+001  4.000000e+000
    endloop
  endfacet
  facet normal  0.000000e+000  0.000000e+000  1.000000e+000
    outer loop
      vertex -3.750032e+001 -5.132632e+001  4.000000e+000
      vertex -5.476895e+001 -5.019495e+001  4.000000e+000
      vertex -5.523758e+001 -5.132632e+001  4.000000e+000
    endloop
  endfacet
  facet normal  -0.000000e+000  0.000000e+000  1.000000e+000
    outer loop
      vertex -3.750032e+001 -5.132632e+001  4.000000e+000
      vertex -5.523758e+001 -5.132632e+001  4.000000e+000
      vertex -3.636895e+001 -5.179495e+001  4.000000e+000
    endloop
  endfacet
  facet normal  0.000000e+000  0.000000e+000  1.000000e+000
    outer loop
      vertex -3.636895e+001 -5.179495e+001  4.000000e+000
      vertex -5.523758e+001 -5.132632e+001  4.000000e+000
      vertex -5.636895e+001 -5.179495e+001  4.000000e+000
    endloop
  endfacet
  facet normal  0.000000e+000  1.000000e+000  0.000000e+000
    outer loop
      vertex -3.136895e+001 -1.429495e+001  6.000000e+000
      vertex -3.636895e+001 -1.429495e+001  6.000000e+000
      vertex -3.562553e+001 -1.429495e+001  7.418861e+000
    endloop
  endfacet
  facet normal  -0.000000e+000  1.000000e+000  0.000000e+000
    outer loop
      vertex -3.136895e+001 -1.429495e+001  6.000000e+000
      vertex -3.562553e+001 -1.429495e+001  7.418861e+000
      vertex -3.536895e+001 -1.429495e+001  9.000000e+000
    endloop
  endfacet
  facet normal  -0.000000e+000  1.000000e+000  0.000000e+000
    outer loop
      vertex -3.136895e+001 -1.429495e+001  6.000000e+000
      vertex -3.536895e+001 -1.429495e+001  9.000000e+000
      vertex -3.536895e+001 -1.429495e+001  2.900000e+001
    endloop
  endfacet
  facet normal  -0.000000e+000  1.000000e+000  0.000000e+000
    outer loop
      vertex -3.136895e+001 -1.429495e+001  6.000000e+000
      vertex -3.536895e+001 -1.429495e+001  2.900000e+001
      vertex -3.136895e+001 -1.429495e+001  2.900000e+001
    endloop
  endfacet
  facet normal  1.000000e+000  0.000000e+000  0.000000e+000
    outer loop
      vertex -3.136895e+001 -1.429495e+001  6.000000e+000
      vertex -3.136895e+001 -1.429495e+001  2.900000e+001
      vertex -3.136895e+001 -1.829495e+001  1.750000e+001
    endloop
  endfacet
  facet normal  1.000000e+000  0.000000e+000  0.000000e+000
    outer loop
      vertex -3.136895e+001 -1.429495e+001  6.000000e+000
      vertex -3.136895e+001 -1.829495e+001  1.750000e+001
      vertex -3.136895e+001 -4.668074e+001  4.585786e+000
    endloop
  endfacet
  facet normal  1.000000e+000  0.000000e+000  0.000000e+000
    outer loop
      vertex -3.136895e+001 -4.609496e+001  6.000000e+000
      vertex -3.136895e+001 -4.668074e+001  4.585786e+000
      vertex -3.136895e+001 -1.829495e+001  1.750000e+001
    endloop
  endfacet
  facet normal  1.000000e+000  0.000000e+000  0.000000e+000
    outer loop
      vertex -3.136895e+001 -4.609496e+001  6.000000e+000
      vertex -3.136895e+001 -1.829495e+001  1.750000e+001
      vertex -3.136895e+001 -4.209496e+001  1.750000e+001
    endloop
  endfacet
  facet normal  1.000000e+000  0.000000e+000  0.000000e+000
    outer loop
      vertex -3.136895e+001 -4.209496e+001  3.000000e+001
      vertex -3.136895e+001 -4.109496e+001  3.400000e+001
      vertex -3.136895e+001 -4.359496e+001  3.333013e+001
    endloop
  endfacet
  facet normal  1.000000e+000  0.000000e+000  0.000000e+000
    outer loop
      vertex -3.136895e+001 -1.829495e+001  3.000000e+001
      vertex -3.136895e+001 -1.829495e+001  1.750000e+001
      vertex -3.136895e+001 -1.429495e+001  2.900000e+001
    endloop
  endfacet
  facet normal  1.000000e+000  0.000000e+000  0.000000e+000
    outer loop
      vertex -3.136895e+001 -1.829495e+001  3.000000e+001
      vertex -3.136895e+001 -1.429495e+001  2.900000e+001
      vertex -3.136895e+001 -1.496483e+001  3.150000e+001
    endloop
  endfacet
  facet normal  1.000000e+000  0.000000e+000  0.000000e+000
    outer loop
      vertex -3.136895e+001 -1.829495e+001  3.000000e+001
      vertex -3.136895e+001 -1.496483e+001  3.150000e+001
      vertex -3.136895e+001 -1.679495e+001  3.333013e+001
    endloop
  endfacet
  facet normal  1.000000e+000  0.000000e+000  0.000000e+000
    outer loop
      vertex -3.136895e+001 -1.829495e+001  3.000000e+001
      vertex -3.136895e+001 -1.679495e+001  3.333013e+001
      vertex -3.136895e+001 -1.929495e+001  3.400000e+001
    endloop
  endfacet
  facet normal  9.999999e-001  0.000000e+000  0.000000e+000
    outer loop
      vertex -3.136895e+001 -1.829495e+001  3.000000e+001
      vertex -3.136895e+001 -1.929495e+001  3.400000e+001
      vertex -3.136895e+001 -4.109496e+001  3.400000e+001
    endloop
  endfacet
  facet normal  1.000000e+000  0.000000e+000  0.000000e+000
    outer loop
      vertex -3.136895e+001 -1.829495e+001  3.000000e+001
      vertex -3.136895e+001 -4.109496e+001  3.400000e+001
      vertex -3.136895e+001 -4.209496e+001  3.000000e+001
    endloop
  endfacet
  facet normal  1.000000e+000  0.000000e+000  0.000000e+000
    outer loop
      vertex -3.136895e+001 -1.019495e+001  0.000000e+000
      vertex -3.136895e+001 -1.019495e+001  4.000000e+000
      vertex -3.136895e+001 -1.229495e+001  4.000000e+000
    endloop
  endfacet
  facet normal  1.000000e+000  0.000000e+000  0.000000e+000
    outer loop
      vertex -3.136895e+001 -1.019495e+001  0.000000e+000
      vertex -3.136895e+001 -1.229495e+001  4.000000e+000
      vertex -3.136895e+001 -4.809496e+001  4.000000e+000
    endloop
  endfacet
  facet normal  1.000000e+000  0.000000e+000  0.000000e+000
    outer loop
      vertex -3.136895e+001 -1.019495e+001  0.000000e+000
      vertex -3.136895e+001 -4.809496e+001  4.000000e+000
      vertex -3.136895e+001 -5.019495e+001  4.000000e+000
    endloop
  endfacet
  facet normal  1.000000e+000  0.000000e+000  0.000000e+000
    outer loop
      vertex -3.136895e+001 -1.019495e+001  0.000000e+000
      vertex -3.136895e+001 -5.019495e+001  4.000000e+000
      vertex -3.136895e+001 -5.019495e+001  0.000000e+000
    endloop
  endfacet
  facet normal  1.000000e+000  0.000000e+000  0.000000e+000
    outer loop
      vertex -3.136895e+001 -4.609496e+001  2.900000e+001
      vertex -3.136895e+001 -4.609496e+001  6.000000e+000
      vertex -3.136895e+001 -4.209496e+001  1.750000e+001
    endloop
  endfacet
  facet normal  1.000000e+000  0.000000e+000  -0.000000e+000
    outer loop
      vertex -3.136895e+001 -4.609496e+001  2.900000e+001
      vertex -3.136895e+001 -4.209496e+001  1.750000e+001
      vertex -3.136895e+001 -4.209496e+001  3.000000e+001
    endloop
  endfacet
  facet normal  1.000000e+000  0.000000e+000  0.000000e+000
    outer loop
      vertex -3.136895e+001 -4.609496e+001  2.900000e+001
      vertex -3.136895e+001 -4.209496e+001  3.000000e+001
      vertex -3.136895e+001 -4.359496e+001  3.333013e+001
    endloop
  endfacet
  facet normal  9.999999e-001  0.000000e+000  0.000000e+000
    outer loop
      vertex -3.136895e+001 -4.609496e+001  2.900000e+001
      vertex -3.136895e+001 -4.359496e+001  3.333013e+001
      vertex -3.136895e+001 -4.542508e+001  3.150000e+001
    endloop
  endfacet
  facet normal  1.000000e+000  0.000000e+000  0.000000e+000
    outer loop
      vertex -3.136895e+001 -4.809496e+001  4.000000e+000
      vertex -3.136895e+001 -1.229495e+001  4.000000e+000
      vertex -3.136895e+001 -1.370917e+001  4.585786e+000
    endloop
  endfacet
  facet normal  1.000000e+000  0.000000e+000  0.000000e+000
    outer loop
      vertex -3.136895e+001 -4.809496e+001  4.000000e+000
      vertex -3.136895e+001 -1.370917e+001  4.585786e+000
      vertex -3.136895e+001 -1.429495e+001  6.000000e+000
    endloop
  endfacet
  facet normal  1.000000e+000  0.000000e+000  0.000000e+000
    outer loop
      vertex -3.136895e+001 -4.809496e+001  4.000000e+000
      vertex -3.136895e+001 -1.429495e+001  6.000000e+000
      vertex -3.136895e+001 -4.668074e+001  4.585786e+000
    endloop
  endfacet
  facet normal -1.000000e+000  0.000000e+000  0.000000e+000
    outer loop
      vertex -6.136895e+001 -1.019495e+001  4.000000e+000
      vertex -6.136895e+001 -1.019495e+001  0.000000e+000
      vertex -6.136895e+001 -5.019495e+001  4.000000e+000
    endloop
  endfacet
  facet normal -1.000000e+000  0.000000e+000  0.000000e+000
    outer loop
      vertex -6.136895e+001 -5.019495e+001  4.000000e+000
      vertex -6.136895e+001 -1.019495e+001  0.000000e+000
      vertex -6.136895e+001 -5.019495e+001  0.000000e+000
    endloop
  endfacet
  facet normal  0.000000e+000  9.738168e-001  2.273341e-001
    outer loop
      vertex -3.636895e+001 -1.429495e+001  6.000000e+000
      vertex -3.136895e+001 -1.429495e+001  6.000000e+000
      vertex -3.722210e+001 -1.408823e+001  5.114473e+000
    endloop
  endfacet
  facet normal -2.525858e-002  9.235847e-001  3.825615e-001
    outer loop
      vertex -3.722210e+001 -1.408823e+001  5.114473e+000
      vertex -3.136895e+001 -1.429495e+001  6.000000e+000
      vertex -3.136895e+001 -1.370917e+001  4.585786e+000
    endloop
  endfacet
  facet normal  6.502350e-003  7.771930e-001  6.292288e-001
    outer loop
      vertex -3.722210e+001 -1.408823e+001  5.114473e+000
      vertex -3.136895e+001 -1.370917e+001  4.585786e+000
      vertex -3.838620e+001 -1.350808e+001  4.409932e+000
    endloop
  endfacet
  facet normal  0.000000e+000  3.201299e-001  9.473736e-001
    outer loop
      vertex -4.036895e+001 -1.229495e+001  4.000000e+000
      vertex -3.838620e+001 -1.350808e+001  4.409932e+000
      vertex -3.136895e+001 -1.229495e+001  4.000000e+000
    endloop
  endfacet
  facet normal -1.218570e-002  3.826551e-001  9.238110e-001
    outer loop
      vertex -3.136895e+001 -1.229495e+001  4.000000e+000
      vertex -3.838620e+001 -1.350808e+001  4.409932e+000
      vertex -3.136895e+001 -1.370917e+001  4.585786e+000
    endloop
  endfacet
  facet normal  -0.000000e+000 -1.000000e+000  -0.000000e+000
    outer loop
      vertex -3.136895e+001 -4.609496e+001  6.000000e+000
      vertex -3.136895e+001 -4.609496e+001  2.900000e+001
      vertex -3.536895e+001 -4.609496e+001  2.900000e+001
    endloop
  endfacet
  facet normal  0.000000e+000 -1.000000e+000  0.000000e+000
    outer loop
      vertex -3.136895e+001 -4.609496e+001  6.000000e+000
      vertex -3.536895e+001 -4.609496e+001  2.900000e+001
      vertex -3.536895e+001 -4.609496e+001  9.000000e+000
    endloop
  endfacet
  facet normal  0.000000e+000 -1.000000e+000  -0.000000e+000
    outer loop
      vertex -3.136895e+001 -4.609496e+001  6.000000e+000
      vertex -3.536895e+001 -4.609496e+001  9.000000e+000
      vertex -3.562553e+001 -4.609496e+001  7.418861e+000
    endloop
  endfacet
  facet normal  0.000000e+000 -1.000000e+000  -0.000000e+000
    outer loop
      vertex -3.136895e+001 -4.609496e+001  6.000000e+000
      vertex -3.562553e+001 -4.609496e+001  7.418861e+000
      vertex -3.636895e+001 -4.609496e+001  6.000000e+000
    endloop
  endfacet
  facet normal  0.000000e+000 -3.201295e-001  9.473737e-001
    outer loop
      vertex -4.036895e+001 -4.809496e+001  4.000000e+000
      vertex -3.136895e+001 -4.809496e+001  4.000000e+000
      vertex -3.838620e+001 -4.688182e+001  4.409932e+000
    endloop
  endfacet
  facet normal -1.218572e-002 -3.826546e-001  9.238111e-001
    outer loop
      vertex -3.838620e+001 -4.688182e+001  4.409932e+000
      vertex -3.136895e+001 -4.809496e+001  4.000000e+000
      vertex -3.136895e+001 -4.668074e+001  4.585786e+000
    endloop
  endfacet
  facet normal  6.502382e-003 -7.771935e-001  6.292281e-001
    outer loop
      vertex -3.838620e+001 -4.688182e+001  4.409932e+000
      vertex -3.136895e+001 -4.668074e+001  4.585786e+000
      vertex -3.722210e+001 -4.630168e+001  5.114473e+000
    endloop
  endfacet
  facet normal  0.000000e+000 -9.238799e-001  3.826826e-001
    outer loop
      vertex -3.136895e+001 -4.609496e+001  6.000000e+000
      vertex -3.636895e+001 -4.609496e+001  6.000000e+000
      vertex -3.136895e+001 -4.668074e+001  4.585786e+000
    endloop
  endfacet
  facet normal -3.874038e-002 -9.641792e-001  2.624072e-001
    outer loop
      vertex -3.136895e+001 -4.668074e+001  4.585786e+000
      vertex -3.636895e+001 -4.609496e+001  6.000000e+000
      vertex -3.722210e+001 -4.630168e+001  5.114473e+000
    endloop
  endfacet
  facet normal -1.000000e+000  -0.000000e+000  0.000000e+000
    outer loop
      vertex -3.536895e+001 -4.209496e+001  3.000000e+001
      vertex -3.536895e+001 -4.209496e+001  1.750000e+001
      vertex -3.536895e+001 -4.609496e+001  9.000000e+000
    endloop
  endfacet
  facet normal -1.000000e+000  0.000000e+000  0.000000e+000
    outer loop
      vertex -3.536895e+001 -4.209496e+001  3.000000e+001
      vertex -3.536895e+001 -4.609496e+001  9.000000e+000
      vertex -3.536895e+001 -4.609496e+001  2.900000e+001
    endloop
  endfacet
  facet normal -1.000000e+000  0.000000e+000  0.000000e+000
    outer loop
      vertex -3.536895e+001 -4.209496e+001  3.000000e+001
      vertex -3.536895e+001 -4.609496e+001  2.900000e+001
      vertex -3.536895e+001 -4.542508e+001  3.150000e+001
    endloop
  endfacet
  facet normal -1.000000e+000  0.000000e+000  0.000000e+000
    outer loop
      vertex -3.536895e+001 -4.209496e+001  3.000000e+001
      vertex -3.536895e+001 -4.542508e+001  3.150000e+001
      vertex -3.536895e+001 -4.359496e+001  3.333013e+001
    endloop
  endfacet
  facet normal -1.000000e+000  0.000000e+000  0.000000e+000
    outer loop
      vertex -3.536895e+001 -4.209496e+001  3.000000e+001
      vertex -3.536895e+001 -4.359496e+001  3.333013e+001
      vertex -3.536895e+001 -4.109496e+001  3.400000e+001
    endloop
  endfacet
  facet normal -9.999999e-001  0.000000e+000  -0.000000e+000
    outer loop
      vertex -3.536895e+001 -4.209496e+001  3.000000e+001
      vertex -3.536895e+001 -4.109496e+001  3.400000e+001
      vertex -3.536895e+001 -1.929495e+001  3.400000e+001
    endloop
  endfacet
  facet normal -1.000000e+000  0.000000e+000  -0.000000e+000
    outer loop
      vertex -3.536895e+001 -4.209496e+001  3.000000e+001
      vertex -3.536895e+001 -1.929495e+001  3.400000e+001
      vertex -3.536895e+001 -1.829495e+001  3.000000e+001
    endloop
  endfacet
  facet normal -1.000000e+000  0.000000e+000  -0.000000e+000
    outer loop
      vertex -3.536895e+001 -4.609496e+001  9.000000e+000
      vertex -3.536895e+001 -4.209496e+001  1.750000e+001
      vertex -3.536895e+001 -1.429495e+001  9.000000e+000
    endloop
  endfacet
  facet normal -1.000000e+000  0.000000e+000  0.000000e+000
    outer loop
      vertex -3.536895e+001 -1.429495e+001  9.000000e+000
      vertex -3.536895e+001 -4.209496e+001  1.750000e+001
      vertex -3.536895e+001 -1.829495e+001  1.750000e+001
    endloop
  endfacet
  facet normal -1.000000e+000  0.000000e+000  0.000000e+000
    outer loop
      vertex -3.536895e+001 -1.429495e+001  9.000000e+000
      vertex -3.536895e+001 -1.829495e+001  1.750000e+001
      vertex -3.536895e+001 -1.429495e+001  2.900000e+001
    endloop
  endfacet
  facet normal -1.000000e+000  -0.000000e+000  0.000000e+000
    outer loop
      vertex -3.536895e+001 -1.429495e+001  2.900000e+001
      vertex -3.536895e+001 -1.829495e+001  1.750000e+001
      vertex -3.536895e+001 -1.829495e+001  3.000000e+001
    endloop
  endfacet
  facet normal -1.000000e+000  0.000000e+000  0.000000e+000
    outer loop
      vertex -3.536895e+001 -1.429495e+001  2.900000e+001
      vertex -3.536895e+001 -1.829495e+001  3.000000e+001
      vertex -3.536895e+001 -1.496483e+001  3.150000e+001
    endloop
  endfacet
  facet normal -1.000000e+000  -0.000000e+000  0.000000e+000
    outer loop
      vertex -3.536895e+001 -1.929495e+001  3.400000e+001
      vertex -3.536895e+001 -1.679495e+001  3.333013e+001
      vertex -3.536895e+001 -1.829495e+001  3.000000e+001
    endloop
  endfacet
  facet normal -1.000000e+000  0.000000e+000  0.000000e+000
    outer loop
      vertex -3.536895e+001 -1.829495e+001  3.000000e+001
      vertex -3.536895e+001 -1.679495e+001  3.333013e+001
      vertex -3.536895e+001 -1.496483e+001  3.150000e+001
    endloop
  endfacet
  facet normal  0.000000e+000 -1.000000e+000  -0.000000e+000
    outer loop
      vertex -3.636895e+001 -5.519495e+001  0.000000e+000
      vertex -3.636895e+001 -5.519495e+001  4.000000e+000
      vertex -5.636895e+001 -5.519495e+001  0.000000e+000
    endloop
  endfacet
  facet normal  0.000000e+000 -1.000000e+000  0.000000e+000
    outer loop
      vertex -5.636895e+001 -5.519495e+001  0.000000e+000
      vertex -3.636895e+001 -5.519495e+001  4.000000e+000
      vertex -5.636895e+001 -5.519495e+001  4.000000e+000
    endloop
  endfacet
  facet normal  0.000000e+000  1.000000e+000  0.000000e+000
    outer loop
      vertex -5.636895e+001 -5.194954e+000  0.000000e+000
      vertex -5.636895e+001 -5.194954e+000  4.000000e+000
      vertex -3.636895e+001 -5.194954e+000  0.000000e+000
    endloop
  endfacet
  facet normal  0.000000e+000  1.000000e+000  -0.000000e+000
    outer loop
      vertex -3.636895e+001 -5.194954e+000  0.000000e+000
      vertex -5.636895e+001 -5.194954e+000  4.000000e+000
      vertex -3.636895e+001 -5.194954e+000  4.000000e+000
    endloop
  endfacet
  facet normal  0.000000e+000  0.000000e+000 -1.000000e+000
    outer loop
      vertex -6.136895e+001 -5.019495e+001  0.000000e+000
      vertex -6.136895e+001 -1.019495e+001  0.000000e+000
      vertex -5.796895e+001 -1.019495e+001  0.000000e+000
    endloop
  endfacet
  facet normal  0.000000e+000  -0.000000e+000 -1.000000e+000
    outer loop
      vertex -6.136895e+001 -5.019495e+001  0.000000e+000
      vertex -5.796895e+001 -1.019495e+001  0.000000e+000
      vertex -5.750032e+001 -1.132632e+001  0.000000e+000
    endloop
  endfacet
  facet normal  0.000000e+000  -0.000000e+000 -1.000000e+000
    outer loop
      vertex -6.136895e+001 -5.019495e+001  0.000000e+000
      vertex -5.750032e+001 -1.132632e+001  0.000000e+000
      vertex -5.636895e+001 -1.179495e+001  0.000000e+000
    endloop
  endfacet
  facet normal  0.000000e+000  -0.000000e+000 -1.000000e+000
    outer loop
      vertex -6.136895e+001 -5.019495e+001  0.000000e+000
      vertex -5.636895e+001 -1.179495e+001  0.000000e+000
      vertex -5.636895e+001 -4.859496e+001  0.000000e+000
    endloop
  endfacet
  facet normal  0.000000e+000  0.000000e+000 -1.000000e+000
    outer loop
      vertex -6.136895e+001 -5.019495e+001  0.000000e+000
      vertex -5.636895e+001 -4.859496e+001  0.000000e+000
      vertex -5.750032e+001 -4.906358e+001  0.000000e+000
    endloop
  endfacet
  facet normal  0.000000e+000  0.000000e+000 -1.000000e+000
    outer loop
      vertex -6.136895e+001 -5.019495e+001  0.000000e+000
      vertex -5.750032e+001 -4.906358e+001  0.000000e+000
      vertex -5.796895e+001 -5.019495e+001  0.000000e+000
    endloop
  endfacet
  facet normal  0.000000e+000  0.000000e+000 -1.000000e+000
    outer loop
      vertex -6.069908e+001 -5.269495e+001  0.000000e+000
      vertex -6.136895e+001 -5.019495e+001  0.000000e+000
      vertex -5.796895e+001 -5.019495e+001  0.000000e+000
    endloop
  endfacet
  facet normal  0.000000e+000  -0.000000e+000 -1.000000e+000
    outer loop
      vertex -6.069908e+001 -5.269495e+001  0.000000e+000
      vertex -5.796895e+001 -5.019495e+001  0.000000e+000
      vertex -5.750032e+001 -5.132632e+001  0.000000e+000
    endloop
  endfacet
  facet normal  0.000000e+000  -0.000000e+000 -1.000000e+000
    outer loop
      vertex -6.069908e+001 -5.269495e+001  0.000000e+000
      vertex -5.750032e+001 -5.132632e+001  0.000000e+000
      vertex -5.636895e+001 -5.179495e+001  0.000000e+000
    endloop
  endfacet
  facet normal  0.000000e+000  -0.000000e+000 -1.000000e+000
    outer loop
      vertex -6.069908e+001 -5.269495e+001  0.000000e+000
      vertex -5.636895e+001 -5.179495e+001  0.000000e+000
      vertex -5.636895e+001 -5.519495e+001  0.000000e+000
    endloop
  endfacet
  facet normal  0.000000e+000  0.000000e+000 -1.000000e+000
    outer loop
      vertex -6.069908e+001 -5.269495e+001  0.000000e+000
      vertex -5.636895e+001 -5.519495e+001  0.000000e+000
      vertex -5.886895e+001 -5.452508e+001  0.000000e+000
    endloop
  endfacet
  facet normal  0.000000e+000  0.000000e+000 -1.000000e+000
    outer loop
      vertex -3.136895e+001 -5.019495e+001  0.000000e+000
      vertex -3.203882e+001 -5.269495e+001  0.000000e+000
      vertex -3.523758e+001 -5.132632e+001  0.000000e+000
    endloop
  endfacet
  facet normal  0.000000e+000  0.000000e+000 -1.000000e+000
    outer loop
      vertex -3.136895e+001 -5.019495e+001  0.000000e+000
      vertex -3.523758e+001 -5.132632e+001  0.000000e+000
      vertex -3.476895e+001 -5.019495e+001  0.000000e+000
    endloop
  endfacet
  facet normal  0.000000e+000  0.000000e+000 -1.000000e+000
    outer loop
      vertex -3.136895e+001 -5.019495e+001  0.000000e+000
      vertex -3.476895e+001 -5.019495e+001  0.000000e+000
      vertex -3.523758e+001 -4.906358e+001  0.000000e+000
    endloop
  endfacet
  facet normal  0.000000e+000  0.000000e+000 -1.000000e+000
    outer loop
      vertex -3.136895e+001 -5.019495e+001  0.000000e+000
      vertex -3.523758e+001 -4.906358e+001  0.000000e+000
      vertex -3.636895e+001 -4.859496e+001  0.000000e+000
    endloop
  endfacet
  facet normal  0.000000e+000  0.000000e+000 -1.000000e+000
    outer loop
      vertex -3.136895e+001 -5.019495e+001  0.000000e+000
      vertex -3.636895e+001 -4.859496e+001  0.000000e+000
      vertex -3.636895e+001 -1.179495e+001  0.000000e+000
    endloop
  endfacet
  facet normal  0.000000e+000  0.000000e+000 -1.000000e+000
    outer loop
      vertex -3.136895e+001 -5.019495e+001  0.000000e+000
      vertex -3.636895e+001 -1.179495e+001  0.000000e+000
      vertex -3.523758e+001 -1.132632e+001  0.000000e+000
    endloop
  endfacet
  facet normal  0.000000e+000  0.000000e+000 -1.000000e+000
    outer loop
      vertex -3.136895e+001 -5.019495e+001  0.000000e+000
      vertex -3.523758e+001 -1.132632e+001  0.000000e+000
      vertex -3.476895e+001 -1.019495e+001  0.000000e+000
    endloop
  endfacet
  facet normal  0.000000e+000  0.000000e+000 -1.000000e+000
    outer loop
      vertex -3.136895e+001 -5.019495e+001  0.000000e+000
      vertex -3.476895e+001 -1.019495e+001  0.000000e+000
      vertex -3.136895e+001 -1.019495e+001  0.000000e+000
    endloop
  endfacet
  facet normal  0.000000e+000  0.000000e+000 -1.000000e+000
    outer loop
      vertex -3.386895e+001 -5.864827e+000  0.000000e+000
      vertex -3.203882e+001 -7.694954e+000  0.000000e+000
      vertex -3.636895e+001 -5.194954e+000  0.000000e+000
    endloop
  endfacet
  facet normal  0.000000e+000  0.000000e+000 -1.000000e+000
    outer loop
      vertex -3.636895e+001 -5.194954e+000  0.000000e+000
      vertex -3.203882e+001 -7.694954e+000  0.000000e+000
      vertex -3.636895e+001 -8.594954e+000  0.000000e+000
    endloop
  endfacet
  facet normal  0.000000e+000  0.000000e+000 -1.000000e+000
    outer loop
      vertex -3.636895e+001 -5.194954e+000  0.000000e+000
      vertex -3.636895e+001 -8.594954e+000  0.000000e+000
      vertex -5.636895e+001 -5.194954e+000  0.000000e+000
    endloop
  endfacet
  facet normal  0.000000e+000  0.000000e+000 -1.000000e+000
    outer loop
      vertex -5.636895e+001 -5.194954e+000  0.000000e+000
      vertex -3.636895e+001 -8.594954e+000  0.000000e+000
      vertex -5.636895e+001 -8.594954e+000  0.000000e+000
    endloop
  endfacet
  facet normal  0.000000e+000  0.000000e+000 -1.000000e+000
    outer loop
      vertex -5.636895e+001 -5.194954e+000  0.000000e+000
      vertex -5.636895e+001 -8.594954e+000  0.000000e+000
      vertex -5.886895e+001 -5.864827e+000  0.000000e+000
    endloop
  endfacet
  facet normal  0.000000e+000  -0.000000e+000 -1.000000e+000
    outer loop
      vertex -5.886895e+001 -5.864827e+000  0.000000e+000
      vertex -5.636895e+001 -8.594954e+000  0.000000e+000
      vertex -6.069908e+001 -7.694954e+000  0.000000e+000
    endloop
  endfacet
  facet normal  -0.000000e+000  0.000000e+000 -1.000000e+000
    outer loop
      vertex -6.069908e+001 -7.694954e+000  0.000000e+000
      vertex -5.636895e+001 -8.594954e+000  0.000000e+000
      vertex -6.136895e+001 -1.019495e+001  0.000000e+000
    endloop
  endfacet
  facet normal  0.000000e+000  0.000000e+000 -1.000000e+000
    outer loop
      vertex -6.136895e+001 -1.019495e+001  0.000000e+000
      vertex -5.636895e+001 -8.594954e+000  0.000000e+000
      vertex -5.750032e+001 -9.063583e+000  0.000000e+000
    endloop
  endfacet
  facet normal  0.000000e+000  0.000000e+000 -1.000000e+000
    outer loop
      vertex -6.136895e+001 -1.019495e+001  0.000000e+000
      vertex -5.750032e+001 -9.063583e+000  0.000000e+000
      vertex -5.796895e+001 -1.019495e+001  0.000000e+000
    endloop
  endfacet
  facet normal  -0.000000e+000  0.000000e+000 -1.000000e+000
    outer loop
      vertex -5.636895e+001 -8.594954e+000  0.000000e+000
      vertex -3.636895e+001 -8.594954e+000  0.000000e+000
      vertex -5.523758e+001 -9.063583e+000  0.000000e+000
    endloop
  endfacet
  facet normal  0.000000e+000  0.000000e+000 -1.000000e+000
    outer loop
      vertex -5.523758e+001 -9.063583e+000  0.000000e+000
      vertex -3.636895e+001 -8.594954e+000  0.000000e+000
      vertex -3.750032e+001 -9.063583e+000  0.000000e+000
    endloop
  endfacet
  facet normal  -0.000000e+000  0.000000e+000 -1.000000e+000
    outer loop
      vertex -5.523758e+001 -9.063583e+000  0.000000e+000
      vertex -3.750032e+001 -9.063583e+000  0.000000e+000
      vertex -5.476895e+001 -1.019495e+001  0.000000e+000
    endloop
  endfacet
  facet normal  0.000000e+000  0.000000e+000 -9.999999e-001
    outer loop
      vertex -5.476895e+001 -1.019495e+001  0.000000e+000
      vertex -3.750032e+001 -9.063583e+000  0.000000e+000
      vertex -3.796895e+001 -1.019495e+001  0.000000e+000
    endloop
  endfacet
  facet normal  -0.000000e+000  0.000000e+000 -9.999999e-001
    outer loop
      vertex -5.476895e+001 -1.019495e+001  0.000000e+000
      vertex -3.796895e+001 -1.019495e+001  0.000000e+000
      vertex -5.523758e+001 -1.132632e+001  0.000000e+000
    endloop
  endfacet
  facet normal  0.000000e+000  0.000000e+000 -1.000000e+000
    outer loop
      vertex -5.523758e+001 -1.132632e+001  0.000000e+000
      vertex -3.796895e+001 -1.019495e+001  0.000000e+000
      vertex -3.750032e+001 -1.132632e+001  0.000000e+000
    endloop
  endfacet
  facet normal  -0.000000e+000  0.000000e+000 -1.000000e+000
    outer loop
      vertex -5.523758e+001 -1.132632e+001  0.000000e+000
      vertex -3.750032e+001 -1.132632e+001  0.000000e+000
      vertex -5.636895e+001 -1.179495e+001  0.000000e+000
    endloop
  endfacet
  facet normal  0.000000e+000  0.000000e+000 -1.000000e+000
    outer loop
      vertex -5.636895e+001 -1.179495e+001  0.000000e+000
      vertex -3.750032e+001 -1.132632e+001  0.000000e+000
      vertex -3.636895e+001 -1.179495e+001  0.000000e+000
    endloop
  endfacet
  facet normal  -0.000000e+000  0.000000e+000 -1.000000e+000
    outer loop
      vertex -5.636895e+001 -1.179495e+001  0.000000e+000
      vertex -3.636895e+001 -1.179495e+001  0.000000e+000
      vertex -5.636895e+001 -4.859496e+001  0.000000e+000
    endloop
  endfacet
  facet normal  0.000000e+000  0.000000e+000 -1.000000e+000
    outer loop
      vertex -5.636895e+001 -4.859496e+001  0.000000e+000
      vertex -3.636895e+001 -1.179495e+001  0.000000e+000
      vertex -3.636895e+001 -4.859496e+001  0.000000e+000
    endloop
  endfacet
  facet normal  -0.000000e+000  0.000000e+000 -1.000000e+000
    outer loop
      vertex -5.636895e+001 -4.859496e+001  0.000000e+000
      vertex -3.636895e+001 -4.859496e+001  0.000000e+000
      vertex -5.523758e+001 -4.906358e+001  0.000000e+000
    endloop
  endfacet
  facet normal  0.000000e+000  0.000000e+000 -1.000000e+000
    outer loop
      vertex -5.523758e+001 -4.906358e+001  0.000000e+000
      vertex -3.636895e+001 -4.859496e+001  0.000000e+000
      vertex -3.750032e+001 -4.906358e+001  0.000000e+000
    endloop
  endfacet
  facet normal  -0.000000e+000  0.000000e+000 -1.000000e+000
    outer loop
      vertex -5.523758e+001 -4.906358e+001  0.000000e+000
      vertex -3.750032e+001 -4.906358e+001  0.000000e+000
      vertex -5.476895e+001 -5.019495e+001  0.000000e+000
    endloop
  endfacet
  facet normal  0.000000e+000  0.000000e+000 -9.999999e-001
    outer loop
      vertex -5.476895e+001 -5.019495e+001  0.000000e+000
      vertex -3.750032e+001 -4.906358e+001  0.000000e+000
      vertex -3.796895e+001 -5.019495e+001  0.000000e+000
    endloop
  endfacet
  facet normal  -0.000000e+000  0.000000e+000 -9.999999e-001
    outer loop
      vertex -5.476895e+001 -5.019495e+001  0.000000e+000
      vertex -3.796895e+001 -5.019495e+001  0.000000e+000
      vertex -5.523758e+001 -5.132632e+001  0.000000e+000
    endloop
  endfacet
  facet normal  0.000000e+000  0.000000e+000 -1.000000e+000
    outer loop
      vertex -5.523758e+001 -5.132632e+001  0.000000e+000
      vertex -3.796895e+001 -5.019495e+001  0.000000e+000
      vertex -3.750032e+001 -5.132632e+001  0.000000e+000
    endloop
  endfacet
  facet normal  -0.000000e+000  0.000000e+000 -1.000000e+000
    outer loop
      vertex -5.523758e+001 -5.132632e+001  0.000000e+000
      vertex -3.750032e+001 -5.132632e+001  0.000000e+000
      vertex -5.636895e+001 -5.179495e+001  0.000000e+000
    endloop
  endfacet
  facet normal  0.000000e+000  0.000000e+000 -1.000000e+000
    outer loop
      vertex -5.636895e+001 -5.179495e+001  0.000000e+000
      vertex -3.750032e+001 -5.132632e+001  0.000000e+000
      vertex -3.636895e+001 -5.179495e+001  0.000000e+000
    endloop
  endfacet
  facet normal  -0.000000e+000  0.000000e+000 -1.000000e+000
    outer loop
      vertex -5.636895e+001 -5.179495e+001  0.000000e+000
      vertex -3.636895e+001 -5.179495e+001  0.000000e+000
      vertex -5.636895e+001 -5.519495e+001  0.000000e+000
    endloop
  endfacet
  facet normal  0.000000e+000  0.000000e+000 -1.000000e+000
    outer loop
      vertex -5.636895e+001 -5.519495e+001  0.000000e+000
      vertex -3.636895e+001 -5.179495e+001  0.000000e+000
      vertex -3.636895e+001 -5.519495e+001  0.000000e+000
    endloop
  endfacet
  facet normal  0.000000e+000  0.000000e+000 -9.999999e-001
    outer loop
      vertex -3.636895e+001 -8.594954e+000  0.000000e+000
      vertex -3.203882e+001 -7.694954e+000  0.000000e+000
      vertex -3.523758e+001 -9.063583e+000  0.000000e+000
    endloop
  endfacet
  facet normal  0.000000e+000  0.000000e+000 -1.000000e+000
    outer loop
      vertex -3.523758e+001 -9.063583e+000  0.000000e+000
      vertex -3.203882e+001 -7.694954e+000  0.000000e+000
      vertex -3.136895e+001 -1.019495e+001  0.000000e+000
    endloop
  endfacet
  facet normal  0.000000e+000  0.000000e+000 -1.000000e+000
    outer loop
      vertex -3.523758e+001 -9.063583e+000  0.000000e+000
      vertex -3.136895e+001 -1.019495e+001  0.000000e+000
      vertex -3.476895e+001 -1.019495e+001  0.000000e+000
    endloop
  endfacet
  facet normal  0.000000e+000  0.000000e+000 -1.000000e+000
    outer loop
      vertex -3.386895e+001 -5.452508e+001  0.000000e+000
      vertex -3.636895e+001 -5.519495e+001  0.000000e+000
      vertex -3.203882e+001 -5.269495e+001  0.000000e+000
    endloop
  endfacet
  facet normal  -0.000000e+000  0.000000e+000 -1.000000e+000
    outer loop
      vertex -3.203882e+001 -5.269495e+001  0.000000e+000
      vertex -3.636895e+001 -5.519495e+001  0.000000e+000
      vertex -3.636895e+001 -5.179495e+001  0.000000e+000
    endloop
  endfacet
  facet normal  0.000000e+000  0.000000e+000 -1.000000e+000
    outer loop
      vertex -3.203882e+001 -5.269495e+001  0.000000e+000
      vertex -3.636895e+001 -5.179495e+001  0.000000e+000
      vertex -3.523758e+001 -5.132632e+001  0.000000e+000
    endloop
  endfacet
  facet normal -2.588188e-001 -9.659259e-001  -0.000000e+000
    outer loop
      vertex -5.636895e+001 -5.519495e+001  0.000000e+000
      vertex -5.636895e+001 -5.519495e+001  4.000000e+000
      vertex -5.886895e+001 -5.452508e+001  0.000000e+000
    endloop
  endfacet
  facet normal -2.588188e-001 -9.659259e-001  0.000000e+000
    outer loop
      vertex -5.886895e+001 -5.452508e+001  0.000000e+000
      vertex -5.636895e+001 -5.519495e+001  4.000000e+000
      vertex -5.886895e+001 -5.452508e+001  4.000000e+000
    endloop
  endfacet
  facet normal -7.071068e-001 -7.071068e-001  -0.000000e+000
    outer loop
      vertex -5.886895e+001 -5.452508e+001  0.000000e+000
      vertex -5.886895e+001 -5.452508e+001  4.000000e+000
      vertex -6.069908e+001 -5.269495e+001  0.000000e+000
    endloop
  endfacet
  facet normal -7.071068e-001 -7.071068e-001  0.000000e+000
    outer loop
      vertex -6.069908e+001 -5.269495e+001  0.000000e+000
      vertex -5.886895e+001 -5.452508e+001  4.000000e+000
      vertex -6.069908e+001 -5.269495e+001  4.000000e+000
    endloop
  endfacet
  facet normal -9.659259e-001 -2.588188e-001  -0.000000e+000
    outer loop
      vertex -6.069908e+001 -5.269495e+001  0.000000e+000
      vertex -6.069908e+001 -5.269495e+001  4.000000e+000
      vertex -6.136895e+001 -5.019495e+001  0.000000e+000
    endloop
  endfacet
  facet normal -9.659259e-001 -2.588188e-001  0.000000e+000
    outer loop
      vertex -6.136895e+001 -5.019495e+001  0.000000e+000
      vertex -6.069908e+001 -5.269495e+001  4.000000e+000
      vertex -6.136895e+001 -5.019495e+001  4.000000e+000
    endloop
  endfacet
  facet normal  9.659259e-001 -2.588188e-001  0.000000e+000
    outer loop
      vertex -3.136895e+001 -5.019495e+001  0.000000e+000
      vertex -3.136895e+001 -5.019495e+001  4.000000e+000
      vertex -3.203882e+001 -5.269495e+001  0.000000e+000
    endloop
  endfacet
  facet normal  9.659259e-001 -2.588188e-001  0.000000e+000
    outer loop
      vertex -3.203882e+001 -5.269495e+001  0.000000e+000
      vertex -3.136895e+001 -5.019495e+001  4.000000e+000
      vertex -3.203882e+001 -5.269495e+001  4.000000e+000
    endloop
  endfacet
  facet normal  7.071068e-001 -7.071068e-001  0.000000e+000
    outer loop
      vertex -3.203882e+001 -5.269495e+001  0.000000e+000
      vertex -3.203882e+001 -5.269495e+001  4.000000e+000
      vertex -3.386895e+001 -5.452508e+001  0.000000e+000
    endloop
  endfacet
  facet normal  7.071068e-001 -7.071068e-001  0.000000e+000
    outer loop
      vertex -3.386895e+001 -5.452508e+001  0.000000e+000
      vertex -3.203882e+001 -5.269495e+001  4.000000e+000
      vertex -3.386895e+001 -5.452508e+001  4.000000e+000
    endloop
  endfacet
  facet normal  2.588188e-001 -9.659259e-001  0.000000e+000
    outer loop
      vertex -3.386895e+001 -5.452508e+001  0.000000e+000
      vertex -3.386895e+001 -5.452508e+001  4.000000e+000
      vertex -3.636895e+001 -5.519495e+001  0.000000e+000
    endloop
  endfacet
  facet normal  2.588188e-001 -9.659259e-001  0.000000e+000
    outer loop
      vertex -3.636895e+001 -5.519495e+001  0.000000e+000
      vertex -3.386895e+001 -5.452508e+001  4.000000e+000
      vertex -3.636895e+001 -5.519495e+001  4.000000e+000
    endloop
  endfacet
  facet normal -9.659259e-001  2.588188e-001  0.000000e+000
    outer loop
      vertex -6.136895e+001 -1.019495e+001  0.000000e+000
      vertex -6.136895e+001 -1.019495e+001  4.000000e+000
      vertex -6.069908e+001 -7.694954e+000  0.000000e+000
    endloop
  endfacet
  facet normal -9.659259e-001  2.588188e-001  0.000000e+000
    outer loop
      vertex -6.069908e+001 -7.694954e+000  0.000000e+000
      vertex -6.136895e+001 -1.019495e+001  4.000000e+000
      vertex -6.069908e+001 -7.694954e+000  4.000000e+000
    endloop
  endfacet
  facet normal -7.071067e-001  7.071069e-001  0.000000e+000
    outer loop
      vertex -6.069908e+001 -7.694954e+000  0.000000e+000
      vertex -6.069908e+001 -7.694954e+000  4.000000e+000
      vertex -5.886895e+001 -5.864827e+000  0.000000e+000
    endloop
  endfacet
  facet normal -7.071067e-001  7.071069e-001  0.000000e+000
    outer loop
      vertex -5.886895e+001 -5.864827e+000  0.000000e+000
      vertex -6.069908e+001 -7.694954e+000  4.000000e+000
      vertex -5.886895e+001 -5.864827e+000  4.000000e+000
    endloop
  endfacet
  facet normal -2.588190e-001  9.659259e-001  0.000000e+000
    outer loop
      vertex -5.886895e+001 -5.864827e+000  0.000000e+000
      vertex -5.886895e+001 -5.864827e+000  4.000000e+000
      vertex -5.636895e+001 -5.194954e+000  0.000000e+000
    endloop
  endfacet
  facet normal -2.588190e-001  9.659259e-001  0.000000e+000
    outer loop
      vertex -5.636895e+001 -5.194954e+000  0.000000e+000
      vertex -5.886895e+001 -5.864827e+000  4.000000e+000
      vertex -5.636895e+001 -5.194954e+000  4.000000e+000
    endloop
  endfacet
  facet normal  2.588190e-001  9.659259e-001  0.000000e+000
    outer loop
      vertex -3.636895e+001 -5.194954e+000  0.000000e+000
      vertex -3.636895e+001 -5.194954e+000  4.000000e+000
      vertex -3.386895e+001 -5.864827e+000  0.000000e+000
    endloop
  endfacet
  facet normal  2.588190e-001  9.659259e-001  -0.000000e+000
    outer loop
      vertex -3.386895e+001 -5.864827e+000  0.000000e+000
      vertex -3.636895e+001 -5.194954e+000  4.000000e+000
      vertex -3.386895e+001 -5.864827e+000  4.000000e+000
    endloop
  endfacet
  facet normal  7.071067e-001  7.071069e-001  0.000000e+000
    outer loop
      vertex -3.386895e+001 -5.864827e+000  0.000000e+000
      vertex -3.386895e+001 -5.864827e+000  4.000000e+000
      vertex -3.203882e+001 -7.694954e+000  0.000000e+000
    endloop
  endfacet
  facet normal  7.071067e-001  7.071069e-001  -0.000000e+000
    outer loop
      vertex -3.203882e+001 -7.694954e+000  0.000000e+000
      vertex -3.386895e+001 -5.864827e+000  4.000000e+000
      vertex -3.203882e+001 -7.694954e+000  4.000000e+000
    endloop
  endfacet
  facet normal  9.659259e-001  2.588188e-001  0.000000e+000
    outer loop
      vertex -3.203882e+001 -7.694954e+000  0.000000e+000
      vertex -3.203882e+001 -7.694954e+000  4.000000e+000
      vertex -3.136895e+001 -1.019495e+001  0.000000e+000
    endloop
  endfacet
  facet normal  9.659259e-001  2.588188e-001  -0.000000e+000
    outer loop
      vertex -3.136895e+001 -1.019495e+001  0.000000e+000
      vertex -3.203882e+001 -7.694954e+000  4.000000e+000
      vertex -3.136895e+001 -1.019495e+001  4.000000e+000
    endloop
  endfacet
  facet normal  0.000000e+000  0.000000e+000  9.999999e-001
    outer loop
      vertex -3.536895e+001 -4.109496e+001  3.400000e+001
      vertex -3.136895e+001 -4.109496e+001  3.400000e+001
      vertex -3.536895e+001 -1.929495e+001  3.400000e+001
    endloop
  endfacet
  facet normal  -0.000000e+000  0.000000e+000  9.999999e-001
    outer loop
      vertex -3.536895e+001 -1.929495e+001  3.400000e+001
      vertex -3.136895e+001 -4.109496e+001  3.400000e+001
      vertex -3.136895e+001 -1.929495e+001  3.400000e+001
    endloop
  endfacet
  facet normal  -0.000000e+000  9.659259e-001  2.588188e-001
    outer loop
      vertex -3.136895e+001 -1.429495e+001  2.900000e+001
      vertex -3.536895e+001 -1.429495e+001  2.900000e+001
      vertex -3.136895e+001 -1.496483e+001  3.150000e+001
    endloop
  endfacet
  facet normal  0.000000e+000  9.659259e-001  2.588188e-001
    outer loop
      vertex -3.136895e+001 -1.496483e+001  3.150000e+001
      vertex -3.536895e+001 -1.429495e+001  2.900000e+001
      vertex -3.536895e+001 -1.496483e+001  3.150000e+001
    endloop
  endfacet
  facet normal  -0.000000e+000  7.071068e-001  7.071068e-001
    outer loop
      vertex -3.136895e+001 -1.496483e+001  3.150000e+001
      vertex -3.536895e+001 -1.496483e+001  3.150000e+001
      vertex -3.136895e+001 -1.679495e+001  3.333013e+001
    endloop
  endfacet
  facet normal  0.000000e+000  7.071068e-001  7.071068e-001
    outer loop
      vertex -3.136895e+001 -1.679495e+001  3.333013e+001
      vertex -3.536895e+001 -1.496483e+001  3.150000e+001
      vertex -3.536895e+001 -1.679495e+001  3.333013e+001
    endloop
  endfacet
  facet normal  -0.000000e+000  2.588188e-001  9.659259e-001
    outer loop
      vertex -3.136895e+001 -1.679495e+001  3.333013e+001
      vertex -3.536895e+001 -1.679495e+001  3.333013e+001
      vertex -3.136895e+001 -1.929495e+001  3.400000e+001
    endloop
  endfacet
  facet normal  0.000000e+000  2.588188e-001  9.659259e-001
    outer loop
      vertex -3.136895e+001 -1.929495e+001  3.400000e+001
      vertex -3.536895e+001 -1.679495e+001  3.333013e+001
      vertex -3.536895e+001 -1.929495e+001  3.400000e+001
    endloop
  endfacet
  facet normal  0.000000e+000 -2.588188e-001  9.659259e-001
    outer loop
      vertex -3.136895e+001 -4.109496e+001  3.400000e+001
      vertex -3.536895e+001 -4.109496e+001  3.400000e+001
      vertex -3.136895e+001 -4.359496e+001  3.333013e+001
    endloop
  endfacet
  facet normal  0.000000e+000 -2.588188e-001  9.659259e-001
    outer loop
      vertex -3.136895e+001 -4.359496e+001  3.333013e+001
      vertex -3.536895e+001 -4.109496e+001  3.400000e+001
      vertex -3.536895e+001 -4.359496e+001  3.333013e+001
    endloop
  endfacet
  facet normal  0.000000e+000 -7.071075e-001  7.071061e-001
    outer loop
      vertex -3.136895e+001 -4.359496e+001  3.333013e+001
      vertex -3.536895e+001 -4.359496e+001  3.333013e+001
      vertex -3.136895e+001 -4.542508e+001  3.150000e+001
    endloop
  endfacet
  facet normal  0.000000e+000 -7.071075e-001  7.071061e-001
    outer loop
      vertex -3.136895e+001 -4.542508e+001  3.150000e+001
      vertex -3.536895e+001 -4.359496e+001  3.333013e+001
      vertex -3.536895e+001 -4.542508e+001  3.150000e+001
    endloop
  endfacet
  facet normal  0.000000e+000 -9.659255e-001  2.588202e-001
    outer loop
      vertex -3.136895e+001 -4.542508e+001  3.150000e+001
      vertex -3.536895e+001 -4.542508e+001  3.150000e+001
      vertex -3.136895e+001 -4.609496e+001  2.900000e+001
    endloop
  endfacet
  facet normal  0.000000e+000 -9.659255e-001  2.588202e-001
    outer loop
      vertex -3.136895e+001 -4.609496e+001  2.900000e+001
      vertex -3.536895e+001 -4.542508e+001  3.150000e+001
      vertex -3.536895e+001 -4.609496e+001  2.900000e+001
    endloop
  endfacet
  facet normal -9.238799e-001  3.826827e-001  0.000000e+000
    outer loop
      vertex -3.476895e+001 -5.019495e+001  4.000000e+000
      vertex -3.476895e+001 -5.019495e+001  0.000000e+000
      vertex -3.523758e+001 -5.132632e+001  4.000000e+000
    endloop
  endfacet
  facet normal -9.238799e-001  3.826827e-001  0.000000e+000
    outer loop
      vertex -3.523758e+001 -5.132632e+001  4.000000e+000
      vertex -3.476895e+001 -5.019495e+001  0.000000e+000
      vertex -3.523758e+001 -5.132632e+001  0.000000e+000
    endloop
  endfacet
  facet normal -3.826827e-001  9.238799e-001  0.000000e+000
    outer loop
      vertex -3.523758e+001 -5.132632e+001  4.000000e+000
      vertex -3.523758e+001 -5.132632e+001  0.000000e+000
      vertex -3.636895e+001 -5.179495e+001  4.000000e+000
    endloop
  endfacet
  facet normal -3.826827e-001  9.238799e-001  0.000000e+000
    outer loop
      vertex -3.636895e+001 -5.179495e+001  4.000000e+000
      vertex -3.523758e+001 -5.132632e+001  0.000000e+000
      vertex -3.636895e+001 -5.179495e+001  0.000000e+000
    endloop
  endfacet
  facet normal  3.826827e-001  9.238799e-001  -0.000000e+000
    outer loop
      vertex -3.636895e+001 -5.179495e+001  4.000000e+000
      vertex -3.636895e+001 -5.179495e+001  0.000000e+000
      vertex -3.750032e+001 -5.132632e+001  4.000000e+000
    endloop
  endfacet
  facet normal  3.826827e-001  9.238799e-001  0.000000e+000
    outer loop
      vertex -3.750032e+001 -5.132632e+001  4.000000e+000
      vertex -3.636895e+001 -5.179495e+001  0.000000e+000
      vertex -3.750032e+001 -5.132632e+001  0.000000e+000
    endloop
  endfacet
  facet normal  9.238799e-001  3.826827e-001  -0.000000e+000
    outer loop
      vertex -3.750032e+001 -5.132632e+001  4.000000e+000
      vertex -3.750032e+001 -5.132632e+001  0.000000e+000
      vertex -3.796895e+001 -5.019495e+001  4.000000e+000
    endloop
  endfacet
  facet normal  9.238799e-001  3.826827e-001  0.000000e+000
    outer loop
      vertex -3.796895e+001 -5.019495e+001  4.000000e+000
      vertex -3.750032e+001 -5.132632e+001  0.000000e+000
      vertex -3.796895e+001 -5.019495e+001  0.000000e+000
    endloop
  endfacet
  facet normal  9.238799e-001 -3.826827e-001  0.000000e+000
    outer loop
      vertex -3.796895e+001 -5.019495e+001  4.000000e+000
      vertex -3.796895e+001 -5.019495e+001  0.000000e+000
      vertex -3.750032e+001 -4.906358e+001  4.000000e+000
    endloop
  endfacet
  facet normal  9.238799e-001 -3.826827e-001  0.000000e+000
    outer loop
      vertex -3.750032e+001 -4.906358e+001  4.000000e+000
      vertex -3.796895e+001 -5.019495e+001  0.000000e+000
      vertex -3.750032e+001 -4.906358e+001  0.000000e+000
    endloop
  endfacet
  facet normal  3.826827e-001 -9.238799e-001  0.000000e+000
    outer loop
      vertex -3.750032e+001 -4.906358e+001  4.000000e+000
      vertex -3.750032e+001 -4.906358e+001  0.000000e+000
      vertex -3.636895e+001 -4.859496e+001  4.000000e+000
    endloop
  endfacet
  facet normal  3.826827e-001 -9.238799e-001  0.000000e+000
    outer loop
      vertex -3.636895e+001 -4.859496e+001  4.000000e+000
      vertex -3.750032e+001 -4.906358e+001  0.000000e+000
      vertex -3.636895e+001 -4.859496e+001  0.000000e+000
    endloop
  endfacet
  facet normal -3.826827e-001 -9.238799e-001  0.000000e+000
    outer loop
      vertex -3.636895e+001 -4.859496e+001  4.000000e+000
      vertex -3.636895e+001 -4.859496e+001  0.000000e+000
      vertex -3.523758e+001 -4.906358e+001  4.000000e+000
    endloop
  endfacet
  facet normal -3.826827e-001 -9.238799e-001  -0.000000e+000
    outer loop
      vertex -3.523758e+001 -4.906358e+001  4.000000e+000
      vertex -3.636895e+001 -4.859496e+001  0.000000e+000
      vertex -3.523758e+001 -4.906358e+001  0.000000e+000
    endloop
  endfacet
  facet normal -9.238799e-001 -3.826827e-001  0.000000e+000
    outer loop
      vertex -3.523758e+001 -4.906358e+001  4.000000e+000
      vertex -3.523758e+001 -4.906358e+001  0.000000e+000
      vertex -3.476895e+001 -5.019495e+001  4.000000e+000
    endloop
  endfacet
  facet normal -9.238799e-001 -3.826827e-001  -0.000000e+000
    outer loop
      vertex -3.476895e+001 -5.019495e+001  4.000000e+000
      vertex -3.523758e+001 -4.906358e+001  0.000000e+000
      vertex -3.476895e+001 -5.019495e+001  0.000000e+000
    endloop
  endfacet
  facet normal -9.238799e-001  3.826827e-001  0.000000e+000
    outer loop
      vertex -5.476895e+001 -5.019495e+001  4.000000e+000
      vertex -5.476895e+001 -5.019495e+001  0.000000e+000
      vertex -5.523758e+001 -5.132632e+001  4.000000e+000
    endloop
  endfacet
  facet normal -9.238799e-001  3.826827e-001  0.000000e+000
    outer loop
      vertex -5.523758e+001 -5.132632e+001  4.000000e+000
      vertex -5.476895e+001 -5.019495e+001  0.000000e+000
      vertex -5.523758e+001 -5.132632e+001  0.000000e+000
    endloop
  endfacet
  facet normal -3.826827e-001  9.238799e-001  0.000000e+000
    outer loop
      vertex -5.523758e+001 -5.132632e+001  4.000000e+000
      vertex -5.523758e+001 -5.132632e+001  0.000000e+000
      vertex -5.636895e+001 -5.179495e+001  4.000000e+000
    endloop
  endfacet
  facet normal -3.826827e-001  9.238799e-001  0.000000e+000
    outer loop
      vertex -5.636895e+001 -5.179495e+001  4.000000e+000
      vertex -5.523758e+001 -5.132632e+001  0.000000e+000
      vertex -5.636895e+001 -5.179495e+001  0.000000e+000
    endloop
  endfacet
  facet normal  3.826827e-001  9.238799e-001  -0.000000e+000
    outer loop
      vertex -5.636895e+001 -5.179495e+001  4.000000e+000
      vertex -5.636895e+001 -5.179495e+001  0.000000e+000
      vertex -5.750032e+001 -5.132632e+001  4.000000e+000
    endloop
  endfacet
  facet normal  3.826827e-001  9.238799e-001  0.000000e+000
    outer loop
      vertex -5.750032e+001 -5.132632e+001  4.000000e+000
      vertex -5.636895e+001 -5.179495e+001  0.000000e+000
      vertex -5.750032e+001 -5.132632e+001  0.000000e+000
    endloop
  endfacet
  facet normal  9.238799e-001  3.826827e-001  -0.000000e+000
    outer loop
      vertex -5.750032e+001 -5.132632e+001  4.000000e+000
      vertex -5.750032e+001 -5.132632e+001  0.000000e+000
      vertex -5.796895e+001 -5.019495e+001  4.000000e+000
    endloop
  endfacet
  facet normal  9.238799e-001  3.826827e-001  0.000000e+000
    outer loop
      vertex -5.796895e+001 -5.019495e+001  4.000000e+000
      vertex -5.750032e+001 -5.132632e+001  0.000000e+000
      vertex -5.796895e+001 -5.019495e+001  0.000000e+000
    endloop
  endfacet
  facet normal  9.238799e-001 -3.826827e-001  0.000000e+000
    outer loop
      vertex -5.796895e+001 -5.019495e+001  4.000000e+000
      vertex -5.796895e+001 -5.019495e+001  0.000000e+000
      vertex -5.750032e+001 -4.906358e+001  4.000000e+000
    endloop
  endfacet
  facet normal  9.238799e-001 -3.826827e-001  0.000000e+000
    outer loop
      vertex -5.750032e+001 -4.906358e+001  4.000000e+000
      vertex -5.796895e+001 -5.019495e+001  0.000000e+000
      vertex -5.750032e+001 -4.906358e+001  0.000000e+000
    endloop
  endfacet
  facet normal  3.826827e-001 -9.238799e-001  0.000000e+000
    outer loop
      vertex -5.750032e+001 -4.906358e+001  4.000000e+000
      vertex -5.750032e+001 -4.906358e+001  0.000000e+000
      vertex -5.636895e+001 -4.859496e+001  4.000000e+000
    endloop
  endfacet
  facet normal  3.826827e-001 -9.238799e-001  0.000000e+000
    outer loop
      vertex -5.636895e+001 -4.859496e+001  4.000000e+000
      vertex -5.750032e+001 -4.906358e+001  0.000000e+000
      vertex -5.636895e+001 -4.859496e+001  0.000000e+000
    endloop
  endfacet
  facet normal -3.826827e-001 -9.238799e-001  0.000000e+000
    outer loop
      vertex -5.636895e+001 -4.859496e+001  4.000000e+000
      vertex -5.636895e+001 -4.859496e+001  0.000000e+000
      vertex -5.523758e+001 -4.906358e+001  4.000000e+000
    endloop
  endfacet
  facet normal -3.826827e-001 -9.238799e-001  -0.000000e+000
    outer loop
      vertex -5.523758e+001 -4.906358e+001  4.000000e+000
      vertex -5.636895e+001 -4.859496e+001  0.000000e+000
      vertex -5.523758e+001 -4.906358e+001  0.000000e+000
    endloop
  endfacet
  facet normal -9.238799e-001 -3.826827e-001  0.000000e+000
    outer loop
      vertex -5.523758e+001 -4.906358e+001  4.000000e+000
      vertex -5.523758e+001 -4.906358e+001  0.000000e+000
      vertex -5.476895e+001 -5.019495e+001  4.000000e+000
    endloop
  endfacet
  facet normal -9.238799e-001 -3.826827e-001  -0.000000e+000
    outer loop
      vertex -5.476895e+001 -5.019495e+001  4.000000e+000
      vertex -5.523758e+001 -4.906358e+001  0.000000e+000
      vertex -5.476895e+001 -5.019495e+001  0.000000e+000
    endloop
  endfacet
  facet normal -9.238799e-001  3.826827e-001  0.000000e+000
    outer loop
      vertex -3.476895e+001 -1.019495e+001  4.000000e+000
      vertex -3.476895e+001 -1.019495e+001  0.000000e+000
      vertex -3.523758e+001 -1.132632e+001  4.000000e+000
    endloop
  endfacet
  facet normal -9.238799e-001  3.826827e-001  0.000000e+000
    outer loop
      vertex -3.523758e+001 -1.132632e+001  4.000000e+000
      vertex -3.476895e+001 -1.019495e+001  0.000000e+000
      vertex -3.523758e+001 -1.132632e+001  0.000000e+000
    endloop
  endfacet
  facet normal -3.826840e-001  9.238793e-001  0.000000e+000
    outer loop
      vertex -3.523758e+001 -1.132632e+001  4.000000e+000
      vertex -3.523758e+001 -1.132632e+001  0.000000e+000
      vertex -3.636895e+001 -1.179495e+001  4.000000e+000
    endloop
  endfacet
  facet normal -3.826840e-001  9.238793e-001  0.000000e+000
    outer loop
      vertex -3.636895e+001 -1.179495e+001  4.000000e+000
      vertex -3.523758e+001 -1.132632e+001  0.000000e+000
      vertex -3.636895e+001 -1.179495e+001  0.000000e+000
    endloop
  endfacet
  facet normal  3.826840e-001  9.238793e-001  -0.000000e+000
    outer loop
      vertex -3.636895e+001 -1.179495e+001  4.000000e+000
      vertex -3.636895e+001 -1.179495e+001  0.000000e+000
      vertex -3.750032e+001 -1.132632e+001  4.000000e+000
    endloop
  endfacet
  facet normal  3.826840e-001  9.238793e-001  0.000000e+000
    outer loop
      vertex -3.750032e+001 -1.132632e+001  4.000000e+000
      vertex -3.636895e+001 -1.179495e+001  0.000000e+000
      vertex -3.750032e+001 -1.132632e+001  0.000000e+000
    endloop
  endfacet
  facet normal  9.238799e-001  3.826827e-001  -0.000000e+000
    outer loop
      vertex -3.750032e+001 -1.132632e+001  4.000000e+000
      vertex -3.750032e+001 -1.132632e+001  0.000000e+000
      vertex -3.796895e+001 -1.019495e+001  4.000000e+000
    endloop
  endfacet
  facet normal  9.238799e-001  3.826827e-001  0.000000e+000
    outer loop
      vertex -3.796895e+001 -1.019495e+001  4.000000e+000
      vertex -3.750032e+001 -1.132632e+001  0.000000e+000
      vertex -3.796895e+001 -1.019495e+001  0.000000e+000
    endloop
  endfacet
  facet normal  9.238799e-001 -3.826827e-001  0.000000e+000
    outer loop
      vertex -3.796895e+001 -1.019495e+001  4.000000e+000
      vertex -3.796895e+001 -1.019495e+001  0.000000e+000
      vertex -3.750032e+001 -9.063583e+000  4.000000e+000
    endloop
  endfacet
  facet normal  9.238799e-001 -3.826827e-001  0.000000e+000
    outer loop
      vertex -3.750032e+001 -9.063583e+000  4.000000e+000
      vertex -3.796895e+001 -1.019495e+001  0.000000e+000
      vertex -3.750032e+001 -9.063583e+000  0.000000e+000
    endloop
  endfacet
  facet normal  3.826840e-001 -9.238793e-001  0.000000e+000
    outer loop
      vertex -3.750032e+001 -9.063583e+000  4.000000e+000
      vertex -3.750032e+001 -9.063583e+000  0.000000e+000
      vertex -3.636895e+001 -8.594954e+000  4.000000e+000
    endloop
  endfacet
  facet normal  3.826840e-001 -9.238793e-001  0.000000e+000
    outer loop
      vertex -3.636895e+001 -8.594954e+000  4.000000e+000
      vertex -3.750032e+001 -9.063583e+000  0.000000e+000
      vertex -3.636895e+001 -8.594954e+000  0.000000e+000
    endloop
  endfacet
  facet normal -3.826840e-001 -9.238793e-001  0.000000e+000
    outer loop
      vertex -3.636895e+001 -8.594954e+000  4.000000e+000
      vertex -3.636895e+001 -8.594954e+000  0.000000e+000
      vertex -3.523758e+001 -9.063583e+000  4.000000e+000
    endloop
  endfacet
  facet normal -3.826840e-001 -9.238793e-001  -0.000000e+000
    outer loop
      vertex -3.523758e+001 -9.063583e+000  4.000000e+000
      vertex -3.636895e+001 -8.594954e+000  0.000000e+000
      vertex -3.523758e+001 -9.063583e+000  0.000000e+000
    endloop
  endfacet
  facet normal -9.238799e-001 -3.826827e-001  0.000000e+000
    outer loop
      vertex -3.523758e+001 -9.063583e+000  4.000000e+000
      vertex -3.523758e+001 -9.063583e+000  0.000000e+000
      vertex -3.476895e+001 -1.019495e+001  4.000000e+000
    endloop
  endfacet
  facet normal -9.238799e-001 -3.826827e-001  -0.000000e+000
    outer loop
      vertex -3.476895e+001 -1.019495e+001  4.000000e+000
      vertex -3.523758e+001 -9.063583e+000  0.000000e+000
      vertex -3.476895e+001 -1.019495e+001  0.000000e+000
    endloop
  endfacet
  facet normal -9.238799e-001  3.826827e-001  0.000000e+000
    outer loop
      vertex -5.476895e+001 -1.019495e+001  4.000000e+000
      vertex -5.476895e+001 -1.019495e+001  0.000000e+000
      vertex -5.523758e+001 -1.132632e+001  4.000000e+000
    endloop
  endfacet
  facet normal -9.238799e-001  3.826827e-001  0.000000e+000
    outer loop
      vertex -5.523758e+001 -1.132632e+001  4.000000e+000
      vertex -5.476895e+001 -1.019495e+001  0.000000e+000
      vertex -5.523758e+001 -1.132632e+001  0.000000e+000
    endloop
  endfacet
  facet normal -3.826840e-001  9.238793e-001  0.000000e+000
    outer loop
      vertex -5.523758e+001 -1.132632e+001  4.000000e+000
      vertex -5.523758e+001 -1.132632e+001  0.000000e+000
      vertex -5.636895e+001 -1.179495e+001  4.000000e+000
    endloop
  endfacet
  facet normal -3.826840e-001  9.238793e-001  0.000000e+000
    outer loop
      vertex -5.636895e+001 -1.179495e+001  4.000000e+000
      vertex -5.523758e+001 -1.132632e+001  0.000000e+000
      vertex -5.636895e+001 -1.179495e+001  0.000000e+000
    endloop
  endfacet
  facet normal  3.826840e-001  9.238793e-001  -0.000000e+000
    outer loop
      vertex -5.636895e+001 -1.179495e+001  4.000000e+000
      vertex -5.636895e+001 -1.179495e+001  0.000000e+000
      vertex -5.750032e+001 -1.132632e+001  4.000000e+000
    endloop
  endfacet
  facet normal  3.826840e-001  9.238793e-001  0.000000e+000
    outer loop
      vertex -5.750032e+001 -1.132632e+001  4.000000e+000
      vertex -5.636895e+001 -1.179495e+001  0.000000e+000
      vertex -5.750032e+001 -1.132632e+001  0.000000e+000
    endloop
  endfacet
  facet normal  9.238799e-001  3.826827e-001  -0.000000e+000
    outer loop
      vertex -5.750032e+001 -1.132632e+001  4.000000e+000
      vertex -5.750032e+001 -1.132632e+001  0.000000e+000
      vertex -5.796895e+001 -1.019495e+001  4.000000e+000
    endloop
  endfacet
  facet normal  9.238799e-001  3.826827e-001  0.000000e+000
    outer loop
      vertex -5.796895e+001 -1.019495e+001  4.000000e+000
      vertex -5.750032e+001 -1.132632e+001  0.000000e+000
      vertex -5.796895e+001 -1.019495e+001  0.000000e+000
    endloop
  endfacet
  facet normal  9.238799e-001 -3.826827e-001  0.000000e+000
    outer loop
      vertex -5.796895e+001 -1.019495e+001  4.000000e+000
      vertex -5.796895e+001 -1.019495e+001  0.000000e+000
      vertex -5.750032e+001 -9.063583e+000  4.000000e+000
    endloop
  endfacet
  facet normal  9.238799e-001 -3.826827e-001  0.000000e+000
    outer loop
      vertex -5.750032e+001 -9.063583e+000  4.000000e+000
      vertex -5.796895e+001 -1.019495e+001  0.000000e+000
      vertex -5.750032e+001 -9.063583e+000  0.000000e+000
    endloop
  endfacet
  facet normal  3.826840e-001 -9.238793e-001  0.000000e+000
    outer loop
      vertex -5.750032e+001 -9.063583e+000  4.000000e+000
      vertex -5.750032e+001 -9.063583e+000  0.000000e+000
      vertex -5.636895e+001 -8.594954e+000  4.000000e+000
    endloop
  endfacet
  facet normal  3.826840e-001 -9.238793e-001  0.000000e+000
    outer loop
      vertex -5.636895e+001 -8.594954e+000  4.000000e+000
      vertex -5.750032e+001 -9.063583e+000  0.000000e+000
      vertex -5.636895e+001 -8.594954e+000  0.000000e+000
    endloop
  endfacet
  facet normal -3.826840e-001 -9.238793e-001  0.000000e+000
    outer loop
      vertex -5.636895e+001 -8.594954e+000  4.000000e+000
      vertex -5.636895e+001 -8.594954e+000  0.000000e+000
      vertex -5.523758e+001 -9.063583e+000  4.000000e+000
    endloop
  endfacet
  facet normal -3.826840e-001 -9.238793e-001  -0.000000e+000
    outer loop
      vertex -5.523758e+001 -9.063583e+000  4.000000e+000
      vertex -5.636895e+001 -8.594954e+000  0.000000e+000
      vertex -5.523758e+001 -9.063583e+000  0.000000e+000
    endloop
  endfacet
  facet normal -9.238799e-001 -3.826827e-001  0.000000e+000
    outer loop
      vertex -5.523758e+001 -9.063583e+000  4.000000e+000
      vertex -5.523758e+001 -9.063583e+000  0.000000e+000
      vertex -5.476895e+001 -1.019495e+001  4.000000e+000
    endloop
  endfacet
  facet normal -9.238799e-001 -3.826827e-001  -0.000000e+000
    outer loop
      vertex -5.476895e+001 -1.019495e+001  4.000000e+000
      vertex -5.523758e+001 -9.063583e+000  0.000000e+000
      vertex -5.476895e+001 -1.019495e+001  0.000000e+000
    endloop
  endfacet
  facet normal  0.000000e+000  0.000000e+000 -1.000000e+000
    outer loop
      vertex -3.136895e+001 -4.209496e+001  3.000000e+001
      vertex -3.536895e+001 -4.209496e+001  3.000000e+001
      vertex -3.136895e+001 -1.829495e+001  3.000000e+001
    endloop
  endfacet
  facet normal  -0.000000e+000  0.000000e+000 -1.000000e+000
    outer loop
      vertex -3.136895e+001 -1.829495e+001  3.000000e+001
      vertex -3.536895e+001 -4.209496e+001  3.000000e+001
      vertex -3.536895e+001 -1.829495e+001  3.000000e+001
    endloop
  endfacet
  facet normal  0.000000e+000 -1.000000e+000  0.000000e+000
    outer loop
      vertex -3.536895e+001 -1.829495e+001  1.750000e+001
      vertex -3.136895e+001 -1.829495e+001  1.750000e+001
      vertex -3.536895e+001 -1.829495e+001  3.000000e+001
    endloop
  endfacet
  facet normal  0.000000e+000 -1.000000e+000  0.000000e+000
    outer loop
      vertex -3.536895e+001 -1.829495e+001  3.000000e+001
      vertex -3.136895e+001 -1.829495e+001  1.750000e+001
      vertex -3.136895e+001 -1.829495e+001  3.000000e+001
    endloop
  endfacet
  facet normal  -0.000000e+000  0.000000e+000  1.000000e+000
    outer loop
      vertex -3.136895e+001 -1.829495e+001  1.750000e+001
      vertex -3.536895e+001 -1.829495e+001  1.750000e+001
      vertex -3.136895e+001 -4.209496e+001  1.750000e+001
    endloop
  endfacet
  facet normal  0.000000e+000  0.000000e+000  1.000000e+000
    outer loop
      vertex -3.136895e+001 -4.209496e+001  1.750000e+001
      vertex -3.536895e+001 -1.829495e+001  1.750000e+001
      vertex -3.536895e+001 -4.209496e+001  1.750000e+001
    endloop
  endfacet
  facet normal  0.000000e+000  1.000000e+000  0.000000e+000
    outer loop
      vertex -3.536895e+001 -4.209496e+001  3.000000e+001
      vertex -3.136895e+001 -4.209496e+001  3.000000e+001
      vertex -3.536895e+001 -4.209496e+001  1.750000e+001
    endloop
  endfacet
  facet normal  0.000000e+000  1.000000e+000  0.000000e+000
    outer loop
      vertex -3.536895e+001 -4.209496e+001  1.750000e+001
      vertex -3.136895e+001 -4.209496e+001  3.000000e+001
      vertex -3.136895e+001 -4.209496e+001  1.750000e+001
    endloop
  endfacet
endsolid CATIA STL
